{"glyphs":{"0":{"ha":921,"x_min":61,"x_max":860,"o":"m 61 497 q 169 884 61 740 q 461 1028 278 1028 q 749 890 639 1028 q 860 514 860 753 q 751 127 860 271 q 458 -17 642 -17 q 171 121 281 -17 q 61 497 61 258 m 715 500 q 647 869 715 732 q 457 1008 581 1008 q 269 874 333 1008 q 206 513 206 740 q 272 142 206 281 q 464 3 340 3 q 651 138 588 3 q 715 500 715 271 z "},"1":{"ha":410,"x_min":18,"x_max":307,"o":"m 301 1028 l 307 1028 l 307 0 l 179 0 l 179 858 q 18 792 114 818 l 18 808 q 169 896 90 835 q 301 1028 250 956 z "},"2":{"ha":731,"x_min":29,"x_max":688,"o":"m 688 124 l 651 0 l 29 0 l 29 6 l 110 89 q 418 460 319 308 q 515 738 515 611 q 459 900 515 840 q 310 960 403 960 q 50 790 147 960 l 32 799 q 368 1028 147 1028 q 578 955 496 1028 q 661 757 661 882 q 610 579 661 669 q 455 381 561 492 q 154 104 349 271 l 144 96 l 246 96 q 481 101 390 96 q 688 124 563 107 z "},"3":{"ha":718,"x_min":36,"x_max":661,"o":"m 36 46 l 57 124 q 168 33 113 61 q 294 6 224 6 q 467 74 397 6 q 536 256 536 143 q 468 424 536 356 q 289 508 403 493 l 236 514 l 231 529 l 279 544 q 430 640 371 574 q 489 792 489 706 q 439 917 489 871 q 308 964 389 964 q 169 927 232 964 q 68 838 106 890 l 50 846 q 367 1028 174 1028 q 550 971 476 1028 q 624 821 624 914 q 560 671 624 739 q 411 575 497 604 l 411 572 q 589 477 517 553 q 661 297 661 401 q 558 71 661 158 q 294 -17 454 -17 q 36 46 172 -17 z "},"4":{"ha":756,"x_min":3,"x_max":729,"o":"m 729 361 l 706 275 l 578 275 l 578 0 l 450 0 l 450 275 l 19 275 l 3 318 l 550 1018 l 578 1018 l 578 361 l 729 361 m 72 361 l 450 361 l 450 850 l 72 361 z "},"5":{"ha":689,"x_min":31,"x_max":642,"o":"m 642 311 q 538 76 642 168 q 282 -17 435 -17 q 31 46 150 -17 l 50 113 q 278 6 147 6 q 456 78 385 6 q 526 261 526 150 q 428 462 526 389 q 140 535 329 535 l 93 535 l 135 1011 l 624 1011 l 590 913 l 154 913 l 132 654 l 188 654 q 525 560 408 654 q 642 311 642 465 z "},"6":{"ha":781,"x_min":54,"x_max":750,"o":"m 57 386 q 201 790 54 610 q 576 1028 349 971 l 583 1007 q 300 781 397 946 q 201 382 201 613 q 259 103 201 203 q 418 3 317 3 q 556 78 506 3 q 607 285 607 154 q 555 491 607 417 q 411 565 503 565 q 269 513 335 565 l 256 529 q 465 614 344 614 q 668 530 586 614 q 750 313 750 446 q 653 75 750 167 q 410 -17 556 -17 q 154 92 251 -17 q 57 386 57 201 z "},"7":{"ha":671,"x_min":7,"x_max":664,"o":"m 32 1011 l 664 1011 l 664 1006 l 293 0 l 168 0 l 603 913 l 429 913 q 7 879 149 913 l 32 1011 z "},"8":{"ha":782,"x_min":54,"x_max":726,"o":"m 726 267 q 626 65 726 147 q 381 -17 526 -17 q 149 50 244 -17 q 54 226 54 117 q 286 501 54 424 q 99 761 99 597 q 183 951 99 874 q 401 1028 268 1028 q 601 965 518 1028 q 685 806 685 901 q 629 658 685 721 q 478 556 574 594 q 726 267 726 447 m 400 589 l 451 567 q 583 803 583 660 q 530 950 583 892 q 393 1008 476 1008 q 256 953 307 1008 q 204 810 204 897 q 252 683 204 735 q 400 589 300 631 m 621 217 q 568 348 621 293 q 410 446 515 403 l 342 475 l 308 490 q 157 232 157 397 q 226 67 157 131 q 392 3 294 3 q 554 65 488 3 q 621 217 621 128 z "},"9":{"ha":781,"x_min":31,"x_max":726,"o":"m 204 -17 l 197 4 q 481 231 383 65 q 579 629 579 399 q 522 908 579 808 q 363 1008 464 1008 q 224 933 275 1008 q 174 726 174 857 q 226 520 174 594 q 369 446 278 446 q 511 499 446 446 l 525 482 q 319 397 436 397 q 115 481 199 397 q 31 699 31 565 q 128 936 31 844 q 371 1028 225 1028 q 626 919 529 1028 q 724 625 724 810 q 579 220 726 401 q 204 -17 432 39 z "},"\r":{"ha":290,"x_min":0,"x_max":0,"o":""}," ":{"ha":290,"x_min":0,"x_max":0,"o":""},"!":{"ha":297,"x_min":50,"x_max":247,"o":"m 138 290 l 75 1011 l 222 1011 l 160 290 l 138 290 m 149 -29 l 50 68 l 149 167 l 247 68 l 149 -29 z "},"\"":{"ha":404,"x_min":46,"x_max":357,"o":"m 97 628 l 46 1028 l 163 1028 l 111 628 l 97 628 m 292 628 l 240 1028 l 357 1028 l 306 628 l 292 628 z "},"#":{"ha":739,"x_min":35,"x_max":703,"o":"m 703 668 l 554 668 l 510 343 l 649 343 l 649 318 l 506 318 l 463 0 l 435 0 l 478 318 l 207 318 l 164 0 l 136 0 l 179 318 l 35 318 l 35 343 l 183 343 l 228 668 l 89 668 l 89 693 l 232 693 l 275 1011 l 303 1011 l 260 693 l 531 693 l 574 1011 l 601 1011 l 558 693 l 703 693 l 703 668 m 482 343 l 526 668 l 256 668 l 211 343 l 482 343 z "},"$":{"ha":747,"x_min":42,"x_max":707,"o":"m 707 272 q 610 63 707 142 q 365 -17 513 -17 l 342 -17 l 331 -140 l 303 -140 l 314 -14 q 42 69 156 -3 l 65 153 q 174 60 106 99 q 317 10 242 21 l 357 457 l 317 475 q 186 543 250 506 q 60 761 60 625 q 149 952 60 876 q 381 1028 239 1028 q 410 1026 403 1028 l 421 1151 l 449 1151 l 438 1025 q 663 954 567 1011 l 643 882 q 435 999 547 975 l 397 593 l 446 571 q 583 497 538 528 q 707 272 707 419 m 371 606 l 407 1003 q 369 1006 374 1006 q 220 953 276 1006 q 164 822 164 901 q 215 699 168 742 q 371 606 263 656 m 604 208 q 549 344 600 296 q 386 444 497 392 l 383 446 l 344 7 q 371 6 350 6 q 538 63 472 6 q 604 208 604 121 z "},"%":{"ha":1060,"x_min":36,"x_max":1022,"o":"m 36 769 q 99 951 36 883 q 267 1019 163 1019 q 431 953 368 1019 q 494 778 494 886 q 431 596 494 664 q 265 528 368 528 q 99 594 163 528 q 36 769 36 660 m 208 0 l 819 1011 l 851 1011 l 240 0 l 208 0 m 408 771 q 369 940 408 878 q 264 1003 331 1003 q 160 942 197 1003 q 122 776 122 882 q 161 607 122 669 q 268 544 200 544 q 372 605 335 544 q 408 771 408 665 m 565 233 q 628 415 565 347 q 794 483 692 483 q 959 417 896 483 q 1022 242 1022 351 q 959 60 1022 128 q 792 -8 896 -8 q 628 58 692 -8 q 565 233 565 125 m 936 235 q 898 404 936 342 q 792 467 860 467 q 688 406 725 467 q 650 240 650 344 q 689 71 650 133 q 794 8 728 8 q 899 69 861 8 q 936 235 936 129 z "},"&":{"ha":961,"x_min":47,"x_max":938,"o":"m 821 228 l 938 129 l 938 -31 l 932 -31 l 750 124 q 392 -17 621 -17 q 144 57 242 -17 q 47 253 47 131 q 274 531 47 436 q 153 778 153 654 q 230 956 153 885 q 418 1028 307 1028 q 600 965 524 1028 q 676 808 676 901 q 613 663 676 718 q 458 581 550 608 l 443 594 q 585 799 585 658 q 536 950 585 892 q 411 1008 488 1008 q 289 954 333 1008 q 246 831 246 901 q 289 701 246 761 q 418 569 332 642 l 806 242 q 846 446 846 333 q 800 615 846 528 l 868 642 l 874 642 l 874 474 q 821 228 874 336 m 733 138 l 365 449 q 288 517 325 482 q 168 292 168 443 q 244 97 168 172 q 439 21 321 21 q 733 138 618 21 z "},"'":{"ha":210,"x_min":46,"x_max":163,"o":"m 97 628 l 46 1028 l 163 1028 l 111 628 l 97 628 z "},"(":{"ha":310,"x_min":50,"x_max":285,"o":"m 50 422 q 267 1086 50 811 l 285 1074 q 111 431 111 844 q 285 -218 111 11 l 267 -231 q 50 422 50 44 z "},")":{"ha":308,"x_min":25,"x_max":260,"o":"m 43 -231 l 25 -218 q 199 425 199 11 q 25 1074 199 844 l 43 1086 q 260 433 260 811 q 43 -231 260 44 z "},"*":{"ha":610,"x_min":51,"x_max":560,"o":"m 560 860 l 314 756 l 560 651 l 522 588 l 310 749 l 343 483 l 268 483 l 301 749 l 89 588 l 51 651 l 297 756 l 51 860 l 89 924 l 301 763 l 268 1028 l 343 1028 l 310 763 l 522 924 l 560 860 z "},"+":{"ha":706,"x_min":69,"x_max":636,"o":"m 636 519 l 636 492 l 368 492 l 368 214 l 338 214 l 338 492 l 69 492 l 69 519 l 338 519 l 338 797 l 368 797 l 368 519 l 636 519 z "},",":{"ha":269,"x_min":39,"x_max":231,"o":"m 64 -199 l 57 -189 q 139 -64 139 -139 q 39 78 139 15 l 111 168 q 199 103 167 146 q 231 8 231 61 q 185 -108 231 -53 q 64 -199 139 -162 z "},"-":{"ha":419,"x_min":61,"x_max":360,"o":"m 61 367 l 61 413 l 360 413 l 360 367 l 61 367 z "},".":{"ha":258,"x_min":31,"x_max":228,"o":"m 129 -29 l 31 68 l 129 167 l 228 68 l 129 -29 z "},"/":{"ha":503,"x_min":31,"x_max":471,"o":"m 31 -89 l 436 1086 l 471 1086 l 65 -89 l 31 -89 z "},":":{"ha":318,"x_min":61,"x_max":258,"o":"m 160 -29 l 61 68 l 160 167 l 258 68 l 160 -29 m 160 517 l 61 614 l 160 713 l 258 614 l 160 517 z "},";":{"ha":331,"x_min":67,"x_max":264,"o":"m 92 -199 l 85 -189 q 167 -64 167 -139 q 67 78 167 15 l 139 168 q 226 103 194 146 q 258 8 258 61 q 213 -108 258 -53 q 92 -199 167 -162 m 165 517 l 67 614 l 165 713 l 264 614 l 165 517 z "},"<":{"ha":706,"x_min":54,"x_max":621,"o":"m 621 756 l 94 506 l 621 256 l 607 231 l 54 493 l 54 518 l 607 781 l 621 756 z "},"=":{"ha":706,"x_min":69,"x_max":636,"o":"m 69 592 l 69 619 l 636 619 l 636 592 l 69 592 m 69 392 l 69 419 l 636 419 l 636 392 l 69 392 z "},">":{"ha":706,"x_min":85,"x_max":651,"o":"m 99 781 l 651 518 l 651 493 l 99 231 l 85 256 l 611 506 l 85 756 l 99 781 z "},"?":{"ha":669,"x_min":29,"x_max":622,"o":"m 231 381 q 253 452 231 418 q 335 544 276 486 q 408 622 382 592 q 475 790 475 701 q 422 921 475 871 q 281 971 368 971 q 46 854 149 971 l 29 865 q 347 1028 157 1028 q 544 965 467 1028 q 622 803 622 904 q 592 693 622 742 q 526 612 565 647 q 411 521 488 576 q 305 435 335 467 q 275 369 275 403 q 349 310 275 310 q 386 314 365 310 l 390 294 q 347 290 369 290 q 263 314 294 290 q 231 381 231 338 m 332 -29 l 233 68 l 332 167 l 429 68 l 332 -29 z "},"@":{"ha":1188,"x_min":40,"x_max":1171,"o":"m 904 732 l 835 399 q 824 307 824 336 q 901 218 824 218 q 1053 315 988 218 q 1119 547 1119 413 q 981 874 1122 739 q 640 1006 840 1008 q 256 841 417 1010 q 100 435 96 672 q 250 44 97 201 q 628 -110 403 -114 q 969 0 824 -110 l 983 -17 q 622 -132 828 -132 q 210 26 379 -136 q 44 428 40 189 q 123 730 42 590 q 344 950 204 869 q 646 1028 483 1031 q 1018 890 865 1031 q 1167 549 1171 750 q 1087 295 1167 399 q 881 192 1007 192 q 738 288 753 192 q 539 178 647 178 q 405 232 457 178 q 353 383 353 286 q 445 631 353 525 q 672 738 538 738 q 831 681 774 738 l 896 732 l 904 732 m 735 318 q 746 401 735 360 l 794 640 q 744 695 776 675 q 674 715 711 715 q 515 617 581 715 q 450 393 450 519 q 485 263 450 307 q 576 218 519 218 q 735 318 667 218 z "},"A":{"ha":856,"x_min":-6,"x_max":854,"o":"m 700 0 l 567 332 l 172 332 q 90 0 96 126 l -6 0 q 175 417 68 151 l 186 443 l 428 1033 l 433 1033 l 854 0 l 700 0 m 182 357 l 557 357 l 369 821 l 213 433 l 182 357 z "},"B":{"ha":888,"x_min":100,"x_max":846,"o":"m 846 278 q 735 74 846 149 q 426 0 625 0 l 100 0 l 100 1011 l 435 1011 q 694 949 604 1011 q 785 775 785 888 q 717 620 785 683 q 540 535 649 557 l 540 532 q 760 456 675 524 q 846 278 846 389 m 400 989 l 242 989 l 242 532 l 421 532 q 576 596 518 532 q 635 760 635 660 q 574 926 635 863 q 400 989 513 989 m 690 258 q 624 441 690 372 q 444 510 557 510 l 242 510 l 242 32 q 306 25 264 26 q 385 22 367 22 q 690 258 690 22 z "},"C":{"ha":975,"x_min":50,"x_max":960,"o":"m 53 497 q 198 881 50 732 q 567 1028 346 1031 q 781 983 681 1028 q 946 865 882 939 l 876 803 q 737 951 819 897 q 560 1006 654 1006 q 306 871 404 1006 q 208 532 208 736 q 318 176 208 308 q 600 44 428 44 q 943 235 821 44 l 960 225 q 538 -17 811 -17 q 190 126 326 -17 q 53 497 53 269 z "},"D":{"ha":1044,"x_min":100,"x_max":990,"o":"m 990 517 q 840 138 990 275 q 431 0 689 0 l 100 0 l 100 1011 l 454 1011 q 845 881 700 1011 q 990 517 990 750 m 835 510 q 727 857 835 725 q 442 989 619 989 l 242 989 l 242 35 q 454 22 296 22 q 735 149 636 22 q 835 510 835 276 z "},"E":{"ha":749,"x_min":100,"x_max":725,"o":"m 722 93 l 725 93 l 699 0 l 100 0 l 100 1011 l 682 1011 l 699 924 l 696 924 q 318 986 511 986 l 242 986 l 242 539 l 306 539 q 597 567 529 539 l 600 567 l 600 481 l 597 481 q 306 514 524 514 l 242 514 l 242 25 l 322 25 q 722 93 535 25 z "},"F":{"ha":690,"x_min":100,"x_max":676,"o":"m 296 986 l 242 986 l 242 522 l 292 522 q 583 550 515 522 l 586 550 l 586 464 l 583 464 q 292 497 510 497 l 242 497 l 242 0 l 100 0 l 100 1011 l 658 1011 l 676 924 l 674 924 q 296 986 489 986 z "},"G":{"ha":1046,"x_min":50,"x_max":988,"o":"m 610 458 l 988 458 l 988 110 q 593 -17 815 -17 q 200 122 347 -17 q 53 499 53 260 q 203 881 50 732 q 585 1028 357 1031 q 801 984 700 1028 q 965 865 901 940 l 896 803 q 756 952 839 899 q 572 1006 672 1006 q 308 870 407 1006 q 208 508 208 735 q 316 147 206 289 q 600 8 426 6 q 857 92 753 8 l 857 433 l 625 433 l 610 458 z "},"H":{"ha":978,"x_min":100,"x_max":878,"o":"m 736 1011 l 878 1011 l 878 0 l 736 0 l 736 514 l 242 514 l 242 0 l 100 0 l 100 1011 l 242 1011 l 242 539 l 736 539 l 736 1011 z "},"I":{"ha":342,"x_min":100,"x_max":242,"o":"m 100 0 l 100 1011 l 242 1011 l 242 0 l 100 0 z "},"J":{"ha":346,"x_min":-97,"x_max":251,"o":"m -87 -208 l -97 -192 q 38 -71 -6 -133 q 96 79 81 -6 q 110 306 110 161 l 110 1011 l 251 1011 l 251 317 q 211 57 251 157 q 103 -96 172 -39 q -87 -208 35 -151 z "},"K":{"ha":885,"x_min":100,"x_max":863,"o":"m 100 0 l 100 1011 l 242 1011 l 242 0 l 100 0 m 503 686 l 403 590 l 863 149 l 863 -31 l 854 -31 l 286 518 l 485 707 q 751 1011 686 897 l 863 1011 l 863 1008 q 503 686 697 871 z "},"L":{"ha":625,"x_min":100,"x_max":610,"o":"m 607 104 l 610 104 l 583 0 l 100 0 l 100 1011 l 242 1011 l 242 25 l 268 25 q 607 104 428 25 z "},"M":{"ha":1188,"x_min":50,"x_max":1128,"o":"m 1128 0 l 986 0 l 900 924 l 560 64 l 554 64 l 178 889 l 139 443 q 125 175 125 303 q 133 0 125 78 l 50 0 q 111 444 85 154 l 156 942 l 125 1007 l 125 1011 l 278 1011 l 613 268 l 906 1011 l 1033 1011 l 1128 0 z "},"N":{"ha":907,"x_min":50,"x_max":829,"o":"m 746 1011 l 829 1011 q 801 569 801 836 l 801 -17 l 789 -17 l 146 874 l 146 442 q 174 0 146 163 l 90 0 q 118 442 118 175 l 118 913 l 50 1007 l 50 1011 l 218 1011 l 774 228 l 774 569 q 746 1011 774 849 z "},"O":{"ha":1154,"x_min":49,"x_max":1106,"o":"m 51 496 q 203 880 49 729 q 586 1028 358 1031 q 956 887 810 1028 q 1103 515 1103 746 q 951 131 1106 282 q 568 -17 796 -19 q 198 124 344 -17 q 51 496 51 265 m 947 500 q 843 865 947 725 q 575 1006 739 1006 q 308 869 408 1006 q 207 511 207 733 q 312 146 207 286 q 583 6 417 6 q 847 142 747 6 q 947 500 947 278 z "},"P":{"ha":792,"x_min":100,"x_max":754,"o":"m 754 733 q 649 507 754 592 q 363 422 543 422 q 242 431 303 422 l 242 0 l 100 0 l 100 1011 l 363 1011 q 654 940 554 1011 q 754 733 754 868 m 604 717 q 538 917 604 844 q 342 989 471 989 l 242 989 l 242 454 q 339 444 282 444 q 536 515 468 444 q 604 717 604 586 z "},"Q":{"ha":1154,"x_min":49,"x_max":1283,"o":"m 1283 -158 l 1283 -164 q 1074 -208 1190 -208 q 803 -156 938 -208 q 600 -15 669 -103 q 568 -17 593 -17 q 198 124 344 -17 q 51 496 51 265 q 203 880 49 729 q 586 1028 358 1031 q 956 887 810 1028 q 1103 515 1103 746 q 1006 194 1103 326 q 750 11 910 61 q 1157 -171 932 -171 q 1283 -158 1219 -171 m 583 6 q 847 142 747 6 q 947 500 947 278 q 843 865 947 725 q 575 1006 739 1006 q 308 869 408 1006 q 207 511 207 733 q 312 146 207 286 q 583 6 417 6 z "},"R":{"ha":856,"x_min":100,"x_max":826,"o":"m 515 492 l 826 146 l 826 -31 l 818 -31 l 407 428 q 376 451 390 444 q 335 457 363 457 l 242 457 l 242 0 l 100 0 l 100 1011 l 349 1011 q 758 756 758 1011 q 515 492 758 576 m 615 746 q 545 925 615 861 q 343 989 475 989 l 242 989 l 242 488 q 369 479 285 479 q 547 556 478 479 q 615 746 615 633 z "},"S":{"ha":750,"x_min":46,"x_max":708,"o":"m 46 57 l 71 144 q 208 44 121 83 q 382 6 296 6 q 544 61 483 6 q 608 203 608 117 q 552 340 604 292 q 386 443 500 389 l 317 474 q 190 540 239 510 q 61 761 61 624 q 150 952 61 876 q 381 1028 239 1028 q 664 954 538 1028 l 642 876 q 365 1006 515 1006 q 218 956 274 1006 q 163 828 163 906 q 215 703 167 747 q 379 604 264 658 l 449 572 q 583 499 542 526 q 708 275 708 421 q 613 65 708 146 q 369 -17 517 -17 q 192 6 282 -17 q 46 57 103 28 z "},"T":{"ha":782,"x_min":13,"x_max":769,"o":"m 751 1011 l 769 913 l 767 913 q 494 986 607 986 l 463 986 l 463 0 l 321 0 l 321 986 l 288 986 q 15 913 175 986 l 13 913 l 32 1011 l 751 1011 z "},"U":{"ha":915,"x_min":92,"x_max":843,"o":"m 92 347 l 92 1011 l 233 1011 l 233 350 q 304 107 233 189 q 510 25 375 25 q 715 106 643 25 q 788 343 788 188 l 788 569 q 760 1011 788 849 l 843 1011 q 815 569 815 836 l 815 350 q 458 -17 815 -17 q 185 76 278 -17 q 92 347 92 169 z "},"V":{"ha":856,"x_min":1,"x_max":861,"o":"m 765 1011 l 861 1011 q 681 594 788 860 l 669 568 l 428 -22 l 422 -22 l 1 1011 l 156 1011 l 486 190 l 643 578 q 735 835 710 739 q 765 1011 761 928 z "},"W":{"ha":1296,"x_min":7,"x_max":1296,"o":"m 1210 1011 l 1296 1011 q 1131 568 1235 865 l 926 -22 l 921 -22 l 649 769 l 371 -22 l 365 -22 l 7 1011 l 158 1011 l 428 222 l 706 1011 l 711 1011 l 982 222 l 1104 576 q 1210 1011 1190 817 z "},"X":{"ha":861,"x_min":-12,"x_max":835,"o":"m 547 644 l 504 583 l 826 176 l 826 -31 l 819 -31 l 411 481 l 319 353 q 151 0 182 157 l 4 0 q 299 368 118 118 l 393 503 l -12 1011 l 165 1011 l 486 606 l 525 660 q 725 1011 696 906 l 835 1011 q 547 644 700 861 z "},"Y":{"ha":821,"x_min":13,"x_max":808,"o":"m 569 599 l 485 450 l 485 0 l 343 0 l 343 433 l 13 1011 l 175 1011 l 472 483 l 544 611 q 721 1011 683 853 l 808 1011 q 569 599 681 799 z "},"Z":{"ha":760,"x_min":7,"x_max":746,"o":"m 743 93 l 746 93 l 719 0 l 7 0 l 7 6 l 568 986 l 482 986 q 38 924 190 986 l 35 924 l 51 1011 l 740 1011 l 740 1006 l 178 25 l 288 25 q 743 93 579 25 z "},"[":{"ha":339,"x_min":94,"x_max":344,"o":"m 344 1086 l 344 1069 l 128 1069 q 156 428 156 732 q 128 -214 156 124 l 344 -214 l 344 -231 l 94 -231 l 94 1086 l 344 1086 z "},"\\":{"ha":503,"x_min":32,"x_max":472,"o":"m 438 -89 l 32 1086 l 67 1086 l 472 -89 l 438 -89 z "},"]":{"ha":339,"x_min":-6,"x_max":244,"o":"m -6 1086 l 244 1086 l 244 -231 l -6 -231 l -6 -214 l 211 -214 q 183 428 183 124 q 211 1069 183 732 l -6 1069 l -6 1086 z "},"^":{"ha":706,"x_min":54,"x_max":651,"o":"m 651 497 l 626 483 l 353 975 l 79 483 l 54 497 l 350 1028 l 356 1028 l 651 497 z "},"_":{"ha":522,"x_min":-3,"x_max":525,"o":"m -3 -119 l -3 -89 l 525 -89 l 525 -119 l -3 -119 z "},"`":{"ha":833,"x_min":207,"x_max":453,"o":"m 443 842 l 207 1090 l 353 1090 l 453 849 l 443 842 z "},"a":{"ha":711,"x_min":24,"x_max":700,"o":"m 700 33 l 700 25 q 585 -10 644 -10 q 475 93 483 -10 q 218 -14 360 -14 q 77 33 131 -14 q 24 157 24 81 q 107 312 24 251 q 338 388 190 372 l 421 396 l 474 400 l 474 479 q 432 651 474 594 q 296 708 390 708 q 88 625 188 708 l 75 640 q 202 727 139 700 q 347 754 265 754 q 606 492 606 754 l 606 136 q 617 51 606 72 q 674 31 628 31 q 700 33 678 31 m 474 119 l 474 379 q 233 316 311 361 q 154 179 154 271 q 192 74 154 111 q 290 36 229 36 q 474 119 388 36 z "},"b":{"ha":817,"x_min":81,"x_max":776,"o":"m 775 381 q 669 96 776 211 q 417 -17 563 -19 q 164 81 263 -17 l 86 -6 l 81 -6 l 81 1083 l 206 1125 l 211 1125 l 211 638 q 458 754 321 754 q 685 649 594 754 q 775 381 775 543 m 633 368 q 574 619 633 529 q 417 708 515 708 q 211 601 301 708 l 211 146 q 290 42 239 79 q 404 6 340 6 q 569 105 506 6 q 633 368 633 204 z "},"c":{"ha":710,"x_min":39,"x_max":693,"o":"m 42 361 q 147 644 39 531 q 406 754 254 757 q 685 628 588 754 l 628 578 q 413 733 532 733 q 249 639 313 733 q 185 392 185 544 q 255 135 185 228 q 438 43 325 43 q 567 78 503 43 q 676 176 632 113 l 693 167 q 383 -17 572 -17 q 138 89 235 -17 q 42 361 42 194 z "},"d":{"ha":818,"x_min":39,"x_max":767,"o":"m 767 26 l 643 -12 l 607 101 q 358 -17 497 -17 q 133 89 224 -17 q 42 356 42 194 q 146 641 39 525 q 400 754 253 757 q 604 678 519 754 l 604 1083 l 731 1125 l 736 1125 l 736 126 l 767 26 m 604 133 l 604 590 q 526 692 578 654 q 413 731 475 731 q 246 633 308 731 q 183 369 183 535 q 242 118 183 207 q 401 29 300 29 q 604 133 513 29 z "},"e":{"ha":751,"x_min":42,"x_max":718,"o":"m 715 421 l 182 421 l 182 396 q 255 137 182 231 q 444 43 328 43 q 580 78 514 43 q 690 176 646 113 l 707 167 q 388 -17 588 -17 q 139 87 236 -17 q 42 357 42 190 q 147 644 42 533 q 415 754 253 754 q 639 664 560 754 q 715 421 718 574 m 183 443 l 589 443 q 544 653 594 574 q 404 733 493 733 q 254 653 314 733 q 183 443 194 574 z "},"f":{"ha":488,"x_min":26,"x_max":590,"o":"m 265 875 l 265 738 l 499 738 l 479 707 l 265 707 l 265 0 l 133 0 l 133 707 l 26 707 l 26 738 l 133 738 l 133 868 q 197 1062 133 993 q 372 1131 260 1131 q 590 1067 485 1131 l 581 1050 q 432 1083 506 1083 q 265 875 265 1083 z "},"g":{"ha":735,"x_min":7,"x_max":724,"o":"m 713 -68 q 599 -257 713 -181 q 322 -333 485 -333 q 97 -278 186 -333 q 7 -133 7 -222 q 29 -40 7 -86 l 107 -18 l 113 -18 q 90 -122 90 -76 q 152 -260 90 -210 q 322 -311 214 -311 q 543 -259 460 -311 q 626 -121 626 -207 q 444 4 626 -7 l 226 18 q 64 132 64 26 q 163 260 64 201 l 190 276 q 50 497 50 346 q 135 681 50 608 q 347 754 221 754 q 538 699 461 754 q 724 799 608 799 l 711 688 q 631 703 661 703 q 556 685 582 703 q 640 499 640 615 q 555 315 640 388 q 343 243 469 243 q 214 267 276 243 l 183 246 q 143 183 143 218 q 240 129 143 135 l 469 115 q 713 -68 713 100 m 175 499 q 222 330 175 394 q 346 265 268 265 q 470 328 425 265 q 515 497 515 392 q 469 667 515 603 q 344 732 422 732 q 221 668 267 732 q 175 499 175 604 z "},"h":{"ha":794,"x_min":81,"x_max":718,"o":"m 718 492 l 718 0 l 588 0 l 588 494 q 558 639 588 575 q 425 704 529 704 q 211 606 314 704 l 211 0 l 81 0 l 81 1083 l 206 1125 l 211 1125 l 211 632 q 482 754 335 754 q 718 492 718 754 z "},"i":{"ha":299,"x_min":54,"x_max":243,"o":"m 149 869 l 54 964 l 149 1058 l 243 964 l 149 869 m 83 0 l 83 715 l 208 753 l 214 753 l 214 0 l 83 0 z "},"j":{"ha":306,"x_min":-85,"x_max":250,"o":"m 156 869 l 61 964 l 156 1058 l 250 964 l 156 869 m -79 -317 l -85 -300 q 44 -208 -3 -282 q 90 -24 90 -135 l 90 715 l 217 753 l 222 753 l 222 -14 q 135 -219 222 -142 q -79 -317 49 -297 z "},"k":{"ha":713,"x_min":81,"x_max":694,"o":"m 81 1083 l 206 1125 l 211 1125 l 211 0 l 81 0 l 81 1083 m 360 479 l 694 146 l 694 -31 l 688 -31 l 247 417 l 369 522 q 507 646 451 593 q 594 738 556 692 l 690 738 l 690 735 q 385 501 532 631 l 360 479 z "},"l":{"ha":299,"x_min":83,"x_max":215,"o":"m 83 0 l 83 1083 l 210 1125 l 215 1125 l 215 0 l 83 0 z "},"m":{"ha":1276,"x_min":79,"x_max":1200,"o":"m 1200 492 l 1200 0 l 1069 0 l 1069 494 q 1040 639 1069 575 q 907 704 1011 704 q 694 593 797 704 q 706 492 706 542 l 706 0 l 574 0 l 574 494 q 544 639 574 575 q 413 704 517 704 q 211 607 313 704 l 211 0 l 79 0 l 79 715 l 206 753 l 211 753 l 211 633 q 335 726 275 697 q 471 754 394 754 q 688 618 638 754 q 821 722 757 690 q 965 754 885 754 q 1200 492 1200 754 z "},"n":{"ha":793,"x_min":79,"x_max":718,"o":"m 718 492 l 718 0 l 586 0 l 586 494 q 557 639 586 575 q 424 704 528 704 q 211 606 313 704 l 211 0 l 79 0 l 79 715 l 206 753 l 211 753 l 211 633 q 481 754 339 754 q 718 492 718 754 z "},"o":{"ha":829,"x_min":42,"x_max":788,"o":"m 42 364 q 149 646 42 538 q 421 754 257 754 q 685 649 582 754 q 788 372 788 544 q 680 92 788 200 q 408 -17 572 -17 q 144 88 247 -17 q 42 364 42 192 m 646 364 q 581 632 646 529 q 413 735 515 735 q 246 635 308 735 q 183 372 183 535 q 249 105 183 207 q 417 3 314 3 q 583 101 521 3 q 646 364 646 200 z "},"p":{"ha":815,"x_min":79,"x_max":775,"o":"m 774 381 q 668 96 775 211 q 415 -17 561 -19 q 211 60 296 -17 l 211 -317 l 79 -317 l 79 715 l 206 753 l 211 753 l 211 638 q 457 754 322 754 q 683 649 593 754 q 774 381 774 543 m 632 368 q 574 619 632 531 q 417 708 515 708 q 211 603 304 708 l 211 147 q 288 44 238 82 q 403 6 339 6 q 569 104 507 6 q 632 368 632 203 z "},"q":{"ha":817,"x_min":39,"x_max":736,"o":"m 729 753 l 736 753 l 736 -317 l 604 -317 l 604 99 q 358 -17 493 -17 q 133 89 224 -17 q 42 356 42 194 q 146 641 39 525 q 400 754 253 757 q 644 669 546 754 l 729 753 m 604 133 l 604 590 q 526 692 578 654 q 413 731 475 731 q 246 633 308 731 q 183 369 183 535 q 242 118 183 207 q 401 29 300 29 q 604 133 513 29 z "},"r":{"ha":503,"x_min":79,"x_max":500,"o":"m 500 743 l 461 640 q 385 657 424 657 q 284 622 331 657 q 211 529 238 588 l 211 0 l 79 0 l 79 715 l 203 753 l 208 753 l 208 569 q 306 704 247 657 q 435 751 364 751 q 500 743 467 751 z "},"s":{"ha":607,"x_min":32,"x_max":578,"o":"m 32 50 l 53 121 q 308 3 154 3 q 440 42 390 3 q 489 144 489 82 q 448 235 485 204 q 317 306 411 265 l 260 329 q 151 381 208 350 q 46 551 46 444 q 117 697 46 640 q 304 754 189 754 q 544 696 443 754 l 525 631 q 292 735 421 735 q 177 699 219 735 q 135 608 135 664 q 160 539 135 568 q 210 497 183 513 q 308 453 238 482 l 364 429 q 469 379 424 406 q 578 203 578 315 q 501 44 578 106 q 294 -17 425 -17 q 151 1 224 -17 q 32 50 78 19 z "},"t":{"ha":494,"x_min":24,"x_max":506,"o":"m 494 65 l 506 49 q 311 -17 407 -17 q 131 174 131 -17 l 131 707 l 24 707 l 24 731 l 125 738 l 257 974 l 263 974 l 263 738 l 500 738 l 482 707 l 263 707 l 263 176 q 282 75 263 121 q 375 31 303 31 q 494 65 435 31 z "},"u":{"ha":790,"x_min":72,"x_max":739,"o":"m 708 126 l 739 26 l 615 -12 l 576 108 l 576 111 q 310 -17 458 -17 q 72 244 72 -17 l 72 715 l 199 753 l 204 753 l 204 242 q 233 96 204 161 q 367 32 263 32 q 474 62 418 32 q 576 143 531 92 l 576 715 l 703 753 l 708 753 l 708 126 z "},"v":{"ha":671,"x_min":4,"x_max":675,"o":"m 594 738 l 675 738 q 488 321 596 578 l 340 -21 l 331 -21 l 4 738 l 146 738 l 392 164 l 464 329 q 594 738 579 596 z "},"w":{"ha":1044,"x_min":6,"x_max":1043,"o":"m 961 738 l 1043 738 q 869 314 976 592 l 739 -21 l 729 -21 l 526 526 l 318 -21 l 308 -21 l 6 738 l 146 738 l 367 179 l 576 738 l 585 738 l 792 183 l 846 325 q 961 738 949 592 z "},"x":{"ha":629,"x_min":-3,"x_max":607,"o":"m 410 486 l 381 444 l 601 161 l 601 -31 l 594 -31 l 299 351 l 224 246 q 114 0 129 113 l -3 0 q 203 260 79 85 l 282 372 l -1 738 l 153 738 l 365 465 l 389 499 q 522 738 500 657 l 607 738 q 410 486 524 644 z "},"y":{"ha":668,"x_min":1,"x_max":667,"o":"m 586 738 l 667 738 q 528 417 617 635 l 489 325 l 306 -117 q 7 -325 219 -325 l 15 -246 q 83 -256 44 -256 q 197 -220 144 -256 q 279 -115 250 -185 l 325 -4 l 1 738 l 143 738 l 393 163 l 465 335 q 586 738 571 593 z "},"z":{"ha":603,"x_min":15,"x_max":593,"o":"m 589 60 l 593 60 l 576 0 l 15 0 l 15 6 l 429 717 l 361 717 q 28 681 169 717 l 24 681 l 36 738 l 579 738 l 579 732 l 168 21 l 240 21 q 589 60 435 21 z "},"{":{"ha":381,"x_min":24,"x_max":376,"o":"m 186 918 q 222 756 186 857 q 256 615 256 657 q 205 492 256 543 q 76 428 154 442 q 205 363 154 414 q 256 240 256 313 q 222 100 256 197 q 186 -62 186 -1 q 376 -214 186 -214 l 376 -231 q 155 -185 224 -231 q 86 -36 86 -139 q 126 135 86 25 q 161 272 161 225 q 124 375 161 333 q 24 419 86 417 l 24 436 q 124 481 86 439 q 161 583 161 522 q 126 721 161 631 q 86 892 86 831 q 155 1040 86 994 q 376 1086 224 1086 l 376 1069 q 186 918 186 1069 z "},"|":{"ha":224,"x_min":94,"x_max":128,"o":"m 94 -89 l 94 1086 l 128 1086 l 128 -89 l 94 -89 z "},"}":{"ha":381,"x_min":4,"x_max":357,"o":"m 219 272 q 254 135 219 225 q 296 -36 296 33 q 227 -185 296 -140 q 4 -231 158 -231 l 4 -214 q 196 -62 196 -214 q 160 100 196 -1 q 126 240 126 197 q 177 363 126 313 q 306 428 228 414 q 177 492 228 442 q 126 615 126 543 q 160 756 126 657 q 196 918 196 857 q 4 1069 196 1069 l 4 1086 q 227 1041 158 1086 q 296 892 296 996 q 254 721 296 822 q 219 583 219 631 q 257 481 219 522 q 357 436 294 439 l 357 419 q 257 375 294 417 q 219 272 219 333 z "},"~":{"ha":728,"x_min":72,"x_max":663,"o":"m 89 429 l 72 433 q 217 597 97 597 q 288 585 253 597 q 393 539 322 572 q 539 488 494 488 q 646 599 619 488 l 663 594 q 519 431 640 431 q 449 443 483 431 q 343 489 414 456 q 197 540 242 540 q 130 514 156 540 q 89 429 104 488 z "}," ":{"ha":290,"x_min":0,"x_max":0,"o":""},"¡":{"ha":282,"x_min":43,"x_max":239,"o":"m 142 749 l 239 651 l 142 553 l 43 651 l 142 749 m 131 429 l 151 429 l 215 -292 l 68 -292 l 131 429 z "},"¢":{"ha":743,"x_min":51,"x_max":703,"o":"m 686 176 l 703 167 q 394 -17 583 -17 l 379 -17 l 368 -139 l 340 -139 l 351 -14 q 136 104 219 1 q 53 361 53 207 q 158 644 51 532 q 415 754 264 757 l 422 754 l 432 867 l 460 867 l 450 753 q 696 628 606 740 l 639 578 q 447 732 553 718 l 447 729 l 385 51 q 449 43 417 43 q 578 78 514 43 q 686 176 643 113 m 358 60 l 419 729 l 419 733 q 254 637 318 731 q 190 392 190 543 q 235 176 190 263 q 358 60 279 90 z "},"£":{"ha":789,"x_min":47,"x_max":753,"o":"m 739 242 l 753 242 l 746 189 q 735 128 740 153 q 715 75 729 104 q 682 28 701 46 q 628 -3 663 10 q 549 -17 594 -15 q 317 31 476 -17 q 189 60 221 60 q 65 -3 128 60 l 47 29 q 133 97 106 71 q 215 292 215 171 q 171 494 215 368 l 56 494 l 56 519 l 163 519 q 113 747 113 669 q 190 950 113 872 q 392 1028 268 1028 q 690 847 581 1028 l 672 838 q 439 964 575 964 q 301 910 354 964 q 249 758 249 856 q 293 549 249 686 l 301 519 l 579 519 l 579 494 l 308 494 q 333 358 333 408 q 214 143 333 238 q 400 110 285 142 q 567 81 519 81 q 668 108 635 81 q 721 192 701 136 l 739 242 z "},"¤":{"ha":681,"x_min":60,"x_max":621,"o":"m 522 299 l 621 200 l 601 181 l 503 279 q 340 218 433 218 q 178 279 247 218 l 79 181 l 60 200 l 158 299 q 96 461 96 369 q 158 624 96 553 l 60 722 l 79 742 l 178 643 q 340 704 247 704 q 503 643 433 704 l 601 742 l 621 722 l 522 624 q 585 461 585 553 q 522 299 585 369 m 491 310 q 523 342 491 310 q 554 461 554 374 q 491 613 554 549 q 340 676 428 676 q 190 613 253 676 q 126 461 126 549 q 190 310 126 374 q 340 246 253 246 q 491 310 428 246 z "},"¥":{"ha":857,"x_min":31,"x_max":826,"o":"m 588 599 l 517 475 l 729 475 l 729 450 l 503 450 l 503 314 l 729 314 l 729 289 l 503 289 l 503 0 l 361 0 l 361 289 l 135 289 l 135 314 l 361 314 l 361 433 l 351 450 l 135 450 l 135 475 l 338 475 l 31 1011 l 193 1011 l 490 483 l 563 611 q 739 1011 701 853 l 826 1011 q 588 599 699 799 z "},"¦":{"ha":224,"x_min":94,"x_max":128,"o":"m 94 568 l 94 1086 l 128 1086 l 128 568 l 94 568 m 94 -89 l 94 429 l 128 429 l 128 -89 l 94 -89 z "},"§":{"ha":715,"x_min":35,"x_max":679,"o":"m 676 217 q 576 -40 679 79 q 342 -156 472 -160 q 225 -138 289 -156 q 121 -94 161 -121 l 136 -49 q 349 -136 233 -136 q 469 -90 424 -136 q 514 29 514 -43 q 493 110 514 74 q 442 172 474 143 q 346 247 411 200 l 304 278 l 256 314 q 153 399 190 363 q 38 656 38 511 q 138 913 35 793 q 368 1028 242 1032 q 585 967 479 1028 l 569 921 q 361 1008 467 1008 q 245 961 290 1008 q 200 843 200 914 q 219 763 200 799 q 271 701 239 729 q 368 625 303 672 l 410 594 l 458 558 q 614 410 553 489 q 676 217 676 331 m 626 175 q 574 351 626 276 q 421 499 522 426 l 369 535 q 264 615 325 567 q 160 814 160 707 q 207 947 160 883 q 88 697 88 846 q 140 521 88 596 q 293 374 192 446 l 344 338 q 449 257 397 300 q 554 58 554 167 q 507 -75 554 -11 q 626 175 626 26 z "},"¨":{"ha":833,"x_min":201,"x_max":632,"o":"m 285 860 l 201 944 l 285 1026 l 368 944 l 285 860 m 550 860 l 465 944 l 550 1026 l 632 944 l 550 860 z "},"©":{"ha":1142,"x_min":46,"x_max":1094,"o":"m 50 506 q 202 875 46 718 q 571 1028 358 1032 q 831 959 710 1031 q 1024 766 953 888 q 1092 506 1094 644 q 1024 245 1094 367 q 831 52 953 124 q 571 -17 710 -19 q 202 136 358 -21 q 50 506 46 293 m 1061 506 q 918 858 1065 708 q 571 1003 771 1007 q 224 858 371 1007 q 81 506 76 708 q 224 153 76 303 q 571 8 371 4 q 918 153 771 4 q 1061 506 1065 303 m 265 501 q 352 732 265 642 q 571 822 439 822 q 807 704 724 822 l 760 679 q 564 803 682 803 q 400 722 465 803 q 335 513 335 642 q 402 304 335 383 q 569 225 469 225 q 696 258 633 225 q 796 346 758 290 l 813 336 q 553 189 713 189 q 347 276 429 189 q 265 501 265 364 z "},"ª":{"ha":508,"x_min":43,"x_max":475,"o":"m 475 571 l 475 565 q 401 542 435 542 q 329 607 336 542 q 168 539 260 539 q 77 569 111 539 q 43 649 43 600 q 96 747 43 708 q 244 796 149 786 l 328 804 l 328 853 q 302 960 328 925 q 217 994 276 994 q 79 942 147 994 l 68 954 q 251 1028 156 1028 q 417 860 417 1028 l 417 633 q 424 581 417 593 q 457 569 431 569 q 475 571 471 569 m 328 628 l 328 788 q 181 749 229 778 q 132 664 132 721 q 155 599 132 622 q 215 575 178 575 q 328 628 278 575 z "},"«":{"ha":651,"x_min":40,"x_max":600,"o":"m 340 707 l 161 369 l 340 32 l 324 32 l 40 369 l 324 707 l 340 707 m 600 707 l 421 369 l 600 32 l 583 32 l 300 369 l 583 707 l 600 707 z "},"¬":{"ha":706,"x_min":61,"x_max":628,"o":"m 61 519 l 628 519 l 628 214 l 597 214 l 597 492 l 61 492 l 61 519 z "},"­":{"ha":419,"x_min":61,"x_max":360,"o":"m 61 367 l 61 413 l 360 413 l 360 367 l 61 367 z "},"®":{"ha":865,"x_min":53,"x_max":813,"o":"m 810 651 q 699 387 813 500 q 433 276 585 274 q 167 387 281 274 q 56 651 53 500 q 167 916 53 801 q 433 1028 281 1031 q 699 916 585 1031 q 810 651 813 801 m 779 654 q 677 900 782 794 q 433 1003 572 1006 q 188 900 293 1006 q 86 654 83 794 q 188 408 83 514 q 433 304 293 301 q 677 408 572 301 q 779 654 782 514 m 654 429 l 654 421 q 629 418 640 418 q 572 433 594 418 q 528 481 550 449 l 444 610 q 411 624 438 624 l 356 624 l 356 419 l 315 419 l 315 879 l 403 879 q 582 760 582 879 q 475 635 582 678 l 568 497 q 654 429 615 429 m 503 673 q 520 689 503 673 q 538 756 538 706 q 503 833 538 806 q 403 861 468 861 l 356 861 l 356 644 q 418 640 378 640 q 503 673 469 640 z "},"¯":{"ha":833,"x_min":226,"x_max":608,"o":"m 226 908 l 226 953 l 608 953 l 608 908 l 226 908 z "},"°":{"ha":463,"x_min":38,"x_max":426,"o":"m 94 715 q 66 743 94 715 q 38 851 38 771 q 94 988 38 932 q 232 1044 151 1044 q 369 988 313 1044 q 426 851 426 932 q 369 715 426 771 q 232 658 313 658 q 94 715 151 658 m 396 851 q 347 969 396 921 q 232 1019 299 1019 q 115 969 164 1019 q 68 851 68 922 q 115 732 68 781 q 232 683 164 683 q 347 732 299 683 q 396 851 396 783 z "},"±":{"ha":706,"x_min":69,"x_max":636,"o":"m 368 519 l 636 519 l 636 492 l 368 492 l 368 214 l 338 214 l 338 492 l 69 492 l 69 519 l 338 519 l 338 797 l 368 797 l 368 519 m 69 0 l 69 28 l 636 28 l 636 0 l 69 0 z "},"²":{"ha":451,"x_min":28,"x_max":415,"o":"m 415 493 l 393 415 l 28 415 l 28 419 l 75 469 q 252 684 197 596 q 307 846 307 772 q 275 939 307 904 q 192 974 243 974 q 46 878 103 974 l 32 883 q 228 1018 96 1018 q 352 975 304 1018 q 400 858 400 932 q 335 703 397 781 q 106 479 274 626 l 104 478 l 157 478 q 415 493 300 478 z "},"³":{"ha":444,"x_min":32,"x_max":401,"o":"m 32 444 l 46 496 q 181 424 110 424 q 282 464 243 424 q 321 565 321 504 q 282 665 321 625 q 181 713 243 706 l 150 715 l 147 728 l 174 738 q 260 793 228 756 q 293 879 293 831 q 265 950 293 924 q 192 976 238 976 q 56 904 111 976 l 42 910 q 228 1018 113 1018 q 338 984 294 1018 q 381 896 381 950 q 345 813 381 851 q 257 756 310 774 l 257 753 q 360 696 319 740 q 401 589 401 651 q 340 460 401 513 q 186 407 279 407 q 32 444 117 407 z "},"´":{"ha":833,"x_min":392,"x_max":638,"o":"m 401 842 l 392 849 l 492 1090 l 638 1090 l 401 842 z "},"µ":{"ha":821,"x_min":92,"x_max":758,"o":"m 728 126 l 758 26 l 633 -12 l 596 108 l 596 111 q 328 -17 475 -17 q 175 39 231 -17 q 224 -218 224 -132 l 224 -294 l 92 -294 l 92 715 l 218 753 l 224 753 l 224 242 q 253 96 224 161 q 386 32 282 32 q 494 62 438 32 q 596 143 550 92 l 596 715 l 722 753 l 728 753 l 728 126 z "},"¶":{"ha":643,"x_min":35,"x_max":535,"o":"m 329 -89 l 329 522 q 115 607 199 528 q 35 813 35 686 q 115 1013 35 940 q 331 1086 196 1086 l 363 1086 l 363 -89 l 329 -89 m 501 1086 l 535 1086 l 535 -49 q 481 -228 535 -158 q 329 -317 428 -299 l 329 -293 q 457 -212 413 -275 q 501 -49 501 -149 l 501 1086 z "},"·":{"ha":290,"x_min":46,"x_max":243,"o":"m 144 313 l 46 410 l 144 508 l 243 410 l 144 313 z "},"¸":{"ha":833,"x_min":308,"x_max":579,"o":"m 579 -189 q 535 -275 579 -242 q 422 -308 492 -308 q 308 -283 351 -308 l 313 -271 q 400 -283 347 -283 q 474 -263 446 -283 q 501 -212 501 -243 q 473 -164 501 -183 q 396 -144 444 -144 l 360 -144 l 425 0 l 453 0 l 421 -71 q 537 -109 494 -76 q 579 -189 579 -142 z "},"¹":{"ha":268,"x_min":19,"x_max":194,"o":"m 190 1021 l 194 1021 l 194 417 l 111 417 l 111 911 q 19 875 74 893 l 19 889 q 108 941 58 903 q 190 1021 157 979 z "},"º":{"ha":557,"x_min":40,"x_max":517,"o":"m 40 781 q 109 958 40 889 q 282 1028 178 1028 q 451 961 386 1028 q 517 786 517 894 q 448 608 517 678 q 275 539 379 539 q 105 605 169 539 q 40 781 40 671 m 422 781 q 382 947 422 883 q 278 1011 342 1011 q 174 949 213 1011 q 136 786 136 888 q 175 619 136 682 q 279 556 214 556 q 383 617 344 556 q 422 781 422 679 z "},"»":{"ha":651,"x_min":51,"x_max":611,"o":"m 68 707 l 351 369 l 68 32 l 51 32 l 231 369 l 51 707 l 68 707 m 328 707 l 611 369 l 328 32 l 311 32 l 490 369 l 311 707 l 328 707 z "},"¼":{"ha":982,"x_min":44,"x_max":950,"o":"m 215 1021 l 219 1021 l 219 417 l 136 417 l 136 911 q 44 875 99 893 l 44 889 q 133 941 83 903 q 215 1021 182 979 m 103 0 l 714 1011 l 746 1011 l 135 0 l 103 0 m 950 215 l 935 160 l 861 160 l 861 0 l 778 0 l 778 160 l 529 160 l 519 189 l 842 601 l 861 601 l 861 215 l 950 215 m 568 215 l 778 215 l 778 486 l 568 215 z "},"½":{"ha":947,"x_min":39,"x_max":908,"o":"m 210 1021 l 214 1021 l 214 417 l 131 417 l 131 911 q 39 875 93 893 l 39 889 q 127 941 78 903 q 210 1021 176 979 m 96 0 l 707 1011 l 739 1011 l 128 0 l 96 0 m 908 78 l 886 0 l 521 0 l 521 4 l 568 54 q 745 269 690 181 q 800 431 800 357 q 768 524 800 489 q 685 558 736 558 q 539 463 594 558 l 525 468 q 721 603 589 603 q 845 560 797 603 q 893 443 893 517 q 828 288 890 365 q 599 64 767 211 l 597 63 l 650 63 q 908 78 793 63 z "},"¾":{"ha":1085,"x_min":47,"x_max":1053,"o":"m 47 444 l 61 496 q 196 424 125 424 q 297 464 258 424 q 336 565 336 504 q 297 665 336 625 q 196 713 258 706 l 165 715 l 163 728 l 189 738 q 276 793 243 756 q 308 879 308 831 q 281 950 308 924 q 207 976 253 976 q 71 904 126 976 l 57 910 q 243 1018 128 1018 q 353 984 310 1018 q 396 896 396 950 q 360 813 396 851 q 272 756 325 774 l 272 753 q 376 696 335 740 q 417 589 417 651 q 356 460 417 513 q 201 407 294 407 q 47 444 133 407 m 206 0 l 817 1011 l 849 1011 l 238 0 l 206 0 m 1053 215 l 1038 160 l 964 160 l 964 0 l 881 0 l 881 160 l 632 160 l 622 189 l 944 601 l 964 601 l 964 215 l 1053 215 m 671 215 l 881 215 l 881 486 l 671 215 z "},"¿":{"ha":658,"x_min":42,"x_max":635,"o":"m 332 749 l 431 651 l 332 553 l 233 651 l 332 749 m 433 339 q 410 265 433 300 q 328 175 386 231 q 254 96 278 125 q 188 -71 188 19 q 241 -201 188 -151 q 382 -251 294 -251 q 618 -135 517 -251 l 635 -146 q 510 -258 585 -208 q 317 -308 435 -308 q 118 -246 194 -308 q 42 -83 42 -186 q 71 26 42 -24 q 138 108 99 72 q 253 199 176 143 q 359 285 329 253 q 389 350 389 317 q 315 410 389 410 q 278 406 299 410 l 274 425 q 317 429 294 429 q 401 406 368 429 q 433 339 433 382 z "},"À":{"ha":856,"x_min":-6,"x_max":854,"o":"m 700 0 l 567 332 l 172 332 q 90 0 96 126 l -6 0 q 175 417 68 151 l 186 443 l 428 1033 l 433 1033 l 854 0 l 700 0 m 182 357 l 557 357 l 369 821 l 213 433 l 182 357 m 451 1107 l 200 1343 l 364 1343 l 461 1114 l 451 1107 z "},"Á":{"ha":856,"x_min":-6,"x_max":854,"o":"m 700 0 l 567 332 l 172 332 q 90 0 96 126 l -6 0 q 175 417 68 151 l 186 443 l 428 1033 l 433 1033 l 854 0 l 700 0 m 182 357 l 557 357 l 369 821 l 213 433 l 182 357 m 408 1107 l 399 1114 l 496 1343 l 660 1343 l 408 1107 z "},"Â":{"ha":856,"x_min":-6,"x_max":854,"o":"m 700 0 l 567 332 l 172 332 q 90 0 96 126 l -6 0 q 175 417 68 151 l 186 443 l 428 1033 l 433 1033 l 854 0 l 700 0 m 182 357 l 557 357 l 369 821 l 213 433 l 182 357 m 664 1114 l 656 1107 l 431 1235 l 206 1107 l 197 1114 l 426 1343 l 435 1343 l 664 1114 z "},"Ã":{"ha":856,"x_min":-6,"x_max":854,"o":"m 700 0 l 567 332 l 172 332 q 90 0 96 126 l -6 0 q 175 417 68 151 l 186 443 l 428 1033 l 433 1033 l 854 0 l 700 0 m 182 357 l 557 357 l 369 821 l 213 433 l 182 357 m 201 1124 l 189 1128 q 310 1282 208 1282 q 458 1238 354 1282 q 576 1201 550 1201 q 660 1282 638 1201 l 674 1279 q 551 1124 651 1124 q 406 1167 508 1124 q 286 1204 325 1204 q 201 1124 224 1204 z "},"Ä":{"ha":856,"x_min":-6,"x_max":854,"o":"m 700 0 l 567 332 l 172 332 q 90 0 96 126 l -6 0 q 175 417 68 151 l 186 443 l 428 1033 l 433 1033 l 854 0 l 700 0 m 182 357 l 557 357 l 369 821 l 213 433 l 182 357 m 294 1126 l 210 1210 l 294 1293 l 376 1210 l 294 1126 m 567 1126 l 482 1210 l 567 1293 l 649 1210 l 567 1126 z "},"Å":{"ha":856,"x_min":-6,"x_max":854,"o":"m 700 0 l 567 332 l 172 332 q 90 0 96 126 l -6 0 q 175 417 68 151 l 186 443 l 428 1033 l 433 1033 l 854 0 l 700 0 m 182 357 l 557 357 l 369 821 l 213 433 l 182 357 m 323 1146 q 301 1165 323 1146 q 279 1246 279 1185 q 323 1346 279 1307 q 431 1385 367 1385 q 538 1346 494 1385 q 582 1246 582 1307 q 538 1146 582 1185 q 431 1107 494 1107 q 323 1146 367 1107 m 496 1158 q 508 1174 496 1158 q 519 1246 519 1190 q 496 1334 519 1301 q 431 1367 472 1367 q 365 1334 389 1367 q 342 1246 342 1301 q 365 1158 342 1190 q 431 1125 389 1125 q 496 1158 472 1125 z "},"Æ":{"ha":1225,"x_min":-18,"x_max":1201,"o":"m 1199 93 l 1201 93 l 1175 0 l 576 0 l 576 364 l 225 364 q 81 0 111 151 l -18 0 l 560 1011 l 1158 1011 l 1175 924 l 1172 924 q 794 986 986 986 l 718 986 l 718 539 l 782 539 q 1074 567 1006 539 l 1076 567 l 1076 481 l 1074 481 q 782 514 1000 514 l 718 514 l 718 25 l 799 25 q 1199 93 1011 25 m 239 389 l 576 389 l 576 983 l 264 435 q 253 417 263 432 q 239 389 244 401 z "},"Ç":{"ha":975,"x_min":50,"x_max":960,"o":"m 564 -17 l 538 -71 q 654 -109 611 -76 q 697 -189 697 -142 q 653 -275 697 -242 q 540 -308 610 -308 q 425 -283 469 -308 l 429 -271 q 517 -283 464 -283 q 590 -263 563 -283 q 618 -212 618 -243 q 590 -163 618 -182 q 513 -144 561 -144 l 478 -144 l 536 -17 q 189 126 328 -19 q 53 497 50 271 q 198 881 50 732 q 567 1028 346 1031 q 781 983 681 1028 q 946 865 882 939 l 876 803 q 737 951 819 897 q 560 1006 654 1006 q 306 871 404 1006 q 208 532 208 736 q 318 176 208 308 q 600 44 428 44 q 943 235 821 44 l 960 225 q 564 -17 817 -7 z "},"È":{"ha":749,"x_min":100,"x_max":725,"o":"m 722 93 l 725 93 l 699 0 l 100 0 l 100 1011 l 682 1011 l 699 924 l 696 924 q 318 986 511 986 l 242 986 l 242 539 l 306 539 q 597 567 529 539 l 600 567 l 600 481 l 597 481 q 306 514 524 514 l 242 514 l 242 25 l 322 25 q 722 93 535 25 m 414 1107 l 163 1343 l 326 1343 l 424 1114 l 414 1107 z "},"É":{"ha":749,"x_min":100,"x_max":725,"o":"m 722 93 l 725 93 l 699 0 l 100 0 l 100 1011 l 682 1011 l 699 924 l 696 924 q 318 986 511 986 l 242 986 l 242 539 l 306 539 q 597 567 529 539 l 600 567 l 600 481 l 597 481 q 306 514 524 514 l 242 514 l 242 25 l 322 25 q 722 93 535 25 m 371 1107 l 361 1114 l 458 1343 l 622 1343 l 371 1107 z "},"Ê":{"ha":749,"x_min":100,"x_max":725,"o":"m 722 93 l 725 93 l 699 0 l 100 0 l 100 1011 l 682 1011 l 699 924 l 696 924 q 318 986 511 986 l 242 986 l 242 539 l 306 539 q 597 567 529 539 l 600 567 l 600 481 l 597 481 q 306 514 524 514 l 242 514 l 242 25 l 322 25 q 722 93 535 25 m 626 1114 l 618 1107 l 393 1235 l 168 1107 l 160 1114 l 389 1343 l 397 1343 l 626 1114 z "},"Ë":{"ha":749,"x_min":100,"x_max":725,"o":"m 722 93 l 725 93 l 699 0 l 100 0 l 100 1011 l 682 1011 l 699 924 l 696 924 q 318 986 511 986 l 242 986 l 242 539 l 306 539 q 597 567 529 539 l 600 567 l 600 481 l 597 481 q 306 514 524 514 l 242 514 l 242 25 l 322 25 q 722 93 535 25 m 257 1126 l 172 1210 l 257 1293 l 339 1210 l 257 1126 m 529 1126 l 444 1210 l 529 1293 l 611 1210 l 529 1126 z "},"Ì":{"ha":342,"x_min":-58,"x_max":242,"o":"m 100 0 l 100 1011 l 242 1011 l 242 0 l 100 0 m 193 1107 l -58 1343 l 106 1343 l 203 1114 l 193 1107 z "},"Í":{"ha":342,"x_min":100,"x_max":401,"o":"m 100 0 l 100 1011 l 242 1011 l 242 0 l 100 0 m 150 1107 l 140 1114 l 238 1343 l 401 1343 l 150 1107 z "},"Î":{"ha":342,"x_min":-62,"x_max":404,"o":"m 100 0 l 100 1011 l 242 1011 l 242 0 l 100 0 m 404 1114 l 396 1107 l 171 1235 l -54 1107 l -62 1114 l 167 1343 l 175 1343 l 404 1114 z "},"Ï":{"ha":342,"x_min":-49,"x_max":390,"o":"m 100 0 l 100 1011 l 242 1011 l 242 0 l 100 0 m 36 1126 l -49 1210 l 36 1293 l 118 1210 l 36 1126 m 308 1126 l 224 1210 l 308 1293 l 390 1210 l 308 1126 z "},"Ð":{"ha":1051,"x_min":21,"x_max":997,"o":"m 997 517 q 847 137 997 274 q 438 0 697 0 l 107 0 l 107 515 l 21 515 l 21 535 l 107 535 l 107 1011 l 461 1011 q 852 881 707 1011 q 997 517 997 750 m 842 510 q 734 857 842 725 q 449 989 626 989 l 249 989 l 249 535 l 514 535 l 514 515 l 249 515 l 249 35 q 461 22 306 22 q 742 149 643 22 q 842 510 842 276 z "},"Ñ":{"ha":907,"x_min":50,"x_max":829,"o":"m 746 1011 l 829 1011 q 801 569 801 836 l 801 -17 l 789 -17 l 146 874 l 146 442 q 174 0 146 163 l 90 0 q 118 442 118 175 l 118 913 l 50 1007 l 50 1011 l 218 1011 l 774 228 l 774 569 q 746 1011 774 849 m 219 1124 l 207 1128 q 328 1282 226 1282 q 476 1238 372 1282 q 594 1201 568 1201 q 678 1282 656 1201 l 692 1279 q 569 1124 669 1124 q 424 1167 526 1124 q 304 1204 343 1204 q 219 1124 242 1204 z "},"Ò":{"ha":1154,"x_min":49,"x_max":1106,"o":"m 51 496 q 203 880 49 729 q 586 1028 358 1031 q 956 887 810 1028 q 1103 515 1103 746 q 951 131 1106 282 q 568 -17 796 -19 q 198 124 344 -17 q 51 496 51 265 m 947 500 q 843 865 947 725 q 575 1006 739 1006 q 308 869 408 1006 q 207 511 207 733 q 312 146 207 286 q 583 6 417 6 q 847 142 747 6 q 947 500 947 278 m 599 1107 l 347 1343 l 511 1343 l 608 1114 l 599 1107 z "},"Ó":{"ha":1154,"x_min":49,"x_max":1106,"o":"m 51 496 q 203 880 49 729 q 586 1028 358 1031 q 956 887 810 1028 q 1103 515 1103 746 q 951 131 1106 282 q 568 -17 796 -19 q 198 124 344 -17 q 51 496 51 265 m 947 500 q 843 865 947 725 q 575 1006 739 1006 q 308 869 408 1006 q 207 511 207 733 q 312 146 207 286 q 583 6 417 6 q 847 142 747 6 q 947 500 947 278 m 556 1107 l 546 1114 l 643 1343 l 807 1343 l 556 1107 z "},"Ô":{"ha":1154,"x_min":49,"x_max":1106,"o":"m 51 496 q 203 880 49 729 q 586 1028 358 1031 q 956 887 810 1028 q 1103 515 1103 746 q 951 131 1106 282 q 568 -17 796 -19 q 198 124 344 -17 q 51 496 51 265 m 947 500 q 843 865 947 725 q 575 1006 739 1006 q 308 869 408 1006 q 207 511 207 733 q 312 146 207 286 q 583 6 417 6 q 847 142 747 6 q 947 500 947 278 m 811 1114 l 803 1107 l 578 1235 l 353 1107 l 344 1114 l 574 1343 l 582 1343 l 811 1114 z "},"Õ":{"ha":1154,"x_min":49,"x_max":1106,"o":"m 51 496 q 203 880 49 729 q 586 1028 358 1031 q 956 887 810 1028 q 1103 515 1103 746 q 951 131 1106 282 q 568 -17 796 -19 q 198 124 344 -17 q 51 496 51 265 m 947 500 q 843 865 947 725 q 575 1006 739 1006 q 308 869 408 1006 q 207 511 207 733 q 312 146 207 286 q 583 6 417 6 q 847 142 747 6 q 947 500 947 278 m 349 1124 l 336 1128 q 457 1282 356 1282 q 606 1238 501 1282 q 724 1201 697 1201 q 807 1282 785 1201 l 821 1279 q 699 1124 799 1124 q 553 1167 656 1124 q 433 1204 472 1204 q 349 1124 371 1204 z "},"Ö":{"ha":1154,"x_min":49,"x_max":1106,"o":"m 51 496 q 203 880 49 729 q 586 1028 358 1031 q 956 887 810 1028 q 1103 515 1103 746 q 951 131 1106 282 q 568 -17 796 -19 q 198 124 344 -17 q 51 496 51 265 m 947 500 q 843 865 947 725 q 575 1006 739 1006 q 308 869 408 1006 q 207 511 207 733 q 312 146 207 286 q 583 6 417 6 q 847 142 747 6 q 947 500 947 278 m 442 1126 l 357 1210 l 442 1293 l 524 1210 l 442 1126 m 714 1126 l 629 1210 l 714 1293 l 796 1210 l 714 1126 z "},"×":{"ha":706,"x_min":96,"x_max":610,"o":"m 610 740 l 374 504 l 608 269 l 588 249 l 353 483 l 118 249 l 97 269 l 332 504 l 96 740 l 117 761 l 353 525 l 589 761 l 610 740 z "},"Ø":{"ha":1154,"x_min":49,"x_max":1106,"o":"m 1103 515 q 951 131 1106 282 q 568 -17 796 -19 q 267 68 393 -17 l 161 -71 l 139 -56 l 244 85 q 51 496 51 228 q 203 880 49 729 q 586 1028 358 1031 q 889 942 757 1028 l 994 1082 l 1017 1067 l 911 926 q 1103 515 1103 785 m 301 160 l 838 874 q 575 1006 733 1006 q 308 869 408 1006 q 207 511 207 733 q 301 160 207 297 m 947 500 q 854 850 947 711 l 318 138 q 583 6 422 6 q 847 142 747 6 q 947 500 947 278 z "},"Ù":{"ha":915,"x_min":92,"x_max":843,"o":"m 92 347 l 92 1011 l 233 1011 l 233 350 q 304 107 233 189 q 510 25 375 25 q 715 106 643 25 q 788 343 788 188 l 788 569 q 760 1011 788 849 l 843 1011 q 815 569 815 836 l 815 350 q 458 -17 815 -17 q 185 76 278 -17 q 92 347 92 169 m 493 1107 l 242 1343 l 406 1343 l 503 1114 l 493 1107 z "},"Ú":{"ha":915,"x_min":92,"x_max":843,"o":"m 92 347 l 92 1011 l 233 1011 l 233 350 q 304 107 233 189 q 510 25 375 25 q 715 106 643 25 q 788 343 788 188 l 788 569 q 760 1011 788 849 l 843 1011 q 815 569 815 836 l 815 350 q 458 -17 815 -17 q 185 76 278 -17 q 92 347 92 169 m 450 1107 l 440 1114 l 538 1343 l 701 1343 l 450 1107 z "},"Û":{"ha":915,"x_min":92,"x_max":843,"o":"m 92 347 l 92 1011 l 233 1011 l 233 350 q 304 107 233 189 q 510 25 375 25 q 715 106 643 25 q 788 343 788 188 l 788 569 q 760 1011 788 849 l 843 1011 q 815 569 815 836 l 815 350 q 458 -17 815 -17 q 185 76 278 -17 q 92 347 92 169 m 706 1114 l 697 1107 l 472 1235 l 247 1107 l 239 1114 l 468 1343 l 476 1343 l 706 1114 z "},"Ü":{"ha":915,"x_min":92,"x_max":843,"o":"m 92 347 l 92 1011 l 233 1011 l 233 350 q 304 107 233 189 q 510 25 375 25 q 715 106 643 25 q 788 343 788 188 l 788 569 q 760 1011 788 849 l 843 1011 q 815 569 815 836 l 815 350 q 458 -17 815 -17 q 185 76 278 -17 q 92 347 92 169 m 336 1126 l 251 1210 l 336 1293 l 418 1210 l 336 1126 m 608 1126 l 524 1210 l 608 1293 l 690 1210 l 608 1126 z "},"Ý":{"ha":821,"x_min":13,"x_max":808,"o":"m 569 599 l 485 450 l 485 0 l 343 0 l 343 433 l 13 1011 l 175 1011 l 472 483 l 544 611 q 721 1011 683 853 l 808 1011 q 569 599 681 799 m 413 1107 l 403 1114 l 500 1343 l 664 1343 l 413 1107 z "},"Þ":{"ha":789,"x_min":100,"x_max":754,"o":"m 754 564 q 649 338 754 422 q 363 253 543 253 q 242 261 303 253 l 242 0 l 100 0 l 100 1011 l 242 1011 l 242 842 l 363 842 q 654 770 554 842 q 754 564 754 699 m 604 547 q 538 747 604 675 q 342 819 471 819 l 242 819 l 242 285 q 339 275 282 275 q 536 346 468 275 q 604 547 604 417 z "},"ß":{"ha":863,"x_min":26,"x_max":833,"o":"m 833 213 q 763 46 833 108 q 575 -17 692 -17 q 347 50 438 -17 l 367 121 q 583 3 456 3 q 706 44 660 3 q 751 151 751 86 q 715 249 751 210 q 590 336 678 288 l 538 365 q 435 442 469 403 q 401 538 401 482 q 424 617 401 583 q 500 700 446 650 q 563 764 543 740 q 619 921 619 831 q 572 1058 619 1006 q 446 1111 525 1111 q 313 1049 360 1111 q 265 883 265 988 l 265 0 l 133 0 l 133 707 l 26 707 l 26 738 l 133 738 l 133 814 q 219 1049 133 967 q 451 1131 306 1131 q 647 1074 567 1131 q 728 928 728 1017 q 696 826 728 867 q 588 733 664 786 q 506 668 529 694 q 482 607 482 642 q 510 544 482 571 q 603 482 538 518 l 656 451 q 792 347 750 399 q 833 213 833 294 z "},"à":{"ha":711,"x_min":24,"x_max":700,"o":"m 700 33 l 700 25 q 585 -10 644 -10 q 475 93 483 -10 q 218 -14 360 -14 q 77 33 131 -14 q 24 157 24 81 q 107 312 24 251 q 338 388 190 372 l 421 396 l 474 400 l 474 479 q 432 651 474 594 q 296 708 390 708 q 88 625 188 708 l 75 640 q 202 727 139 700 q 347 754 265 754 q 606 492 606 754 l 606 136 q 617 51 606 72 q 674 31 628 31 q 700 33 678 31 m 474 119 l 474 379 q 233 316 311 361 q 154 179 154 271 q 192 74 154 111 q 290 36 229 36 q 474 119 388 36 m 353 842 l 117 1090 l 263 1090 l 363 849 l 353 842 z "},"á":{"ha":711,"x_min":24,"x_max":700,"o":"m 700 33 l 700 25 q 585 -10 644 -10 q 475 93 483 -10 q 218 -14 360 -14 q 77 33 131 -14 q 24 157 24 81 q 107 312 24 251 q 338 388 190 372 l 421 396 l 474 400 l 474 479 q 432 651 474 594 q 296 708 390 708 q 88 625 188 708 l 75 640 q 202 727 139 700 q 347 754 265 754 q 606 492 606 754 l 606 136 q 617 51 606 72 q 674 31 628 31 q 700 33 678 31 m 474 119 l 474 379 q 233 316 311 361 q 154 179 154 271 q 192 74 154 111 q 290 36 229 36 q 474 119 388 36 m 311 842 l 301 849 l 403 1090 l 549 1090 l 311 842 z "},"â":{"ha":711,"x_min":24,"x_max":700,"o":"m 700 33 l 700 25 q 585 -10 644 -10 q 475 93 483 -10 q 218 -14 360 -14 q 77 33 131 -14 q 24 157 24 81 q 107 312 24 251 q 338 388 190 372 l 421 396 l 474 400 l 474 479 q 432 651 474 594 q 296 708 390 708 q 88 625 188 708 l 75 640 q 202 727 139 700 q 347 754 265 754 q 606 492 606 754 l 606 136 q 617 51 606 72 q 674 31 628 31 q 700 33 678 31 m 474 119 l 474 379 q 233 316 311 361 q 154 179 154 271 q 192 74 154 111 q 290 36 229 36 q 474 119 388 36 m 546 849 l 538 842 l 332 981 l 126 842 l 118 849 l 328 1090 l 336 1090 l 546 849 z "},"ã":{"ha":711,"x_min":24,"x_max":700,"o":"m 700 33 l 700 25 q 585 -10 644 -10 q 475 93 483 -10 q 218 -14 360 -14 q 77 33 131 -14 q 24 157 24 81 q 107 312 24 251 q 338 388 190 372 l 421 396 l 474 400 l 474 479 q 432 651 474 594 q 296 708 390 708 q 88 625 188 708 l 75 640 q 202 727 139 700 q 347 754 265 754 q 606 492 606 754 l 606 136 q 617 51 606 72 q 674 31 628 31 q 700 33 678 31 m 474 119 l 474 379 q 233 316 311 361 q 154 179 154 271 q 192 74 154 111 q 290 36 229 36 q 474 119 388 36 m 113 858 l 99 861 q 221 1017 121 1017 q 360 972 271 1017 q 468 936 443 936 q 553 1017 531 936 l 565 1014 q 443 858 546 858 q 306 903 397 858 q 197 939 222 939 q 113 858 135 939 z "},"ä":{"ha":711,"x_min":24,"x_max":700,"o":"m 700 33 l 700 25 q 585 -10 644 -10 q 475 93 483 -10 q 218 -14 360 -14 q 77 33 131 -14 q 24 157 24 81 q 107 312 24 251 q 338 388 190 372 l 421 396 l 474 400 l 474 479 q 432 651 474 594 q 296 708 390 708 q 88 625 188 708 l 75 640 q 202 727 139 700 q 347 754 265 754 q 606 492 606 754 l 606 136 q 617 51 606 72 q 674 31 628 31 q 700 33 678 31 m 474 119 l 474 379 q 233 316 311 361 q 154 179 154 271 q 192 74 154 111 q 290 36 229 36 q 474 119 388 36 m 192 860 l 107 944 l 192 1026 l 274 944 l 192 860 m 456 860 l 372 944 l 456 1026 l 539 944 l 456 860 z "},"å":{"ha":711,"x_min":24,"x_max":700,"o":"m 700 33 l 700 25 q 585 -10 644 -10 q 475 93 483 -10 q 218 -14 360 -14 q 77 33 131 -14 q 24 157 24 81 q 107 312 24 251 q 338 388 190 372 l 421 396 l 474 400 l 474 479 q 432 651 474 594 q 296 708 390 708 q 88 625 188 708 l 75 640 q 202 727 139 700 q 347 754 265 754 q 606 492 606 754 l 606 136 q 617 51 606 72 q 674 31 628 31 q 700 33 678 31 m 474 119 l 474 379 q 233 316 311 361 q 154 179 154 271 q 192 74 154 111 q 290 36 229 36 q 474 119 388 36 m 224 881 q 202 900 224 881 q 181 981 181 919 q 224 1080 181 1042 q 332 1118 268 1118 q 440 1080 396 1118 q 483 981 483 1042 q 440 881 483 919 q 332 842 397 842 q 224 881 267 842 m 397 892 q 409 909 397 892 q 421 981 421 925 q 397 1069 421 1036 q 332 1101 374 1101 q 267 1069 290 1101 q 243 981 243 1036 q 267 892 243 925 q 332 860 290 860 q 397 892 374 860 z "},"æ":{"ha":1183,"x_min":26,"x_max":1150,"o":"m 1147 421 l 614 421 l 614 396 q 687 137 614 231 q 876 43 760 43 q 1012 78 946 43 q 1122 176 1078 113 l 1139 167 q 819 -17 1019 -17 q 652 24 728 -17 q 532 140 576 65 q 391 26 474 67 q 221 -14 308 -14 q 80 33 133 -14 q 26 157 26 81 q 112 324 26 254 q 342 411 197 393 l 404 419 l 482 431 l 482 479 q 440 651 482 594 q 297 708 397 708 q 79 625 186 708 l 67 640 q 202 727 138 700 q 353 754 267 754 q 579 635 529 754 q 847 754 676 754 q 1071 664 992 754 q 1147 421 1150 574 m 615 443 l 1021 443 q 976 653 1026 574 q 836 733 925 733 q 686 653 746 733 q 615 443 626 574 m 296 36 q 482 114 397 36 l 482 410 q 239 328 321 383 q 157 179 157 272 q 195 74 157 111 q 296 36 233 36 z "},"ç":{"ha":710,"x_min":39,"x_max":693,"o":"m 404 -17 l 379 -71 q 496 -109 453 -76 q 539 -189 539 -142 q 494 -275 539 -242 q 381 -308 450 -308 q 267 -283 311 -308 l 271 -271 q 358 -283 306 -283 q 432 -263 404 -283 q 460 -212 460 -243 q 431 -164 460 -183 q 354 -144 403 -144 l 319 -144 l 376 -17 q 136 91 231 -14 q 42 361 42 196 q 147 644 39 531 q 406 754 254 757 q 685 628 588 754 l 628 578 q 413 733 532 733 q 249 639 313 733 q 185 392 185 544 q 255 135 185 228 q 438 43 325 43 q 567 78 503 43 q 676 176 632 113 l 693 167 q 404 -17 578 -7 z "},"è":{"ha":751,"x_min":42,"x_max":718,"o":"m 715 421 l 182 421 l 182 396 q 255 137 182 231 q 444 43 328 43 q 580 78 514 43 q 690 176 646 113 l 707 167 q 388 -17 588 -17 q 139 87 236 -17 q 42 357 42 190 q 147 644 42 533 q 415 754 253 754 q 639 664 560 754 q 715 421 718 574 m 183 443 l 589 443 q 544 653 594 574 q 404 733 493 733 q 254 653 314 733 q 183 443 194 574 m 426 842 l 190 1090 l 336 1090 l 436 849 l 426 842 z "},"é":{"ha":751,"x_min":42,"x_max":718,"o":"m 715 421 l 182 421 l 182 396 q 255 137 182 231 q 444 43 328 43 q 580 78 514 43 q 690 176 646 113 l 707 167 q 388 -17 588 -17 q 139 87 236 -17 q 42 357 42 190 q 147 644 42 533 q 415 754 253 754 q 639 664 560 754 q 715 421 718 574 m 183 443 l 589 443 q 544 653 594 574 q 404 733 493 733 q 254 653 314 733 q 183 443 194 574 m 385 842 l 375 849 l 476 1090 l 622 1090 l 385 842 z "},"ê":{"ha":751,"x_min":42,"x_max":718,"o":"m 715 421 l 182 421 l 182 396 q 255 137 182 231 q 444 43 328 43 q 580 78 514 43 q 690 176 646 113 l 707 167 q 388 -17 588 -17 q 139 87 236 -17 q 42 357 42 190 q 147 644 42 533 q 415 754 253 754 q 639 664 560 754 q 715 421 718 574 m 183 443 l 589 443 q 544 653 594 574 q 404 733 493 733 q 254 653 314 733 q 183 443 194 574 m 619 849 l 611 842 l 406 981 l 200 842 l 192 849 l 401 1090 l 410 1090 l 619 849 z "},"ë":{"ha":751,"x_min":42,"x_max":718,"o":"m 715 421 l 182 421 l 182 396 q 255 137 182 231 q 444 43 328 43 q 580 78 514 43 q 690 176 646 113 l 707 167 q 388 -17 588 -17 q 139 87 236 -17 q 42 357 42 190 q 147 644 42 533 q 415 754 253 754 q 639 664 560 754 q 715 421 718 574 m 183 443 l 589 443 q 544 653 594 574 q 404 733 493 733 q 254 653 314 733 q 183 443 194 574 m 265 860 l 181 944 l 265 1026 l 347 944 l 265 860 m 529 860 l 446 944 l 529 1026 l 613 944 l 529 860 z "},"ì":{"ha":299,"x_min":-67,"x_max":214,"o":"m 83 0 l 83 715 l 208 753 l 214 753 l 214 0 l 83 0 m 169 842 l -67 1090 l 79 1090 l 179 849 l 169 842 z "},"í":{"ha":299,"x_min":83,"x_max":365,"o":"m 83 0 l 83 715 l 208 753 l 214 753 l 214 0 l 83 0 m 128 842 l 118 849 l 219 1090 l 365 1090 l 128 842 z "},"î":{"ha":299,"x_min":-65,"x_max":363,"o":"m 83 0 l 83 715 l 208 753 l 214 753 l 214 0 l 83 0 m 363 849 l 354 842 l 149 981 l -57 842 l -65 849 l 144 1090 l 153 1090 l 363 849 z "},"ï":{"ha":299,"x_min":-76,"x_max":356,"o":"m 83 0 l 83 715 l 208 753 l 214 753 l 214 0 l 83 0 m 8 860 l -76 944 l 8 1026 l 90 944 l 8 860 m 272 860 l 189 944 l 272 1026 l 356 944 l 272 860 z "},"ð":{"ha":803,"x_min":43,"x_max":758,"o":"m 758 400 q 655 99 758 215 q 390 -17 551 -17 q 140 84 236 -17 q 43 347 43 185 q 140 606 43 507 q 381 706 236 706 q 576 638 488 706 q 428 888 524 788 l 232 800 l 222 822 l 410 906 q 235 1015 324 985 l 243 1038 q 472 933 367 1006 l 632 1004 l 642 982 l 494 917 q 688 687 618 824 q 758 400 758 550 m 619 374 q 589 599 619 490 q 389 682 489 682 q 239 594 293 682 q 185 356 185 506 q 246 106 185 206 q 400 7 307 7 q 559 110 499 7 q 619 374 619 214 z "},"ñ":{"ha":793,"x_min":79,"x_max":718,"o":"m 718 492 l 718 0 l 586 0 l 586 494 q 557 639 586 575 q 424 704 528 704 q 211 606 313 704 l 211 0 l 79 0 l 79 715 l 206 753 l 211 753 l 211 633 q 481 754 339 754 q 718 492 718 754 m 185 858 l 171 861 q 293 1017 193 1017 q 432 972 343 1017 q 540 936 515 936 q 625 1017 603 936 l 638 1014 q 515 858 618 858 q 378 903 469 858 q 269 939 294 939 q 185 858 207 939 z "},"ò":{"ha":829,"x_min":42,"x_max":788,"o":"m 42 364 q 149 646 42 538 q 421 754 257 754 q 685 649 582 754 q 788 372 788 544 q 680 92 788 200 q 408 -17 572 -17 q 144 88 247 -17 q 42 364 42 192 m 646 364 q 581 632 646 529 q 413 735 515 735 q 246 635 308 735 q 183 372 183 535 q 249 105 183 207 q 417 3 314 3 q 583 101 521 3 q 646 364 646 200 m 436 842 l 200 1090 l 346 1090 l 446 849 l 436 842 z "},"ó":{"ha":829,"x_min":42,"x_max":788,"o":"m 42 364 q 149 646 42 538 q 421 754 257 754 q 685 649 582 754 q 788 372 788 544 q 680 92 788 200 q 408 -17 572 -17 q 144 88 247 -17 q 42 364 42 192 m 646 364 q 581 632 646 529 q 413 735 515 735 q 246 635 308 735 q 183 372 183 535 q 249 105 183 207 q 417 3 314 3 q 583 101 521 3 q 646 364 646 200 m 394 842 l 385 849 l 486 1090 l 632 1090 l 394 842 z "},"ô":{"ha":829,"x_min":42,"x_max":788,"o":"m 42 364 q 149 646 42 538 q 421 754 257 754 q 685 649 582 754 q 788 372 788 544 q 680 92 788 200 q 408 -17 572 -17 q 144 88 247 -17 q 42 364 42 192 m 646 364 q 581 632 646 529 q 413 735 515 735 q 246 635 308 735 q 183 372 183 535 q 249 105 183 207 q 417 3 314 3 q 583 101 521 3 q 646 364 646 200 m 629 849 l 621 842 l 415 981 l 210 842 l 201 849 l 411 1090 l 419 1090 l 629 849 z "},"õ":{"ha":829,"x_min":42,"x_max":788,"o":"m 42 364 q 149 646 42 538 q 421 754 257 754 q 685 649 582 754 q 788 372 788 544 q 680 92 788 200 q 408 -17 572 -17 q 144 88 247 -17 q 42 364 42 192 m 646 364 q 581 632 646 529 q 413 735 515 735 q 246 635 308 735 q 183 372 183 535 q 249 105 183 207 q 417 3 314 3 q 583 101 521 3 q 646 364 646 200 m 196 858 l 182 861 q 304 1017 204 1017 q 443 972 354 1017 q 551 936 526 936 q 636 1017 614 936 l 649 1014 q 526 858 629 858 q 389 903 481 858 q 281 939 306 939 q 196 858 218 939 z "},"ö":{"ha":829,"x_min":42,"x_max":788,"o":"m 42 364 q 149 646 42 538 q 421 754 257 754 q 685 649 582 754 q 788 372 788 544 q 680 92 788 200 q 408 -17 572 -17 q 144 88 247 -17 q 42 364 42 192 m 646 364 q 581 632 646 529 q 413 735 515 735 q 246 635 308 735 q 183 372 183 535 q 249 105 183 207 q 417 3 314 3 q 583 101 521 3 q 646 364 646 200 m 274 860 l 189 944 l 274 1026 l 356 944 l 274 860 m 538 860 l 454 944 l 538 1026 l 621 944 l 538 860 z "},"÷":{"ha":706,"x_min":69,"x_max":636,"o":"m 353 703 l 296 760 l 353 817 l 410 760 l 353 703 m 69 492 l 69 519 l 636 519 l 636 492 l 69 492 m 353 194 l 296 251 l 353 308 l 410 251 l 353 194 z "},"ø":{"ha":829,"x_min":42,"x_max":788,"o":"m 788 372 q 680 92 788 200 q 408 -17 572 -17 q 203 39 289 -17 l 126 -71 l 106 -57 l 182 54 q 42 364 42 157 q 149 646 42 538 q 421 754 257 754 q 626 697 536 754 l 703 808 l 724 793 l 647 683 q 788 372 788 578 m 235 129 l 581 632 q 413 735 518 735 q 246 635 308 735 q 183 372 183 535 q 235 129 183 224 m 646 364 q 596 607 646 508 l 249 106 q 417 3 311 3 q 583 101 521 3 q 646 364 646 200 z "},"ù":{"ha":790,"x_min":72,"x_max":739,"o":"m 708 126 l 739 26 l 615 -12 l 576 108 l 576 111 q 310 -17 458 -17 q 72 244 72 -17 l 72 715 l 199 753 l 204 753 l 204 242 q 233 96 204 161 q 367 32 263 32 q 474 62 418 32 q 576 143 531 92 l 576 715 l 703 753 l 708 753 l 708 126 m 413 842 l 176 1090 l 322 1090 l 422 849 l 413 842 z "},"ú":{"ha":790,"x_min":72,"x_max":739,"o":"m 708 126 l 739 26 l 615 -12 l 576 108 l 576 111 q 310 -17 458 -17 q 72 244 72 -17 l 72 715 l 199 753 l 204 753 l 204 242 q 233 96 204 161 q 367 32 263 32 q 474 62 418 32 q 576 143 531 92 l 576 715 l 703 753 l 708 753 l 708 126 m 371 842 l 361 849 l 463 1090 l 608 1090 l 371 842 z "},"û":{"ha":790,"x_min":72,"x_max":739,"o":"m 708 126 l 739 26 l 615 -12 l 576 108 l 576 111 q 310 -17 458 -17 q 72 244 72 -17 l 72 715 l 199 753 l 204 753 l 204 242 q 233 96 204 161 q 367 32 263 32 q 474 62 418 32 q 576 143 531 92 l 576 715 l 703 753 l 708 753 l 708 126 m 606 849 l 597 842 l 392 981 l 186 842 l 178 849 l 388 1090 l 396 1090 l 606 849 z "},"ü":{"ha":790,"x_min":72,"x_max":739,"o":"m 708 126 l 739 26 l 615 -12 l 576 108 l 576 111 q 310 -17 458 -17 q 72 244 72 -17 l 72 715 l 199 753 l 204 753 l 204 242 q 233 96 204 161 q 367 32 263 32 q 474 62 418 32 q 576 143 531 92 l 576 715 l 703 753 l 708 753 l 708 126 m 250 860 l 165 944 l 250 1026 l 332 944 l 250 860 m 514 860 l 431 944 l 514 1026 l 597 944 l 514 860 z "},"ý":{"ha":668,"x_min":1,"x_max":667,"o":"m 586 738 l 667 738 q 528 417 617 635 l 489 325 l 306 -117 q 7 -325 219 -325 l 15 -246 q 83 -256 44 -256 q 197 -220 144 -256 q 279 -115 250 -185 l 325 -4 l 1 738 l 143 738 l 393 163 l 465 335 q 586 738 571 593 m 326 842 l 317 849 l 418 1090 l 564 1090 l 326 842 z "},"þ":{"ha":817,"x_min":81,"x_max":776,"o":"m 775 381 q 669 96 776 211 q 417 -17 563 -19 q 211 61 297 -17 l 211 -317 l 81 -317 l 81 1083 l 206 1125 l 211 1125 l 211 638 q 458 754 321 754 q 685 649 594 754 q 775 381 775 543 m 633 368 q 574 619 633 529 q 417 708 515 708 q 211 601 301 708 l 211 147 q 290 43 239 81 q 404 6 342 6 q 569 105 506 6 q 633 368 633 204 z "},"ÿ":{"ha":668,"x_min":1,"x_max":667,"o":"m 586 738 l 667 738 q 528 417 617 635 l 489 325 l 306 -117 q 7 -325 219 -325 l 15 -246 q 83 -256 44 -256 q 197 -220 144 -256 q 279 -115 250 -185 l 325 -4 l 1 738 l 143 738 l 393 163 l 465 335 q 586 738 571 593 m 206 860 l 121 944 l 206 1026 l 288 944 l 206 860 m 469 860 l 386 944 l 469 1026 l 553 944 l 469 860 z "},"Ā":{"ha":856,"x_min":-6,"x_max":854,"o":"m 700 0 l 567 332 l 172 332 q 90 0 96 126 l -6 0 q 175 417 68 151 l 186 443 l 428 1033 l 433 1033 l 854 0 l 700 0 m 182 357 l 557 357 l 369 821 l 213 433 l 182 357 m 214 1144 l 214 1189 l 649 1189 l 649 1144 l 214 1144 z "},"ā":{"ha":711,"x_min":24,"x_max":700,"o":"m 700 33 l 700 25 q 585 -10 644 -10 q 475 93 483 -10 q 218 -14 360 -14 q 77 33 131 -14 q 24 157 24 81 q 107 312 24 251 q 338 388 190 372 l 421 396 l 474 400 l 474 479 q 432 651 474 594 q 296 708 390 708 q 88 625 188 708 l 75 640 q 202 727 139 700 q 347 754 265 754 q 606 492 606 754 l 606 136 q 617 51 606 72 q 674 31 628 31 q 700 33 678 31 m 474 119 l 474 379 q 233 316 311 361 q 154 179 154 271 q 192 74 154 111 q 290 36 229 36 q 474 119 388 36 m 142 908 l 142 953 l 524 953 l 524 908 l 142 908 z "},"Ă":{"ha":856,"x_min":-6,"x_max":854,"o":"m 700 0 l 567 332 l 172 332 q 90 0 96 126 l -6 0 q 175 417 68 151 l 186 443 l 428 1033 l 433 1033 l 854 0 l 700 0 m 182 357 l 557 357 l 369 821 l 213 433 l 182 357 m 206 1329 l 218 1333 q 301 1238 243 1275 q 431 1201 360 1201 q 561 1238 503 1201 q 644 1333 619 1275 l 657 1329 q 431 1124 600 1124 q 206 1329 263 1124 z "},"ă":{"ha":711,"x_min":24,"x_max":700,"o":"m 700 33 l 700 25 q 585 -10 644 -10 q 475 93 483 -10 q 218 -14 360 -14 q 77 33 131 -14 q 24 157 24 81 q 107 312 24 251 q 338 388 190 372 l 421 396 l 474 400 l 474 479 q 432 651 474 594 q 296 708 390 708 q 88 625 188 708 l 75 640 q 202 727 139 700 q 347 754 265 754 q 606 492 606 754 l 606 136 q 617 51 606 72 q 674 31 628 31 q 700 33 678 31 m 474 119 l 474 379 q 233 316 311 361 q 154 179 154 271 q 192 74 154 111 q 290 36 229 36 q 474 119 388 36 m 117 1064 l 129 1068 q 208 972 154 1008 q 332 936 263 936 q 457 972 403 936 q 536 1068 511 1008 l 549 1064 q 332 858 493 858 q 117 1064 172 858 z "},"Ą":{"ha":856,"x_min":-6,"x_max":885,"o":"m 881 -242 l 885 -249 q 731 -308 815 -308 q 649 -281 681 -308 q 617 -207 617 -253 q 657 -108 617 -154 q 786 0 697 -61 l 700 0 l 567 332 l 172 332 q 90 0 96 126 l -6 0 q 175 417 68 151 l 186 443 l 428 1033 l 433 1033 l 854 0 l 807 0 q 714 -176 714 -100 q 736 -240 714 -217 q 794 -262 758 -262 q 881 -242 828 -262 m 182 357 l 557 357 l 369 821 l 213 433 l 182 357 z "},"ą":{"ha":711,"x_min":24,"x_max":706,"o":"m 701 -242 l 706 -249 q 550 -308 636 -308 q 468 -281 500 -308 q 436 -207 436 -253 q 474 -112 436 -157 q 593 -10 511 -67 l 585 -10 q 475 93 483 -10 q 218 -14 360 -14 q 77 33 131 -14 q 24 157 24 81 q 107 312 24 251 q 338 388 190 372 l 421 396 l 474 400 l 474 479 q 432 651 474 594 q 296 708 390 708 q 88 625 188 708 l 75 640 q 202 727 139 700 q 347 754 265 754 q 606 492 606 754 l 606 136 q 617 51 606 72 q 674 31 628 31 q 700 33 678 31 l 700 25 q 622 -6 661 3 q 535 -176 535 -100 q 557 -240 535 -217 q 615 -262 579 -262 q 701 -242 650 -262 m 474 119 l 474 379 q 233 316 311 361 q 154 179 154 271 q 192 74 154 111 q 290 36 229 36 q 474 119 388 36 z "},"Ć":{"ha":975,"x_min":50,"x_max":960,"o":"m 53 497 q 198 881 50 732 q 567 1028 346 1031 q 781 983 681 1028 q 946 865 882 939 l 876 803 q 737 951 819 897 q 560 1006 654 1006 q 306 871 404 1006 q 208 532 208 736 q 318 176 208 308 q 600 44 428 44 q 943 235 821 44 l 960 225 q 538 -17 811 -17 q 190 126 326 -17 q 53 497 53 269 m 536 1107 l 526 1114 l 624 1343 l 788 1343 l 536 1107 z "},"ć":{"ha":710,"x_min":39,"x_max":693,"o":"m 42 361 q 147 644 39 531 q 406 754 254 757 q 685 628 588 754 l 628 578 q 413 733 532 733 q 249 639 313 733 q 185 392 185 544 q 255 135 185 228 q 438 43 325 43 q 567 78 503 43 q 676 176 632 113 l 693 167 q 383 -17 572 -17 q 138 89 235 -17 q 42 361 42 194 m 379 842 l 369 849 l 471 1090 l 617 1090 l 379 842 z "},"Ĉ":{"ha":975,"x_min":50,"x_max":960,"o":"m 53 497 q 198 881 50 732 q 567 1028 346 1031 q 781 983 681 1028 q 946 865 882 939 l 876 803 q 737 951 819 897 q 560 1006 654 1006 q 306 871 404 1006 q 208 532 208 736 q 318 176 208 308 q 600 44 428 44 q 943 235 821 44 l 960 225 q 538 -17 811 -17 q 190 126 326 -17 q 53 497 53 269 m 790 1114 l 782 1107 l 557 1235 l 332 1107 l 324 1114 l 553 1343 l 561 1343 l 790 1114 z "},"ĉ":{"ha":710,"x_min":39,"x_max":693,"o":"m 42 361 q 147 644 39 531 q 406 754 254 757 q 685 628 588 754 l 628 578 q 413 733 532 733 q 249 639 313 733 q 185 392 185 544 q 255 135 185 228 q 438 43 325 43 q 567 78 503 43 q 676 176 632 113 l 693 167 q 383 -17 572 -17 q 138 89 235 -17 q 42 361 42 194 m 614 849 l 606 842 l 400 981 l 194 842 l 186 849 l 396 1090 l 404 1090 l 614 849 z "},"Ċ":{"ha":975,"x_min":50,"x_max":960,"o":"m 53 497 q 198 881 50 732 q 567 1028 346 1031 q 781 983 681 1028 q 946 865 882 939 l 876 803 q 737 951 819 897 q 560 1006 654 1006 q 306 871 404 1006 q 208 532 208 736 q 318 176 208 308 q 600 44 428 44 q 943 235 821 44 l 960 225 q 538 -17 811 -17 q 190 126 326 -17 q 53 497 53 269 m 557 1126 l 458 1224 l 557 1322 l 656 1224 l 557 1126 z "},"ċ":{"ha":710,"x_min":39,"x_max":693,"o":"m 42 361 q 147 644 39 531 q 406 754 254 757 q 685 628 588 754 l 628 578 q 413 733 532 733 q 249 639 313 733 q 185 392 185 544 q 255 135 185 228 q 438 43 325 43 q 567 78 503 43 q 676 176 632 113 l 693 167 q 383 -17 572 -17 q 138 89 235 -17 q 42 361 42 194 m 400 860 l 306 954 l 400 1049 l 494 954 l 400 860 z "},"Č":{"ha":975,"x_min":50,"x_max":960,"o":"m 53 497 q 198 881 50 732 q 567 1028 346 1031 q 781 983 681 1028 q 946 865 882 939 l 876 803 q 737 951 819 897 q 560 1006 654 1006 q 306 871 404 1006 q 208 532 208 736 q 318 176 208 308 q 600 44 428 44 q 943 235 821 44 l 960 225 q 538 -17 811 -17 q 190 126 326 -17 q 53 497 53 269 m 782 1343 l 790 1336 l 561 1107 l 553 1107 l 324 1336 l 332 1343 l 557 1215 l 782 1343 z "},"č":{"ha":710,"x_min":39,"x_max":693,"o":"m 42 361 q 147 644 39 531 q 406 754 254 757 q 685 628 588 754 l 628 578 q 413 733 532 733 q 249 639 313 733 q 185 392 185 544 q 255 135 185 228 q 438 43 325 43 q 567 78 503 43 q 676 176 632 113 l 693 167 q 383 -17 572 -17 q 138 89 235 -17 q 42 361 42 194 m 606 1090 l 614 1083 l 404 842 l 396 842 l 186 1083 l 194 1090 l 400 951 l 606 1090 z "},"Ď":{"ha":1044,"x_min":100,"x_max":990,"o":"m 990 517 q 840 138 990 275 q 431 0 689 0 l 100 0 l 100 1011 l 454 1011 q 845 881 700 1011 q 990 517 990 750 m 835 510 q 727 857 835 725 q 442 989 619 989 l 242 989 l 242 35 q 454 22 296 22 q 735 149 636 22 q 835 510 835 276 m 657 1343 l 665 1336 l 436 1107 l 428 1107 l 199 1336 l 207 1343 l 432 1215 l 657 1343 z "},"ď":{"ha":851,"x_min":39,"x_max":960,"o":"m 767 26 l 643 -12 l 607 101 q 358 -17 497 -17 q 133 89 224 -17 q 42 356 42 194 q 146 641 39 525 q 400 754 253 757 q 604 678 519 754 l 604 1083 l 731 1125 l 736 1125 l 736 126 l 767 26 m 604 133 l 604 590 q 526 692 578 654 q 413 731 475 731 q 246 633 308 731 q 183 369 183 535 q 242 118 183 207 q 401 29 300 29 q 604 133 513 29 m 829 867 l 824 874 q 890 972 890 913 q 810 1075 890 1036 l 869 1140 q 960 1021 960 1104 q 924 935 960 976 q 829 867 888 894 z "},"Đ":{"ha":1051,"x_min":21,"x_max":997,"o":"m 997 517 q 847 137 997 274 q 438 0 697 0 l 107 0 l 107 515 l 21 515 l 21 535 l 107 535 l 107 1011 l 461 1011 q 852 881 707 1011 q 997 517 997 750 m 842 510 q 734 857 842 725 q 449 989 626 989 l 249 989 l 249 535 l 514 535 l 514 515 l 249 515 l 249 35 q 461 22 306 22 q 742 149 643 22 q 842 510 842 276 z "},"đ":{"ha":818,"x_min":39,"x_max":822,"o":"m 822 919 l 736 919 l 736 126 l 767 26 l 643 -12 l 607 101 q 358 -17 497 -17 q 133 89 224 -17 q 42 356 42 194 q 146 641 39 525 q 400 754 253 757 q 604 678 519 754 l 604 919 l 394 919 l 394 939 l 604 939 l 604 1083 l 731 1125 l 736 1125 l 736 939 l 822 939 l 822 919 m 604 133 l 604 590 q 526 692 578 654 q 413 731 475 731 q 246 633 308 731 q 183 369 183 535 q 242 118 183 207 q 401 29 300 29 q 604 133 513 29 z "},"Ē":{"ha":749,"x_min":100,"x_max":725,"o":"m 722 93 l 725 93 l 699 0 l 100 0 l 100 1011 l 682 1011 l 699 924 l 696 924 q 318 986 511 986 l 242 986 l 242 539 l 306 539 q 597 567 529 539 l 600 567 l 600 481 l 597 481 q 306 514 524 514 l 242 514 l 242 25 l 322 25 q 722 93 535 25 m 176 1144 l 176 1189 l 611 1189 l 611 1144 l 176 1144 z "},"ē":{"ha":751,"x_min":42,"x_max":718,"o":"m 715 421 l 182 421 l 182 396 q 255 137 182 231 q 444 43 328 43 q 580 78 514 43 q 690 176 646 113 l 707 167 q 388 -17 588 -17 q 139 87 236 -17 q 42 357 42 190 q 147 644 42 533 q 415 754 253 754 q 639 664 560 754 q 715 421 718 574 m 183 443 l 589 443 q 544 653 594 574 q 404 733 493 733 q 254 653 314 733 q 183 443 194 574 m 215 908 l 215 953 l 597 953 l 597 908 l 215 908 z "},"Ĕ":{"ha":749,"x_min":100,"x_max":725,"o":"m 722 93 l 725 93 l 699 0 l 100 0 l 100 1011 l 682 1011 l 699 924 l 696 924 q 318 986 511 986 l 242 986 l 242 539 l 306 539 q 597 567 529 539 l 600 567 l 600 481 l 597 481 q 306 514 524 514 l 242 514 l 242 25 l 322 25 q 722 93 535 25 m 168 1329 l 181 1333 q 264 1238 206 1275 q 393 1201 322 1201 q 524 1238 465 1201 q 607 1333 582 1275 l 619 1329 q 393 1124 563 1124 q 168 1329 225 1124 z "},"ĕ":{"ha":751,"x_min":42,"x_max":718,"o":"m 715 421 l 182 421 l 182 396 q 255 137 182 231 q 444 43 328 43 q 580 78 514 43 q 690 176 646 113 l 707 167 q 388 -17 588 -17 q 139 87 236 -17 q 42 357 42 190 q 147 644 42 533 q 415 754 253 754 q 639 664 560 754 q 715 421 718 574 m 183 443 l 589 443 q 544 653 594 574 q 404 733 493 733 q 254 653 314 733 q 183 443 194 574 m 190 1064 l 203 1068 q 282 972 228 1008 q 406 936 336 936 q 531 972 476 936 q 610 1068 585 1008 l 622 1064 q 406 858 567 858 q 190 1064 246 858 z "},"Ė":{"ha":749,"x_min":100,"x_max":725,"o":"m 722 93 l 725 93 l 699 0 l 100 0 l 100 1011 l 682 1011 l 699 924 l 696 924 q 318 986 511 986 l 242 986 l 242 539 l 306 539 q 597 567 529 539 l 600 567 l 600 481 l 597 481 q 306 514 524 514 l 242 514 l 242 25 l 322 25 q 722 93 535 25 m 393 1126 l 294 1224 l 393 1322 l 492 1224 l 393 1126 z "},"ė":{"ha":751,"x_min":42,"x_max":718,"o":"m 715 421 l 182 421 l 182 396 q 255 137 182 231 q 444 43 328 43 q 580 78 514 43 q 690 176 646 113 l 707 167 q 388 -17 588 -17 q 139 87 236 -17 q 42 357 42 190 q 147 644 42 533 q 415 754 253 754 q 639 664 560 754 q 715 421 718 574 m 183 443 l 589 443 q 544 653 594 574 q 404 733 493 733 q 254 653 314 733 q 183 443 194 574 m 406 860 l 311 954 l 406 1049 l 500 954 l 406 860 z "},"Ę":{"ha":749,"x_min":100,"x_max":725,"o":"m 715 -242 l 719 -249 q 564 -308 650 -308 q 482 -281 514 -308 q 450 -207 450 -253 q 490 -108 450 -154 q 621 0 531 -61 l 100 0 l 100 1011 l 682 1011 l 699 924 l 696 924 q 318 986 511 986 l 242 986 l 242 539 l 306 539 q 597 567 529 539 l 600 567 l 600 481 l 597 481 q 306 514 524 514 l 242 514 l 242 25 l 322 25 q 722 93 535 25 l 725 93 l 699 0 l 642 0 q 549 -176 549 -100 q 571 -240 549 -217 q 629 -262 593 -262 q 715 -242 664 -262 z "},"ę":{"ha":751,"x_min":42,"x_max":718,"o":"m 715 421 l 182 421 l 182 396 q 255 137 182 231 q 444 43 328 43 q 580 78 514 43 q 690 176 646 113 l 707 167 q 596 46 665 104 q 458 -178 458 -78 q 481 -240 458 -217 q 539 -262 503 -262 q 625 -242 572 -262 l 629 -249 q 475 -308 560 -308 q 393 -281 425 -308 q 361 -210 361 -254 q 403 -106 361 -157 q 540 18 446 -54 q 389 -17 469 -17 q 139 87 236 -17 q 42 358 42 190 q 147 644 42 533 q 415 754 253 754 q 639 664 560 754 q 715 421 718 574 m 183 443 l 589 443 q 544 653 594 574 q 404 733 493 733 q 254 653 314 733 q 183 443 194 574 z "},"Ě":{"ha":749,"x_min":100,"x_max":725,"o":"m 722 93 l 725 93 l 699 0 l 100 0 l 100 1011 l 682 1011 l 699 924 l 696 924 q 318 986 511 986 l 242 986 l 242 539 l 306 539 q 597 567 529 539 l 600 567 l 600 481 l 597 481 q 306 514 524 514 l 242 514 l 242 25 l 322 25 q 722 93 535 25 m 618 1343 l 626 1336 l 397 1107 l 389 1107 l 160 1336 l 168 1343 l 393 1215 l 618 1343 z "},"ě":{"ha":751,"x_min":42,"x_max":718,"o":"m 715 421 l 182 421 l 182 396 q 255 137 182 231 q 444 43 328 43 q 580 78 514 43 q 690 176 646 113 l 707 167 q 388 -17 588 -17 q 139 87 236 -17 q 42 357 42 190 q 147 644 42 533 q 415 754 253 754 q 639 664 560 754 q 715 421 718 574 m 183 443 l 589 443 q 544 653 594 574 q 404 733 493 733 q 254 653 314 733 q 183 443 194 574 m 611 1090 l 619 1083 l 410 842 l 401 842 l 192 1083 l 200 1090 l 406 951 l 611 1090 z "},"Ĝ":{"ha":1046,"x_min":50,"x_max":988,"o":"m 610 458 l 988 458 l 988 110 q 593 -17 815 -17 q 200 122 347 -17 q 53 499 53 260 q 203 881 50 732 q 585 1028 357 1031 q 801 984 700 1028 q 965 865 901 940 l 896 803 q 756 952 839 899 q 572 1006 672 1006 q 308 870 407 1006 q 208 508 208 735 q 316 147 206 289 q 600 8 426 6 q 857 92 753 8 l 857 433 l 625 433 l 610 458 m 807 1114 l 799 1107 l 574 1235 l 349 1107 l 340 1114 l 569 1343 l 578 1343 l 807 1114 z "},"ĝ":{"ha":735,"x_min":7,"x_max":724,"o":"m 713 -68 q 599 -257 713 -181 q 322 -333 485 -333 q 97 -278 186 -333 q 7 -133 7 -222 q 29 -40 7 -86 l 107 -18 l 113 -18 q 90 -122 90 -76 q 152 -260 90 -210 q 322 -311 214 -311 q 543 -259 460 -311 q 626 -121 626 -207 q 444 4 626 -7 l 226 18 q 64 132 64 26 q 163 260 64 201 l 190 276 q 50 497 50 346 q 135 681 50 608 q 347 754 221 754 q 538 699 461 754 q 724 799 608 799 l 711 688 q 631 703 661 703 q 556 685 582 703 q 640 499 640 615 q 555 315 640 388 q 343 243 469 243 q 214 267 276 243 l 183 246 q 143 183 143 218 q 240 129 143 135 l 469 115 q 713 -68 713 100 m 175 499 q 222 330 175 394 q 346 265 268 265 q 470 328 425 265 q 515 497 515 392 q 469 667 515 603 q 344 732 422 732 q 221 668 267 732 q 175 499 175 604 m 560 849 l 551 842 l 346 981 l 140 842 l 132 849 l 342 1090 l 350 1090 l 560 849 z "},"Ğ":{"ha":1046,"x_min":50,"x_max":988,"o":"m 610 458 l 988 458 l 988 110 q 593 -17 815 -17 q 200 122 347 -17 q 53 499 53 260 q 203 881 50 732 q 585 1028 357 1031 q 801 984 700 1028 q 965 865 901 940 l 896 803 q 756 952 839 899 q 572 1006 672 1006 q 308 870 407 1006 q 208 508 208 735 q 316 147 206 289 q 600 8 426 6 q 857 92 753 8 l 857 433 l 625 433 l 610 458 m 349 1329 l 361 1333 q 444 1238 386 1275 q 574 1201 503 1201 q 704 1238 646 1201 q 788 1333 763 1275 l 800 1329 q 574 1124 743 1124 q 349 1329 406 1124 z "},"ğ":{"ha":735,"x_min":7,"x_max":724,"o":"m 713 -68 q 599 -257 713 -181 q 322 -333 485 -333 q 97 -278 186 -333 q 7 -133 7 -222 q 29 -40 7 -86 l 107 -18 l 113 -18 q 90 -122 90 -76 q 152 -260 90 -210 q 322 -311 214 -311 q 543 -259 460 -311 q 626 -121 626 -207 q 444 4 626 -7 l 226 18 q 64 132 64 26 q 163 260 64 201 l 190 276 q 50 497 50 346 q 135 681 50 608 q 347 754 221 754 q 538 699 461 754 q 724 799 608 799 l 711 688 q 631 703 661 703 q 556 685 582 703 q 640 499 640 615 q 555 315 640 388 q 343 243 469 243 q 214 267 276 243 l 183 246 q 143 183 143 218 q 240 129 143 135 l 469 115 q 713 -68 713 100 m 175 499 q 222 330 175 394 q 346 265 268 265 q 470 328 425 265 q 515 497 515 392 q 469 667 515 603 q 344 732 422 732 q 221 668 267 732 q 175 499 175 604 m 131 1064 l 143 1068 q 222 972 168 1008 q 346 936 276 936 q 471 972 417 936 q 550 1068 525 1008 l 563 1064 q 346 858 507 858 q 131 1064 186 858 z "},"Ġ":{"ha":1046,"x_min":50,"x_max":988,"o":"m 610 458 l 988 458 l 988 110 q 593 -17 815 -17 q 200 122 347 -17 q 53 499 53 260 q 203 881 50 732 q 585 1028 357 1031 q 801 984 700 1028 q 965 865 901 940 l 896 803 q 756 952 839 899 q 572 1006 672 1006 q 308 870 407 1006 q 208 508 208 735 q 316 147 206 289 q 600 8 426 6 q 857 92 753 8 l 857 433 l 625 433 l 610 458 m 574 1126 l 475 1224 l 574 1322 l 672 1224 l 574 1126 z "},"ġ":{"ha":735,"x_min":7,"x_max":724,"o":"m 713 -68 q 599 -257 713 -181 q 322 -333 485 -333 q 97 -278 186 -333 q 7 -133 7 -222 q 29 -40 7 -86 l 107 -18 l 113 -18 q 90 -122 90 -76 q 152 -260 90 -210 q 322 -311 214 -311 q 543 -259 460 -311 q 626 -121 626 -207 q 444 4 626 -7 l 226 18 q 64 132 64 26 q 163 260 64 201 l 190 276 q 50 497 50 346 q 135 681 50 608 q 347 754 221 754 q 538 699 461 754 q 724 799 608 799 l 711 688 q 631 703 661 703 q 556 685 582 703 q 640 499 640 615 q 555 315 640 388 q 343 243 469 243 q 214 267 276 243 l 183 246 q 143 183 143 218 q 240 129 143 135 l 469 115 q 713 -68 713 100 m 175 499 q 222 330 175 394 q 346 265 268 265 q 470 328 425 265 q 515 497 515 392 q 469 667 515 603 q 344 732 422 732 q 221 668 267 732 q 175 499 175 604 m 346 860 l 251 954 l 346 1049 l 440 954 l 346 860 z "},"Ģ":{"ha":1046,"x_min":50,"x_max":988,"o":"m 610 458 l 988 458 l 988 110 q 593 -17 815 -17 q 200 122 347 -17 q 53 499 53 260 q 203 881 50 732 q 585 1028 357 1031 q 801 984 700 1028 q 965 865 901 940 l 896 803 q 756 952 839 899 q 572 1006 672 1006 q 308 870 407 1006 q 208 508 208 735 q 316 147 206 289 q 600 8 426 6 q 857 92 753 8 l 857 433 l 625 433 l 610 458 m 549 -383 l 542 -375 q 618 -261 618 -329 q 526 -142 618 -189 l 593 -68 q 667 -124 640 -87 q 693 -204 693 -160 q 653 -305 693 -257 q 549 -383 613 -353 z "},"ģ":{"ha":735,"x_min":7,"x_max":724,"o":"m 713 -68 q 599 -257 713 -181 q 322 -333 485 -333 q 97 -278 186 -333 q 7 -133 7 -222 q 29 -40 7 -86 l 107 -18 l 113 -18 q 90 -122 90 -76 q 152 -260 90 -210 q 322 -311 214 -311 q 543 -259 460 -311 q 626 -121 626 -207 q 444 4 626 -7 l 226 18 q 64 132 64 26 q 163 260 64 201 l 190 276 q 50 497 50 346 q 135 681 50 608 q 347 754 221 754 q 538 699 461 754 q 724 799 608 799 l 711 688 q 631 703 661 703 q 556 685 582 703 q 640 499 640 615 q 555 315 640 388 q 343 243 469 243 q 214 267 276 243 l 183 246 q 143 183 143 218 q 240 129 143 135 l 469 115 q 713 -68 713 100 m 175 499 q 222 330 175 394 q 346 265 268 265 q 470 328 425 265 q 515 497 515 392 q 469 667 515 603 q 344 732 422 732 q 221 668 267 732 q 175 499 175 604 m 271 968 q 306 1054 271 1014 q 400 1122 342 1094 l 407 1115 q 339 1017 339 1078 q 419 914 339 953 l 360 849 q 271 968 271 885 z "},"Ĥ":{"ha":978,"x_min":100,"x_max":878,"o":"m 736 1011 l 878 1011 l 878 0 l 736 0 l 736 514 l 242 514 l 242 0 l 100 0 l 100 1011 l 242 1011 l 242 539 l 736 539 l 736 1011 m 722 1114 l 714 1107 l 489 1235 l 264 1107 l 256 1114 l 485 1343 l 493 1343 l 722 1114 z "},"ĥ":{"ha":794,"x_min":-75,"x_max":718,"o":"m 718 492 l 718 0 l 588 0 l 588 494 q 558 639 588 575 q 425 704 529 704 q 211 606 314 704 l 211 0 l 81 0 l 81 1083 l 206 1125 l 211 1125 l 211 632 q 482 754 335 754 q 718 492 718 754 m 392 1114 l 383 1107 l 158 1235 l -67 1107 l -75 1114 l 154 1343 l 163 1343 l 392 1114 z "},"Ħ":{"ha":985,"x_min":18,"x_max":968,"o":"m 968 803 l 968 783 l 882 783 l 882 0 l 740 0 l 740 514 l 246 514 l 246 0 l 104 0 l 104 783 l 18 783 l 18 803 l 104 803 l 104 1011 l 246 1011 l 246 803 l 740 803 l 740 1011 l 882 1011 l 882 803 l 968 803 m 740 539 l 740 783 l 246 783 l 246 539 l 740 539 z "},"ħ":{"ha":794,"x_min":-6,"x_max":718,"o":"m 718 492 l 718 0 l 588 0 l 588 494 q 558 639 588 575 q 425 704 529 704 q 211 606 314 704 l 211 0 l 81 0 l 81 919 l -6 919 l -6 939 l 81 939 l 81 1083 l 206 1125 l 211 1125 l 211 939 l 421 939 l 421 919 l 211 919 l 211 632 q 482 754 335 754 q 718 492 718 754 z "},"Ĩ":{"ha":342,"x_min":-71,"x_max":414,"o":"m 100 0 l 100 1011 l 242 1011 l 242 0 l 100 0 m -58 1124 l -71 1128 q 50 1282 -51 1282 q 199 1238 94 1282 q 317 1201 290 1201 q 400 1282 378 1201 l 414 1279 q 292 1124 392 1124 q 146 1167 249 1124 q 26 1204 65 1204 q -58 1124 -36 1204 z "},"ĩ":{"ha":299,"x_min":-85,"x_max":382,"o":"m 83 0 l 83 715 l 208 753 l 214 753 l 214 0 l 83 0 m -71 858 l -85 861 q 38 1017 -62 1017 q 176 972 88 1017 q 285 936 260 936 q 369 1017 347 936 l 382 1014 q 260 858 363 858 q 122 903 214 858 q 14 939 39 939 q -71 858 -49 939 z "},"Ī":{"ha":342,"x_min":-46,"x_max":389,"o":"m 100 0 l 100 1011 l 242 1011 l 242 0 l 100 0 m -46 1144 l -46 1189 l 389 1189 l 389 1144 l -46 1144 z "},"ī":{"ha":299,"x_min":-42,"x_max":340,"o":"m 83 0 l 83 715 l 208 753 l 214 753 l 214 0 l 83 0 m -42 908 l -42 953 l 340 953 l 340 908 l -42 908 z "},"Ĭ":{"ha":342,"x_min":-54,"x_max":397,"o":"m 100 0 l 100 1011 l 242 1011 l 242 0 l 100 0 m -54 1329 l -42 1333 q 42 1238 -17 1275 q 171 1201 100 1201 q 301 1238 243 1201 q 385 1333 360 1275 l 397 1329 q 171 1124 340 1124 q -54 1329 3 1124 z "},"ĭ":{"ha":299,"x_min":-67,"x_max":365,"o":"m 83 0 l 83 715 l 208 753 l 214 753 l 214 0 l 83 0 m -67 1064 l -54 1068 q 25 972 -29 1008 q 149 936 79 936 q 274 972 219 936 q 353 1068 328 1008 l 365 1064 q 149 858 310 858 q -67 1064 -11 858 z "},"Į":{"ha":342,"x_min":10,"x_max":278,"o":"m 274 -242 l 278 -249 q 124 -308 208 -308 q 42 -281 74 -308 q 10 -207 10 -253 q 50 -108 10 -154 q 179 0 90 -61 l 100 0 l 100 1011 l 242 1011 l 242 0 l 200 0 q 107 -176 107 -100 q 129 -240 107 -217 q 188 -262 151 -262 q 274 -242 222 -262 z "},"į":{"ha":299,"x_min":-14,"x_max":254,"o":"m 243 964 l 149 869 l 54 964 l 149 1058 l 243 964 m 250 -242 l 254 -249 q 100 -308 188 -308 q 18 -281 50 -308 q -14 -207 -14 -253 q 26 -108 -14 -154 q 157 0 67 -61 l 83 0 l 83 715 l 208 753 l 214 753 l 214 0 l 178 0 q 83 -176 83 -99 q 106 -240 83 -217 q 164 -262 128 -262 q 250 -242 200 -262 z "},"İ":{"ha":342,"x_min":72,"x_max":269,"o":"m 100 0 l 100 1011 l 242 1011 l 242 0 l 100 0 m 171 1126 l 72 1224 l 171 1322 l 269 1224 l 171 1126 z "},"ı":{"ha":299,"x_min":83,"x_max":214,"o":"m 83 0 l 83 715 l 208 753 l 214 753 l 214 0 l 83 0 z "},"Ĳ":{"ha":663,"x_min":100,"x_max":567,"o":"m 100 0 l 100 1011 l 242 1011 l 242 0 l 100 0 m 228 -208 l 218 -192 q 353 -71 310 -133 q 411 79 397 -6 q 425 306 425 161 l 425 1011 l 567 1011 l 567 317 q 526 57 567 157 q 418 -96 488 -39 q 228 -208 350 -151 z "},"ĳ":{"ha":588,"x_min":54,"x_max":532,"o":"m 149 869 l 54 964 l 149 1058 l 243 964 l 149 869 m 83 0 l 83 715 l 208 753 l 214 753 l 214 0 l 83 0 m 438 869 l 343 964 l 438 1058 l 532 964 l 438 869 m 203 -317 l 197 -300 q 326 -208 279 -282 q 372 -24 372 -135 l 372 715 l 499 753 l 504 753 l 504 -14 q 417 -219 504 -142 q 203 -317 331 -297 z "},"Ĵ":{"ha":346,"x_min":-97,"x_max":414,"o":"m -87 -208 l -97 -192 q 38 -71 -6 -133 q 96 79 81 -6 q 110 306 110 161 l 110 1011 l 251 1011 l 251 317 q 211 57 251 157 q 103 -96 172 -39 q -87 -208 35 -151 m 414 1114 l 406 1107 l 181 1235 l -44 1107 l -53 1114 l 176 1343 l 185 1343 l 414 1114 z "},"ĵ":{"ha":306,"x_min":-85,"x_max":369,"o":"m -79 -317 l -85 -300 q 44 -208 -3 -282 q 90 -24 90 -135 l 90 715 l 217 753 l 222 753 l 222 -14 q 135 -219 222 -142 q -79 -317 49 -297 m 369 849 l 361 842 l 156 981 l -50 842 l -58 849 l 151 1090 l 160 1090 l 369 849 z "},"Ķ":{"ha":885,"x_min":100,"x_max":863,"o":"m 100 0 l 100 1011 l 242 1011 l 242 0 l 100 0 m 503 686 l 403 590 l 863 149 l 863 -31 l 854 -31 l 286 518 l 485 707 q 751 1011 686 897 l 863 1011 l 863 1008 q 503 686 697 871 m 403 -383 l 396 -375 q 472 -261 472 -329 q 381 -142 472 -189 l 447 -68 q 521 -124 494 -87 q 547 -204 547 -160 q 507 -305 547 -257 q 403 -383 467 -353 z "},"ķ":{"ha":713,"x_min":81,"x_max":694,"o":"m 81 1083 l 206 1125 l 211 1125 l 211 0 l 81 0 l 81 1083 m 360 479 l 694 146 l 694 -31 l 688 -31 l 247 417 l 369 522 q 507 646 451 593 q 594 738 556 692 l 690 738 l 690 735 q 385 501 532 631 l 360 479 m 307 -383 l 300 -375 q 376 -261 376 -329 q 285 -142 376 -189 l 351 -68 q 425 -124 399 -87 q 451 -204 451 -160 q 411 -305 451 -257 q 307 -383 371 -353 z "},"ĸ":{"ha":713,"x_min":79,"x_max":693,"o":"m 79 715 l 206 753 l 211 753 l 211 0 l 79 0 l 79 715 m 358 479 l 693 146 l 693 -31 l 688 -31 l 246 417 l 368 522 q 506 646 450 593 q 593 738 553 692 l 689 738 l 689 735 q 383 501 535 635 l 358 479 z "},"Ĺ":{"ha":625,"x_min":100,"x_max":610,"o":"m 607 104 l 610 104 l 583 0 l 100 0 l 100 1011 l 242 1011 l 242 25 l 268 25 q 607 104 428 25 m 150 1107 l 140 1114 l 238 1343 l 401 1343 l 150 1107 z "},"ĺ":{"ha":299,"x_min":83,"x_max":379,"o":"m 83 0 l 83 1083 l 210 1125 l 215 1125 l 215 0 l 83 0 m 128 1107 l 118 1114 l 215 1343 l 379 1343 l 128 1107 z "},"Ļ":{"ha":625,"x_min":100,"x_max":610,"o":"m 607 104 l 610 104 l 583 0 l 100 0 l 100 1011 l 242 1011 l 242 25 l 268 25 q 607 104 428 25 m 299 -383 l 292 -375 q 368 -261 368 -329 q 276 -142 368 -189 l 343 -68 q 417 -124 390 -87 q 443 -204 443 -160 q 403 -305 443 -257 q 299 -383 363 -353 z "},"ļ":{"ha":299,"x_min":74,"x_max":240,"o":"m 83 0 l 83 1083 l 210 1125 l 215 1125 l 215 0 l 83 0 m 96 -383 l 89 -375 q 165 -261 165 -329 q 74 -142 165 -189 l 140 -68 q 214 -124 188 -87 q 240 -204 240 -160 q 200 -305 240 -257 q 96 -383 160 -353 z "},"Ľ":{"ha":653,"x_min":100,"x_max":610,"o":"m 607 104 l 610 104 l 583 0 l 100 0 l 100 1011 l 242 1011 l 242 25 l 268 25 q 607 104 428 25 m 472 763 l 467 769 q 533 868 533 808 q 453 971 533 932 l 513 1036 q 603 917 603 1000 q 567 831 603 872 q 472 763 531 790 z "},"ľ":{"ha":329,"x_min":83,"x_max":439,"o":"m 83 0 l 83 1083 l 210 1125 l 215 1125 l 215 0 l 83 0 m 308 867 l 303 874 q 369 972 369 913 q 289 1075 369 1036 l 349 1140 q 439 1021 439 1104 q 403 935 439 976 q 308 867 367 894 z "},"Ŀ":{"ha":653,"x_min":100,"x_max":611,"o":"m 607 104 l 610 104 l 583 0 l 100 0 l 100 1011 l 242 1011 l 242 25 l 268 25 q 607 104 428 25 m 513 474 l 414 571 l 513 669 l 611 571 l 513 474 z "},"ŀ":{"ha":482,"x_min":83,"x_max":486,"o":"m 83 0 l 83 1083 l 210 1125 l 215 1125 l 215 0 l 83 0 m 388 446 l 289 543 l 388 642 l 486 543 l 388 446 z "},"Ł":{"ha":644,"x_min":29,"x_max":626,"o":"m 624 104 l 626 104 l 599 0 l 115 0 l 115 415 l 39 371 l 29 388 l 115 438 l 115 1011 l 257 1011 l 257 518 l 493 654 l 503 638 l 257 496 l 257 25 l 285 25 q 624 104 444 25 z "},"ł":{"ha":346,"x_min":21,"x_max":324,"o":"m 324 601 l 238 551 l 238 0 l 107 0 l 107 476 l 31 432 l 21 449 l 107 499 l 107 1083 l 232 1125 l 238 1125 l 238 574 l 314 618 l 324 601 z "},"Ń":{"ha":907,"x_min":50,"x_max":829,"o":"m 746 1011 l 829 1011 q 801 569 801 836 l 801 -17 l 789 -17 l 146 874 l 146 442 q 174 0 146 163 l 90 0 q 118 442 118 175 l 118 913 l 50 1007 l 50 1011 l 218 1011 l 774 228 l 774 569 q 746 1011 774 849 m 426 1107 l 417 1114 l 514 1343 l 678 1343 l 426 1107 z "},"ń":{"ha":793,"x_min":79,"x_max":718,"o":"m 718 492 l 718 0 l 586 0 l 586 494 q 557 639 586 575 q 424 704 528 704 q 211 606 313 704 l 211 0 l 79 0 l 79 715 l 206 753 l 211 753 l 211 633 q 481 754 339 754 q 718 492 718 754 m 383 842 l 374 849 l 475 1090 l 621 1090 l 383 842 z "},"Ņ":{"ha":907,"x_min":50,"x_max":829,"o":"m 746 1011 l 829 1011 q 801 569 801 836 l 801 -17 l 789 -17 l 146 874 l 146 442 q 174 0 146 163 l 90 0 q 118 442 118 175 l 118 913 l 50 1007 l 50 1011 l 218 1011 l 774 228 l 774 569 q 746 1011 774 849 m 394 -383 l 388 -375 q 464 -261 464 -329 q 372 -142 464 -189 l 439 -68 q 513 -124 486 -87 q 539 -204 539 -160 q 499 -305 539 -257 q 394 -383 458 -353 z "},"ņ":{"ha":793,"x_min":79,"x_max":718,"o":"m 718 492 l 718 0 l 586 0 l 586 494 q 557 639 586 575 q 424 704 528 704 q 211 606 313 704 l 211 0 l 79 0 l 79 715 l 206 753 l 211 753 l 211 633 q 481 754 339 754 q 718 492 718 754 m 344 -383 l 338 -375 q 414 -261 414 -329 q 322 -142 414 -189 l 389 -68 q 463 -124 436 -87 q 489 -204 489 -160 q 449 -305 489 -257 q 344 -383 408 -353 z "},"Ň":{"ha":907,"x_min":50,"x_max":829,"o":"m 746 1011 l 829 1011 q 801 569 801 836 l 801 -17 l 789 -17 l 146 874 l 146 442 q 174 0 146 163 l 90 0 q 118 442 118 175 l 118 913 l 50 1007 l 50 1011 l 218 1011 l 774 228 l 774 569 q 746 1011 774 849 m 674 1343 l 682 1336 l 453 1107 l 444 1107 l 215 1336 l 224 1343 l 449 1215 l 674 1343 z "},"ň":{"ha":793,"x_min":79,"x_max":718,"o":"m 718 492 l 718 0 l 586 0 l 586 494 q 557 639 586 575 q 424 704 528 704 q 211 606 313 704 l 211 0 l 79 0 l 79 715 l 206 753 l 211 753 l 211 633 q 481 754 339 754 q 718 492 718 754 m 610 1090 l 618 1083 l 408 842 l 400 842 l 190 1083 l 199 1090 l 404 951 l 610 1090 z "},"ŉ":{"ha":829,"x_min":-61,"x_max":754,"o":"m -36 689 l -43 699 q 39 824 39 749 q -61 965 39 903 l 11 1056 q 99 991 67 1033 q 131 896 131 949 q 85 780 131 835 q -36 689 39 725 m 754 492 l 754 0 l 622 0 l 622 494 q 593 639 622 575 q 460 704 564 704 q 247 606 349 704 l 247 0 l 115 0 l 115 715 l 242 753 l 247 753 l 247 633 q 517 754 375 754 q 754 492 754 754 z "},"Ŋ":{"ha":907,"x_min":50,"x_max":829,"o":"m 746 1011 l 829 1011 q 801 569 801 836 l 801 -49 q 751 -231 801 -162 q 604 -317 700 -300 l 599 -300 q 728 -221 683 -285 q 774 -49 774 -157 l 774 4 l 146 874 l 146 442 q 174 0 146 163 l 90 0 q 118 442 118 175 l 118 913 l 50 1007 l 50 1011 l 218 1011 l 774 228 l 774 569 q 746 1011 774 849 z "},"ŋ":{"ha":793,"x_min":79,"x_max":718,"o":"m 718 492 l 718 -14 q 631 -219 718 -142 q 415 -317 544 -297 l 411 -299 q 540 -208 493 -282 q 586 -24 586 -135 l 586 494 q 557 639 586 575 q 424 704 528 704 q 211 606 313 704 l 211 0 l 79 0 l 79 715 l 206 753 l 211 753 l 211 633 q 481 754 339 754 q 718 492 718 754 z "},"Ō":{"ha":1154,"x_min":49,"x_max":1106,"o":"m 51 496 q 203 880 49 729 q 586 1028 358 1031 q 956 887 810 1028 q 1103 515 1103 746 q 951 131 1106 282 q 568 -17 796 -19 q 198 124 344 -17 q 51 496 51 265 m 947 500 q 843 865 947 725 q 575 1006 739 1006 q 308 869 408 1006 q 207 511 207 733 q 312 146 207 286 q 583 6 417 6 q 847 142 747 6 q 947 500 947 278 m 361 1144 l 361 1189 l 796 1189 l 796 1144 l 361 1144 z "},"ō":{"ha":829,"x_min":42,"x_max":788,"o":"m 42 364 q 149 646 42 538 q 421 754 257 754 q 685 649 582 754 q 788 372 788 544 q 680 92 788 200 q 408 -17 572 -17 q 144 88 247 -17 q 42 364 42 192 m 646 364 q 581 632 646 529 q 413 735 515 735 q 246 635 308 735 q 183 372 183 535 q 249 105 183 207 q 417 3 314 3 q 583 101 521 3 q 646 364 646 200 m 225 908 l 225 953 l 607 953 l 607 908 l 225 908 z "},"Ŏ":{"ha":1154,"x_min":49,"x_max":1106,"o":"m 51 496 q 203 880 49 729 q 586 1028 358 1031 q 956 887 810 1028 q 1103 515 1103 746 q 951 131 1106 282 q 568 -17 796 -19 q 198 124 344 -17 q 51 496 51 265 m 947 500 q 843 865 947 725 q 575 1006 739 1006 q 308 869 408 1006 q 207 511 207 733 q 312 146 207 286 q 583 6 417 6 q 847 142 747 6 q 947 500 947 278 m 353 1329 l 365 1333 q 449 1238 390 1275 q 578 1201 507 1201 q 708 1238 650 1201 q 792 1333 767 1275 l 804 1329 q 578 1124 747 1124 q 353 1329 410 1124 z "},"ŏ":{"ha":829,"x_min":42,"x_max":788,"o":"m 42 364 q 149 646 42 538 q 421 754 257 754 q 685 649 582 754 q 788 372 788 544 q 680 92 788 200 q 408 -17 572 -17 q 144 88 247 -17 q 42 364 42 192 m 646 364 q 581 632 646 529 q 413 735 515 735 q 246 635 308 735 q 183 372 183 535 q 249 105 183 207 q 417 3 314 3 q 583 101 521 3 q 646 364 646 200 m 200 1064 l 213 1068 q 292 972 238 1008 q 415 936 346 936 q 540 972 486 936 q 619 1068 594 1008 l 632 1064 q 415 858 576 858 q 200 1064 256 858 z "},"Ő":{"ha":1154,"x_min":49,"x_max":1106,"o":"m 51 496 q 203 880 49 729 q 586 1028 358 1031 q 956 887 810 1028 q 1103 515 1103 746 q 951 131 1106 282 q 568 -17 796 -19 q 198 124 344 -17 q 51 496 51 265 m 947 500 q 843 865 947 725 q 575 1006 739 1006 q 308 869 408 1006 q 207 511 207 733 q 312 146 207 286 q 583 6 417 6 q 847 142 747 6 q 947 500 947 278 m 464 1107 l 454 1114 l 554 1343 l 694 1343 l 464 1107 m 653 1107 l 643 1114 l 744 1343 l 883 1343 l 653 1107 z "},"ő":{"ha":829,"x_min":42,"x_max":788,"o":"m 42 364 q 149 646 42 538 q 421 754 257 754 q 685 649 582 754 q 788 372 788 544 q 680 92 788 200 q 408 -17 572 -17 q 144 88 247 -17 q 42 364 42 192 m 646 364 q 581 632 646 529 q 413 735 515 735 q 246 635 308 735 q 183 372 183 535 q 249 105 183 207 q 417 3 314 3 q 583 101 521 3 q 646 364 646 200 m 300 842 l 290 849 l 393 1090 l 524 1090 l 300 842 m 490 842 l 481 849 l 583 1090 l 714 1090 l 490 842 z "},"Œ":{"ha":1450,"x_min":53,"x_max":1426,"o":"m 1424 93 l 1426 93 l 1400 0 l 589 0 q 198 131 343 0 q 53 494 53 261 q 203 874 53 738 q 613 1011 353 1011 l 1382 1011 l 1400 924 l 1397 924 q 1019 986 1213 986 l 943 986 l 943 539 l 1007 539 q 1299 567 1228 539 l 1301 567 l 1301 481 l 1299 481 q 1007 514 1221 514 l 943 514 l 943 25 l 1022 25 q 1424 93 1236 25 m 601 22 q 801 35 747 22 l 801 976 q 589 989 744 989 q 308 862 407 989 q 208 501 208 735 q 316 154 208 286 q 601 22 424 22 z "},"œ":{"ha":1356,"x_min":42,"x_max":1322,"o":"m 1319 421 l 786 421 l 786 396 q 859 137 786 231 q 1049 43 932 43 q 1184 78 1118 43 q 1294 176 1250 113 l 1311 167 q 992 -17 1192 -17 q 711 138 804 -17 q 408 -17 610 -17 q 144 88 247 -17 q 42 364 42 192 q 149 646 42 538 q 421 754 257 754 q 719 596 624 754 q 845 713 767 671 q 1019 754 924 754 q 1243 664 1164 754 q 1319 421 1322 574 m 646 364 q 581 632 646 529 q 413 735 515 735 q 246 635 308 735 q 183 372 183 535 q 249 105 183 207 q 417 3 314 3 q 583 101 521 3 q 646 364 646 200 m 788 443 l 1193 443 q 1148 653 1199 574 q 1008 733 1097 733 q 858 653 918 733 q 788 443 799 574 z "},"Ŕ":{"ha":856,"x_min":100,"x_max":826,"o":"m 515 492 l 826 146 l 826 -31 l 818 -31 l 407 428 q 376 451 390 444 q 335 457 363 457 l 242 457 l 242 0 l 100 0 l 100 1011 l 349 1011 q 758 756 758 1011 q 515 492 758 576 m 615 746 q 545 925 615 861 q 343 989 475 989 l 242 989 l 242 488 q 369 479 285 479 q 547 556 478 479 q 615 746 615 633 m 360 1107 l 350 1114 l 447 1343 l 611 1343 l 360 1107 z "},"ŕ":{"ha":503,"x_min":79,"x_max":500,"o":"m 500 743 l 461 640 q 385 657 424 657 q 284 622 331 657 q 211 529 238 588 l 211 0 l 79 0 l 79 715 l 203 753 l 208 753 l 208 569 q 306 704 247 657 q 435 751 364 751 q 500 743 467 751 m 235 842 l 225 849 l 326 1090 l 472 1090 l 235 842 z "},"Ŗ":{"ha":856,"x_min":100,"x_max":826,"o":"m 515 492 l 826 146 l 826 -31 l 818 -31 l 407 428 q 376 451 390 444 q 335 457 363 457 l 242 457 l 242 0 l 100 0 l 100 1011 l 349 1011 q 758 756 758 1011 q 515 492 758 576 m 615 746 q 545 925 615 861 q 343 989 475 989 l 242 989 l 242 488 q 369 479 285 479 q 547 556 478 479 q 615 746 615 633 m 382 -383 l 375 -375 q 451 -261 451 -329 q 360 -142 451 -189 l 426 -68 q 500 -124 474 -87 q 526 -204 526 -160 q 486 -305 526 -257 q 382 -383 446 -353 z "},"ŗ":{"ha":503,"x_min":68,"x_max":500,"o":"m 500 743 l 461 640 q 385 657 424 657 q 284 622 331 657 q 211 529 238 588 l 211 0 l 79 0 l 79 715 l 203 753 l 208 753 l 208 569 q 306 704 247 657 q 435 751 364 751 q 500 743 467 751 m 90 -383 l 83 -375 q 160 -261 160 -329 q 68 -142 160 -189 l 135 -68 q 208 -124 182 -87 q 235 -204 235 -160 q 194 -305 235 -257 q 90 -383 154 -353 z "},"Ř":{"ha":856,"x_min":100,"x_max":826,"o":"m 515 492 l 826 146 l 826 -31 l 818 -31 l 407 428 q 376 451 390 444 q 335 457 363 457 l 242 457 l 242 0 l 100 0 l 100 1011 l 349 1011 q 758 756 758 1011 q 515 492 758 576 m 615 746 q 545 925 615 861 q 343 989 475 989 l 242 989 l 242 488 q 369 479 285 479 q 547 556 478 479 q 615 746 615 633 m 606 1343 l 614 1336 l 385 1107 l 376 1107 l 147 1336 l 156 1343 l 381 1215 l 606 1343 z "},"ř":{"ha":503,"x_min":42,"x_max":500,"o":"m 500 743 l 461 640 q 385 657 424 657 q 284 622 331 657 q 211 529 238 588 l 211 0 l 79 0 l 79 715 l 203 753 l 208 753 l 208 569 q 306 704 247 657 q 435 751 364 751 q 500 743 467 751 m 461 1090 l 469 1083 l 260 842 l 251 842 l 42 1083 l 50 1090 l 256 951 l 461 1090 z "},"Ś":{"ha":750,"x_min":46,"x_max":708,"o":"m 46 57 l 71 144 q 208 44 121 83 q 382 6 296 6 q 544 61 483 6 q 608 203 608 117 q 552 340 604 292 q 386 443 500 389 l 317 474 q 190 540 239 510 q 61 761 61 624 q 150 952 61 876 q 381 1028 239 1028 q 664 954 538 1028 l 642 876 q 365 1006 515 1006 q 218 956 274 1006 q 163 828 163 906 q 215 703 167 747 q 379 604 264 658 l 449 572 q 583 499 542 526 q 708 275 708 421 q 613 65 708 146 q 369 -17 517 -17 q 192 6 282 -17 q 46 57 103 28 m 357 1107 l 347 1114 l 444 1343 l 608 1343 l 357 1107 z "},"ś":{"ha":607,"x_min":32,"x_max":578,"o":"m 32 50 l 53 121 q 308 3 154 3 q 440 42 390 3 q 489 144 489 82 q 448 235 485 204 q 317 306 411 265 l 260 329 q 151 381 208 350 q 46 551 46 444 q 117 697 46 640 q 304 754 189 754 q 544 696 443 754 l 525 631 q 292 735 421 735 q 177 699 219 735 q 135 608 135 664 q 160 539 135 568 q 210 497 183 513 q 308 453 238 482 l 364 429 q 469 379 424 406 q 578 203 578 315 q 501 44 578 106 q 294 -17 425 -17 q 151 1 224 -17 q 32 50 78 19 m 276 842 l 267 849 l 368 1090 l 514 1090 l 276 842 z "},"Ŝ":{"ha":750,"x_min":46,"x_max":708,"o":"m 46 57 l 71 144 q 208 44 121 83 q 382 6 296 6 q 544 61 483 6 q 608 203 608 117 q 552 340 604 292 q 386 443 500 389 l 317 474 q 190 540 239 510 q 61 761 61 624 q 150 952 61 876 q 381 1028 239 1028 q 664 954 538 1028 l 642 876 q 365 1006 515 1006 q 218 956 274 1006 q 163 828 163 906 q 215 703 167 747 q 379 604 264 658 l 449 572 q 583 499 542 526 q 708 275 708 421 q 613 65 708 146 q 369 -17 517 -17 q 192 6 282 -17 q 46 57 103 28 m 611 1114 l 603 1107 l 378 1235 l 153 1107 l 144 1114 l 374 1343 l 382 1343 l 611 1114 z "},"ŝ":{"ha":607,"x_min":32,"x_max":578,"o":"m 32 50 l 53 121 q 308 3 154 3 q 440 42 390 3 q 489 144 489 82 q 448 235 485 204 q 317 306 411 265 l 260 329 q 151 381 208 350 q 46 551 46 444 q 117 697 46 640 q 304 754 189 754 q 544 696 443 754 l 525 631 q 292 735 421 735 q 177 699 219 735 q 135 608 135 664 q 160 539 135 568 q 210 497 183 513 q 308 453 238 482 l 364 429 q 469 379 424 406 q 578 203 578 315 q 501 44 578 106 q 294 -17 425 -17 q 151 1 224 -17 q 32 50 78 19 m 511 849 l 503 842 l 297 981 l 92 842 l 83 849 l 293 1090 l 301 1090 l 511 849 z "},"Ş":{"ha":750,"x_min":46,"x_max":708,"o":"m 388 -17 l 363 -71 q 479 -109 436 -76 q 522 -189 522 -142 q 478 -275 522 -242 q 364 -308 433 -308 q 250 -283 294 -308 l 254 -271 q 342 -283 289 -283 q 415 -263 388 -283 q 443 -212 443 -243 q 415 -164 443 -183 q 338 -144 386 -144 l 303 -144 l 360 -17 q 188 7 271 -14 q 46 57 97 31 l 71 144 q 208 44 121 83 q 382 6 296 6 q 544 61 483 6 q 608 203 608 117 q 552 340 604 292 q 386 443 500 389 l 317 474 q 190 540 239 510 q 61 761 61 624 q 150 952 61 876 q 381 1028 239 1028 q 664 954 538 1028 l 642 876 q 365 1006 515 1006 q 218 956 274 1006 q 163 828 163 906 q 215 703 167 747 q 379 604 264 658 l 449 572 q 583 499 542 526 q 708 275 708 421 q 618 69 708 151 q 388 -17 528 -12 z "},"ş":{"ha":607,"x_min":32,"x_max":578,"o":"m 311 -17 l 285 -71 q 401 -109 358 -76 q 444 -189 444 -142 q 401 -275 444 -242 q 288 -308 357 -308 q 172 -283 217 -308 l 176 -271 q 264 -283 211 -283 q 338 -263 310 -283 q 365 -212 365 -243 q 337 -163 365 -182 q 260 -144 308 -144 l 225 -144 l 283 -17 q 32 50 124 -10 l 53 121 q 308 3 154 3 q 440 42 390 3 q 489 144 489 82 q 448 235 485 204 q 317 306 411 265 l 260 329 q 151 381 208 350 q 46 551 46 444 q 117 697 46 640 q 304 754 189 754 q 544 696 443 754 l 525 631 q 292 735 421 735 q 177 699 219 735 q 135 608 135 664 q 160 539 135 568 q 210 497 183 513 q 308 453 238 482 l 364 429 q 469 379 424 406 q 578 203 578 315 q 506 48 578 108 q 311 -17 433 -12 z "},"Š":{"ha":750,"x_min":46,"x_max":708,"o":"m 46 57 l 71 144 q 208 44 121 83 q 382 6 296 6 q 544 61 483 6 q 608 203 608 117 q 552 340 604 292 q 386 443 500 389 l 317 474 q 190 540 239 510 q 61 761 61 624 q 150 952 61 876 q 381 1028 239 1028 q 664 954 538 1028 l 642 876 q 365 1006 515 1006 q 218 956 274 1006 q 163 828 163 906 q 215 703 167 747 q 379 604 264 658 l 449 572 q 583 499 542 526 q 708 275 708 421 q 613 65 708 146 q 369 -17 517 -17 q 192 6 282 -17 q 46 57 103 28 m 603 1343 l 611 1336 l 382 1107 l 374 1107 l 144 1336 l 153 1343 l 378 1215 l 603 1343 z "},"š":{"ha":607,"x_min":32,"x_max":578,"o":"m 32 50 l 53 121 q 308 3 154 3 q 440 42 390 3 q 489 144 489 82 q 448 235 485 204 q 317 306 411 265 l 260 329 q 151 381 208 350 q 46 551 46 444 q 117 697 46 640 q 304 754 189 754 q 544 696 443 754 l 525 631 q 292 735 421 735 q 177 699 219 735 q 135 608 135 664 q 160 539 135 568 q 210 497 183 513 q 308 453 238 482 l 364 429 q 469 379 424 406 q 578 203 578 315 q 501 44 578 106 q 294 -17 425 -17 q 151 1 224 -17 q 32 50 78 19 m 503 1090 l 511 1083 l 301 842 l 293 842 l 83 1083 l 92 1090 l 297 951 l 503 1090 z "},"Ţ":{"ha":782,"x_min":13,"x_max":769,"o":"m 751 1011 l 769 913 l 767 913 q 494 986 607 986 l 463 986 l 463 0 l 321 0 l 321 986 l 288 986 q 15 913 175 986 l 13 913 l 32 1011 l 751 1011 m 540 -189 q 497 -275 540 -242 q 383 -308 453 -308 q 269 -283 313 -308 l 274 -271 q 361 -283 308 -283 q 435 -263 407 -283 q 463 -212 463 -243 q 434 -164 463 -183 q 357 -144 406 -144 l 321 -144 l 386 0 l 414 0 l 382 -71 q 498 -109 456 -76 q 540 -189 540 -142 z "},"ţ":{"ha":494,"x_min":24,"x_max":506,"o":"m 464 -189 q 419 -275 464 -242 q 306 -308 375 -308 q 192 -283 236 -308 l 196 -271 q 283 -283 231 -283 q 357 -263 329 -283 q 385 -212 385 -243 q 356 -164 385 -183 q 279 -144 328 -144 l 244 -144 l 301 -17 q 131 174 131 -11 l 131 707 l 24 707 l 24 731 l 125 738 l 257 974 l 263 974 l 263 738 l 500 738 l 482 707 l 263 707 l 263 176 q 282 75 263 121 q 375 31 303 31 q 494 65 435 31 l 506 49 q 329 -17 414 -11 l 304 -71 q 421 -109 378 -76 q 464 -189 464 -142 z "},"Ť":{"ha":782,"x_min":13,"x_max":769,"o":"m 751 1011 l 769 913 l 767 913 q 494 986 607 986 l 463 986 l 463 0 l 321 0 l 321 986 l 288 986 q 15 913 175 986 l 13 913 l 32 1011 l 751 1011 m 617 1343 l 625 1336 l 396 1107 l 388 1107 l 158 1336 l 167 1343 l 392 1215 l 617 1343 z "},"ť":{"ha":494,"x_min":24,"x_max":533,"o":"m 494 65 l 506 49 q 311 -17 407 -17 q 131 174 131 -17 l 131 707 l 24 707 l 24 731 l 125 738 l 257 974 l 263 974 l 263 738 l 500 738 l 482 707 l 263 707 l 263 176 q 282 75 263 121 q 375 31 303 31 q 494 65 435 31 m 403 800 l 397 807 q 464 906 464 846 q 383 1008 464 969 l 443 1074 q 533 954 533 1038 q 497 869 533 910 q 403 800 461 828 z "},"Ŧ":{"ha":803,"x_min":22,"x_max":781,"o":"m 504 986 l 472 986 l 472 535 l 650 535 l 650 515 l 472 515 l 472 0 l 331 0 l 331 515 l 153 515 l 153 535 l 331 535 l 331 986 l 299 986 q 25 913 185 986 l 22 913 l 42 1011 l 761 1011 l 781 913 l 778 913 q 504 986 618 986 z "},"ŧ":{"ha":513,"x_min":35,"x_max":517,"o":"m 506 65 l 517 49 q 322 -17 418 -17 q 142 174 142 -17 l 142 444 l 35 444 l 35 465 l 142 465 l 142 707 l 35 707 l 35 731 l 136 738 l 267 974 l 272 974 l 272 738 l 511 738 l 492 707 l 272 707 l 272 465 l 506 465 l 506 444 l 272 444 l 272 176 q 292 75 272 121 q 386 31 313 31 q 506 65 446 31 z "},"Ũ":{"ha":915,"x_min":92,"x_max":843,"o":"m 92 347 l 92 1011 l 233 1011 l 233 350 q 304 107 233 189 q 510 25 375 25 q 715 106 643 25 q 788 343 788 188 l 788 569 q 760 1011 788 849 l 843 1011 q 815 569 815 836 l 815 350 q 458 -17 815 -17 q 185 76 278 -17 q 92 347 92 169 m 243 1124 l 231 1128 q 351 1282 250 1282 q 500 1238 396 1282 q 618 1201 592 1201 q 701 1282 679 1201 l 715 1279 q 593 1124 693 1124 q 447 1167 550 1124 q 328 1204 367 1204 q 243 1124 265 1204 z "},"ũ":{"ha":790,"x_min":72,"x_max":739,"o":"m 708 126 l 739 26 l 615 -12 l 576 108 l 576 111 q 310 -17 458 -17 q 72 244 72 -17 l 72 715 l 199 753 l 204 753 l 204 242 q 233 96 204 161 q 367 32 263 32 q 474 62 418 32 q 576 143 531 92 l 576 715 l 703 753 l 708 753 l 708 126 m 172 858 l 158 861 q 281 1017 181 1017 q 419 972 331 1017 q 528 936 503 936 q 613 1017 590 936 l 625 1014 q 503 858 606 858 q 365 903 457 858 q 257 939 282 939 q 172 858 194 939 z "},"Ū":{"ha":915,"x_min":92,"x_max":843,"o":"m 92 347 l 92 1011 l 233 1011 l 233 350 q 304 107 233 189 q 510 25 375 25 q 715 106 643 25 q 788 343 788 188 l 788 569 q 760 1011 788 849 l 843 1011 q 815 569 815 836 l 815 350 q 458 -17 815 -17 q 185 76 278 -17 q 92 347 92 169 m 256 1144 l 256 1189 l 690 1189 l 690 1144 l 256 1144 z "},"ū":{"ha":790,"x_min":72,"x_max":739,"o":"m 708 126 l 739 26 l 615 -12 l 576 108 l 576 111 q 310 -17 458 -17 q 72 244 72 -17 l 72 715 l 199 753 l 204 753 l 204 242 q 233 96 204 161 q 367 32 263 32 q 474 62 418 32 q 576 143 531 92 l 576 715 l 703 753 l 708 753 l 708 126 m 201 908 l 201 953 l 583 953 l 583 908 l 201 908 z "},"Ŭ":{"ha":915,"x_min":92,"x_max":843,"o":"m 92 347 l 92 1011 l 233 1011 l 233 350 q 304 107 233 189 q 510 25 375 25 q 715 106 643 25 q 788 343 788 188 l 788 569 q 760 1011 788 849 l 843 1011 q 815 569 815 836 l 815 350 q 458 -17 815 -17 q 185 76 278 -17 q 92 347 92 169 m 247 1329 l 260 1333 q 343 1238 285 1275 q 472 1201 401 1201 q 603 1238 544 1201 q 686 1333 661 1275 l 699 1329 q 472 1124 642 1124 q 247 1329 304 1124 z "},"ŭ":{"ha":790,"x_min":72,"x_max":739,"o":"m 708 126 l 739 26 l 615 -12 l 576 108 l 576 111 q 310 -17 458 -17 q 72 244 72 -17 l 72 715 l 199 753 l 204 753 l 204 242 q 233 96 204 161 q 367 32 263 32 q 474 62 418 32 q 576 143 531 92 l 576 715 l 703 753 l 708 753 l 708 126 m 176 1064 l 189 1068 q 268 972 214 1008 q 392 936 322 936 q 517 972 463 936 q 596 1068 571 1008 l 608 1064 q 392 858 553 858 q 176 1064 232 858 z "},"Ů":{"ha":915,"x_min":92,"x_max":843,"o":"m 92 347 l 92 1011 l 233 1011 l 233 350 q 304 107 233 189 q 510 25 375 25 q 715 106 643 25 q 788 343 788 188 l 788 569 q 760 1011 788 849 l 843 1011 q 815 569 815 836 l 815 350 q 458 -17 815 -17 q 185 76 278 -17 q 92 347 92 169 m 365 1146 q 343 1165 365 1146 q 321 1246 321 1185 q 365 1346 321 1307 q 472 1385 408 1385 q 580 1346 536 1385 q 624 1246 624 1307 q 580 1146 624 1185 q 472 1107 536 1107 q 365 1146 408 1107 m 538 1158 q 549 1174 538 1158 q 561 1246 561 1190 q 538 1334 561 1301 q 472 1367 514 1367 q 407 1334 431 1367 q 383 1246 383 1301 q 407 1158 383 1190 q 472 1125 431 1125 q 538 1158 514 1125 z "},"ů":{"ha":790,"x_min":72,"x_max":739,"o":"m 708 126 l 739 26 l 615 -12 l 576 108 l 576 111 q 310 -17 458 -17 q 72 244 72 -17 l 72 715 l 199 753 l 204 753 l 204 242 q 233 96 204 161 q 367 32 263 32 q 474 62 418 32 q 576 143 531 92 l 576 715 l 703 753 l 708 753 l 708 126 m 283 881 q 262 900 283 881 q 240 981 240 919 q 284 1080 240 1042 q 392 1118 328 1118 q 499 1080 456 1118 q 543 981 543 1042 q 500 881 543 919 q 392 842 457 842 q 283 881 326 842 m 457 892 q 469 909 457 892 q 481 981 481 925 q 457 1069 481 1036 q 392 1101 433 1101 q 326 1069 350 1101 q 303 981 303 1036 q 326 892 303 925 q 392 860 350 860 q 457 892 433 860 z "},"Ű":{"ha":915,"x_min":92,"x_max":843,"o":"m 92 347 l 92 1011 l 233 1011 l 233 350 q 304 107 233 189 q 510 25 375 25 q 715 106 643 25 q 788 343 788 188 l 788 569 q 760 1011 788 849 l 843 1011 q 815 569 815 836 l 815 350 q 458 -17 815 -17 q 185 76 278 -17 q 92 347 92 169 m 358 1107 l 349 1114 l 449 1343 l 589 1343 l 358 1107 m 547 1107 l 538 1114 l 639 1343 l 778 1343 l 547 1107 z "},"ű":{"ha":790,"x_min":72,"x_max":739,"o":"m 708 126 l 739 26 l 615 -12 l 576 108 l 576 111 q 310 -17 458 -17 q 72 244 72 -17 l 72 715 l 199 753 l 204 753 l 204 242 q 233 96 204 161 q 367 32 263 32 q 474 62 418 32 q 576 143 531 92 l 576 715 l 703 753 l 708 753 l 708 126 m 276 842 l 267 849 l 369 1090 l 500 1090 l 276 842 m 467 842 l 457 849 l 560 1090 l 690 1090 l 467 842 z "},"Ų":{"ha":915,"x_min":92,"x_max":843,"o":"m 760 1011 l 843 1011 q 815 569 815 836 l 815 350 q 522 -14 815 17 q 442 -176 442 -104 q 464 -240 442 -217 q 522 -262 486 -262 q 608 -242 556 -262 l 613 -249 q 458 -308 543 -308 q 376 -281 408 -308 q 344 -207 344 -253 q 380 -114 344 -158 q 490 -15 415 -69 q 458 -17 483 -17 q 185 76 278 -17 q 92 347 92 169 l 92 1011 l 233 1011 l 233 350 q 304 107 233 189 q 510 25 375 25 q 715 106 643 25 q 788 343 788 188 l 788 569 q 760 1011 788 849 z "},"ų":{"ha":792,"x_min":72,"x_max":739,"o":"m 726 -242 l 731 -249 q 575 -308 661 -308 q 493 -281 525 -308 q 461 -207 461 -253 q 506 -102 461 -156 q 617 -8 550 -49 l 576 108 l 576 111 q 310 -17 458 -17 q 72 244 72 -17 l 72 715 l 199 753 l 204 753 l 204 242 q 233 96 204 161 q 367 32 263 32 q 474 62 418 32 q 576 143 531 92 l 576 715 l 703 753 l 708 753 l 708 126 l 739 26 l 692 8 q 595 -63 631 -12 q 560 -175 560 -114 q 583 -239 560 -215 q 640 -262 606 -262 q 726 -242 675 -262 z "},"Ŵ":{"ha":1296,"x_min":7,"x_max":1296,"o":"m 1210 1011 l 1296 1011 q 1131 568 1235 865 l 926 -22 l 921 -22 l 649 769 l 371 -22 l 365 -22 l 7 1011 l 158 1011 l 428 222 l 706 1011 l 711 1011 l 982 222 l 1104 576 q 1210 1011 1190 817 m 942 1114 l 933 1107 l 708 1235 l 483 1107 l 475 1114 l 704 1343 l 713 1343 l 942 1114 z "},"ŵ":{"ha":1044,"x_min":6,"x_max":1043,"o":"m 961 738 l 1043 738 q 869 314 976 592 l 739 -21 l 729 -21 l 526 526 l 318 -21 l 308 -21 l 6 738 l 146 738 l 367 179 l 576 738 l 585 738 l 792 183 l 846 325 q 961 738 949 592 m 775 849 l 767 842 l 561 981 l 356 842 l 347 849 l 557 1090 l 565 1090 l 775 849 z "},"Ŷ":{"ha":821,"x_min":13,"x_max":808,"o":"m 569 599 l 485 450 l 485 0 l 343 0 l 343 433 l 13 1011 l 175 1011 l 472 483 l 544 611 q 721 1011 683 853 l 808 1011 q 569 599 681 799 m 667 1114 l 658 1107 l 433 1235 l 208 1107 l 200 1114 l 429 1343 l 438 1343 l 667 1114 z "},"ŷ":{"ha":668,"x_min":1,"x_max":667,"o":"m 586 738 l 667 738 q 528 417 617 635 l 489 325 l 306 -117 q 7 -325 219 -325 l 15 -246 q 83 -256 44 -256 q 197 -220 144 -256 q 279 -115 250 -185 l 325 -4 l 1 738 l 143 738 l 393 163 l 465 335 q 586 738 571 593 m 561 849 l 553 842 l 347 981 l 142 842 l 133 849 l 343 1090 l 351 1090 l 561 849 z "},"Ÿ":{"ha":821,"x_min":13,"x_max":808,"o":"m 569 599 l 485 450 l 485 0 l 343 0 l 343 433 l 13 1011 l 175 1011 l 472 483 l 544 611 q 721 1011 683 853 l 808 1011 q 569 599 681 799 m 299 1126 l 214 1210 l 299 1293 l 381 1210 l 299 1126 m 571 1126 l 486 1210 l 571 1293 l 653 1210 l 571 1126 z "},"Ź":{"ha":760,"x_min":7,"x_max":746,"o":"m 743 93 l 746 93 l 719 0 l 7 0 l 7 6 l 568 986 l 482 986 q 38 924 190 986 l 35 924 l 51 1011 l 740 1011 l 740 1006 l 178 25 l 288 25 q 743 93 579 25 m 369 1107 l 360 1114 l 457 1343 l 621 1343 l 369 1107 z "},"ź":{"ha":603,"x_min":15,"x_max":593,"o":"m 589 60 l 593 60 l 576 0 l 15 0 l 15 6 l 429 717 l 361 717 q 28 681 169 717 l 24 681 l 36 738 l 579 738 l 579 732 l 168 21 l 240 21 q 589 60 435 21 m 288 842 l 278 849 l 379 1090 l 525 1090 l 288 842 z "},"Ż":{"ha":760,"x_min":7,"x_max":746,"o":"m 743 93 l 746 93 l 719 0 l 7 0 l 7 6 l 568 986 l 482 986 q 38 924 190 986 l 35 924 l 51 1011 l 740 1011 l 740 1006 l 178 25 l 288 25 q 743 93 579 25 m 390 1126 l 292 1224 l 390 1322 l 489 1224 l 390 1126 z "},"ż":{"ha":603,"x_min":15,"x_max":593,"o":"m 589 60 l 593 60 l 576 0 l 15 0 l 15 6 l 429 717 l 361 717 q 28 681 169 717 l 24 681 l 36 738 l 579 738 l 579 732 l 168 21 l 240 21 q 589 60 435 21 m 308 860 l 214 954 l 308 1049 l 403 954 l 308 860 z "},"Ž":{"ha":760,"x_min":7,"x_max":746,"o":"m 743 93 l 746 93 l 719 0 l 7 0 l 7 6 l 568 986 l 482 986 q 38 924 190 986 l 35 924 l 51 1011 l 740 1011 l 740 1006 l 178 25 l 288 25 q 743 93 579 25 m 615 1343 l 624 1336 l 394 1107 l 386 1107 l 157 1336 l 165 1343 l 390 1215 l 615 1343 z "},"ž":{"ha":603,"x_min":15,"x_max":593,"o":"m 589 60 l 593 60 l 576 0 l 15 0 l 15 6 l 429 717 l 361 717 q 28 681 169 717 l 24 681 l 36 738 l 579 738 l 579 732 l 168 21 l 240 21 q 589 60 435 21 m 514 1090 l 522 1083 l 313 842 l 304 842 l 94 1083 l 103 1090 l 308 951 l 514 1090 z "},"ſ":{"ha":319,"x_min":81,"x_max":536,"o":"m 81 0 l 81 868 q 143 1062 81 993 q 318 1131 206 1131 q 536 1067 431 1131 l 526 1050 q 379 1083 454 1083 q 211 875 211 1083 l 211 0 l 81 0 z "},"ƒ":{"ha":804,"x_min":21,"x_max":782,"o":"m 492 783 l 454 519 l 674 519 l 667 494 l 451 494 l 376 -39 q 165 -297 342 -297 q 21 -249 89 -297 l 29 -232 q 147 -264 85 -264 q 255 -207 215 -264 q 311 -28 294 -150 l 385 494 l 183 494 l 183 519 l 388 519 l 426 794 q 638 1053 461 1053 q 782 1004 714 1053 l 774 988 q 656 1019 718 1019 q 548 963 588 1019 q 492 783 508 906 z "},"Ǻ":{"ha":857,"x_min":-4,"x_max":856,"o":"m 651 1444 l 400 1308 l 390 1315 l 488 1444 l 651 1444 m 701 0 l 568 332 l 172 332 q 92 0 97 135 l -4 0 q 176 417 69 151 l 188 443 l 408 986 q 315 1031 350 993 q 279 1122 279 1068 q 322 1222 279 1183 q 431 1261 365 1261 q 539 1222 496 1261 q 582 1122 582 1183 q 547 1031 582 1068 q 453 986 511 993 l 856 0 l 701 0 m 365 1034 q 377 1018 365 1034 q 431 1001 389 1001 q 497 1034 472 1001 q 521 1122 521 1067 q 497 1210 521 1178 q 431 1243 472 1243 q 365 1210 389 1243 q 342 1122 342 1178 q 365 1034 342 1067 m 182 357 l 558 357 l 371 821 l 213 433 l 182 357 z "},"ǻ":{"ha":711,"x_min":24,"x_max":700,"o":"m 560 1313 l 322 1163 l 313 1169 l 414 1313 l 560 1313 m 224 881 q 202 900 224 881 q 181 981 181 919 q 224 1080 181 1042 q 332 1118 268 1118 q 441 1080 399 1118 q 483 981 483 1042 q 440 881 483 919 q 332 842 397 842 q 224 881 267 842 m 267 1069 q 255 1052 267 1069 q 243 981 243 1036 q 267 892 243 925 q 332 860 290 860 q 398 892 374 860 q 422 981 422 925 q 398 1069 422 1036 q 332 1101 374 1101 q 267 1069 290 1101 m 700 33 l 700 25 q 585 -10 644 -10 q 475 93 483 -10 q 218 -14 360 -14 q 77 33 131 -14 q 24 157 24 81 q 107 312 24 251 q 338 388 190 372 l 421 396 l 474 400 l 474 479 q 432 651 474 594 q 296 708 390 708 q 88 625 188 708 l 75 640 q 202 727 139 700 q 347 754 265 754 q 606 492 606 754 l 606 136 q 617 51 606 72 q 674 31 628 31 q 700 33 678 31 m 474 119 l 474 379 q 233 316 311 361 q 154 179 154 271 q 192 74 154 111 q 290 36 229 36 q 474 119 388 36 z "},"Ǽ":{"ha":1225,"x_min":-18,"x_max":1201,"o":"m 1199 93 l 1201 93 l 1175 0 l 576 0 l 576 364 l 225 364 q 81 0 111 151 l -18 0 l 560 1011 l 1158 1011 l 1175 924 l 1172 924 q 794 986 986 986 l 718 986 l 718 539 l 782 539 q 1074 567 1006 539 l 1076 567 l 1076 481 l 1074 481 q 782 514 1000 514 l 718 514 l 718 25 l 799 25 q 1199 93 1011 25 m 239 389 l 576 389 l 576 983 l 264 435 q 253 417 263 432 q 239 389 244 401 m 657 1107 l 647 1114 l 744 1343 l 908 1343 l 657 1107 z "},"ǽ":{"ha":1183,"x_min":26,"x_max":1150,"o":"m 1147 421 l 614 421 l 614 396 q 687 137 614 231 q 876 43 760 43 q 1012 78 946 43 q 1122 176 1078 113 l 1139 167 q 819 -17 1019 -17 q 652 24 728 -17 q 532 140 576 65 q 391 26 474 67 q 221 -14 308 -14 q 80 33 133 -14 q 26 157 26 81 q 112 324 26 254 q 342 411 197 393 l 404 419 l 482 431 l 482 479 q 440 651 482 594 q 297 708 397 708 q 79 625 186 708 l 67 640 q 202 727 138 700 q 353 754 267 754 q 579 635 529 754 q 847 754 676 754 q 1071 664 992 754 q 1147 421 1150 574 m 615 443 l 1021 443 q 976 653 1026 574 q 836 733 925 733 q 686 653 746 733 q 615 443 626 574 m 296 36 q 482 114 397 36 l 482 410 q 239 328 321 383 q 157 179 157 272 q 195 74 157 111 q 296 36 233 36 m 557 842 l 547 849 l 649 1090 l 794 1090 l 557 842 z "},"Ǿ":{"ha":1154,"x_min":49,"x_max":1106,"o":"m 1103 515 q 951 131 1106 282 q 568 -17 796 -19 q 267 68 393 -17 l 161 -71 l 139 -56 l 244 85 q 51 496 51 228 q 203 880 49 729 q 586 1028 358 1031 q 889 942 757 1028 l 994 1082 l 1017 1067 l 911 926 q 1103 515 1103 785 m 301 160 l 838 874 q 575 1006 733 1006 q 308 869 408 1006 q 207 511 207 733 q 301 160 207 297 m 947 500 q 854 850 947 711 l 318 138 q 583 6 422 6 q 847 142 747 6 q 947 500 947 278 m 556 1107 l 546 1114 l 643 1343 l 807 1343 l 556 1107 z "},"ǿ":{"ha":829,"x_min":42,"x_max":788,"o":"m 788 372 q 680 92 788 200 q 408 -17 572 -17 q 203 39 289 -17 l 126 -71 l 106 -57 l 182 54 q 42 364 42 157 q 149 646 42 538 q 421 754 257 754 q 626 697 536 754 l 703 808 l 724 793 l 647 683 q 788 372 788 578 m 235 129 l 581 632 q 413 735 518 735 q 246 635 308 735 q 183 372 183 535 q 235 129 183 224 m 646 364 q 596 607 646 508 l 249 106 q 417 3 311 3 q 583 101 521 3 q 646 364 646 200 m 394 842 l 385 849 l 486 1090 l 632 1090 l 394 842 z "},"Ș":{"ha":750,"x_min":46,"x_max":708,"o":"m 46 57 l 71 144 q 208 44 121 83 q 382 6 296 6 q 544 61 483 6 q 608 203 608 117 q 552 340 604 292 q 386 443 500 389 l 317 474 q 190 540 239 510 q 61 761 61 624 q 150 952 61 876 q 381 1028 239 1028 q 664 954 538 1028 l 642 876 q 365 1006 515 1006 q 218 956 274 1006 q 163 828 163 906 q 215 703 167 747 q 379 604 264 658 l 449 572 q 583 499 542 526 q 708 275 708 421 q 613 65 708 146 q 369 -17 517 -17 q 192 6 282 -17 q 46 57 103 28 m 318 -383 l 311 -375 q 388 -261 388 -329 q 296 -142 388 -189 l 363 -68 q 436 -124 410 -87 q 463 -204 463 -160 q 422 -305 463 -257 q 318 -383 382 -353 z "},"ș":{"ha":607,"x_min":32,"x_max":578,"o":"m 32 50 l 53 121 q 308 3 154 3 q 440 42 390 3 q 489 144 489 82 q 448 235 485 204 q 317 306 411 265 l 260 329 q 151 381 208 350 q 46 551 46 444 q 117 697 46 640 q 304 754 189 754 q 544 696 443 754 l 525 631 q 292 735 421 735 q 177 699 219 735 q 135 608 135 664 q 160 539 135 568 q 210 497 183 513 q 308 453 238 482 l 364 429 q 469 379 424 406 q 578 203 578 315 q 501 44 578 106 q 294 -17 425 -17 q 151 1 224 -17 q 32 50 78 19 m 250 -383 l 243 -375 q 319 -261 319 -329 q 228 -142 319 -189 l 294 -68 q 368 -124 342 -87 q 394 -204 394 -160 q 354 -305 394 -257 q 250 -383 314 -353 z "},"Ț":{"ha":782,"x_min":13,"x_max":769,"o":"m 751 1011 l 769 913 l 767 913 q 494 986 607 986 l 463 986 l 463 0 l 321 0 l 321 986 l 288 986 q 15 913 175 986 l 13 913 l 32 1011 l 751 1011 m 338 -383 l 331 -375 q 407 -261 407 -329 q 315 -142 407 -189 l 382 -68 q 456 -124 429 -87 q 482 -204 482 -160 q 442 -305 482 -257 q 338 -383 401 -353 z "},"ț":{"ha":494,"x_min":24,"x_max":506,"o":"m 494 65 l 506 49 q 311 -17 407 -17 q 131 174 131 -17 l 131 707 l 24 707 l 24 731 l 125 738 l 257 974 l 263 974 l 263 738 l 500 738 l 482 707 l 263 707 l 263 176 q 282 75 263 121 q 375 31 303 31 q 494 65 435 31 m 268 -383 l 261 -375 q 338 -261 338 -329 q 246 -142 338 -189 l 313 -68 q 386 -124 360 -87 q 413 -204 413 -160 q 372 -305 413 -257 q 268 -383 332 -353 z "},"ȷ":{"ha":306,"x_min":-85,"x_max":222,"o":"m -79 -317 l -85 -300 q 44 -208 -3 -282 q 90 -24 90 -135 l 90 715 l 217 753 l 222 753 l 222 -14 q 135 -219 222 -142 q -79 -317 49 -297 z "},"ə":{"ha":750,"x_min":33,"x_max":708,"o":"m 708 379 q 603 94 708 204 q 335 -17 497 -17 q 112 74 190 -17 q 36 317 33 164 l 569 317 l 569 342 q 496 601 569 507 q 307 694 422 694 q 172 660 239 694 q 60 561 106 625 l 43 571 q 363 754 163 754 q 610 650 513 754 q 708 379 708 546 m 568 294 l 161 294 q 206 84 156 164 q 346 4 257 4 q 496 85 436 4 q 568 294 558 168 z "},"ʻ":{"ha":211,"x_min":33,"x_max":182,"o":"m 33 976 q 69 1063 33 1022 q 163 1131 106 1104 l 168 1124 q 101 1026 101 1083 q 182 924 101 963 l 122 858 q 33 976 33 894 z "},"ʼ":{"ha":215,"x_min":36,"x_max":185,"o":"m 56 858 l 50 865 q 117 963 117 906 q 36 1065 117 1028 l 96 1131 q 185 1013 185 1094 q 149 926 185 967 q 56 858 113 885 z "},"ˆ":{"ha":833,"x_min":203,"x_max":631,"o":"m 631 849 l 622 842 l 417 981 l 211 842 l 203 849 l 413 1090 l 421 1090 l 631 849 z "},"ˇ":{"ha":833,"x_min":203,"x_max":631,"o":"m 622 1090 l 631 1083 l 421 842 l 413 842 l 203 1083 l 211 1090 l 417 951 l 622 1090 z "},"ˉ":{"ha":833,"x_min":226,"x_max":608,"o":"m 226 908 l 226 953 l 608 953 l 608 908 l 226 908 z "},"˘":{"ha":833,"x_min":201,"x_max":633,"o":"m 201 1064 l 214 1068 q 293 972 239 1008 q 417 936 347 936 q 542 972 488 936 q 621 1068 596 1008 l 633 1064 q 417 858 578 858 q 201 1064 257 858 z "},"˙":{"ha":833,"x_min":335,"x_max":524,"o":"m 429 860 l 335 954 l 429 1049 l 524 954 l 429 860 z "},"˚":{"ha":833,"x_min":278,"x_max":581,"o":"m 321 881 q 299 900 321 881 q 278 981 278 919 q 322 1080 278 1042 q 429 1118 365 1118 q 538 1080 496 1118 q 581 981 581 1042 q 538 881 581 919 q 429 842 494 842 q 321 881 364 842 m 495 892 q 507 909 495 892 q 519 981 519 925 q 495 1069 519 1036 q 429 1101 471 1101 q 364 1069 388 1101 q 340 981 340 1036 q 364 892 340 925 q 429 860 388 860 q 495 892 471 860 z "},"˛":{"ha":833,"x_min":361,"x_max":629,"o":"m 361 -207 q 402 -107 361 -154 q 533 1 443 -60 l 554 1 q 458 -176 458 -99 q 481 -240 458 -217 q 539 -262 503 -262 q 625 -242 575 -262 l 629 -249 q 475 -308 563 -308 q 393 -281 425 -308 q 361 -207 361 -253 z "},"˜":{"ha":833,"x_min":178,"x_max":644,"o":"m 190 858 l 178 861 q 299 1017 197 1017 q 438 972 349 1017 q 546 936 521 936 q 631 1017 606 936 l 644 1014 q 522 858 622 858 q 385 903 476 858 l 354 917 q 275 939 306 939 q 190 858 213 939 z "},"˝":{"ha":833,"x_min":236,"x_max":658,"o":"m 246 842 l 236 849 l 339 1090 l 469 1090 l 246 842 m 436 842 l 426 849 l 528 1090 l 658 1090 l 436 842 z "},"̀":{"ha":0,"x_min":-493,"x_max":-247,"o":"m -257 842 l -493 1090 l -347 1090 l -247 849 l -257 842 z "},"́":{"ha":0,"x_min":-308,"x_max":-61,"o":"m -299 842 l -308 849 l -207 1090 l -61 1090 l -299 842 z "},"̂":{"ha":0,"x_min":-492,"x_max":-64,"o":"m -64 849 l -72 842 l -278 981 l -483 842 l -492 849 l -282 1090 l -274 1090 l -64 849 z "},"̃":{"ha":0,"x_min":-511,"x_max":-44,"o":"m -497 858 l -511 861 q -389 1017 -489 1017 q -250 972 -339 1017 q -142 936 -167 936 q -57 1017 -79 936 l -44 1014 q -167 858 -64 858 q -304 903 -212 858 q -412 939 -387 939 q -497 858 -475 939 z "},"̄":{"ha":0,"x_min":-468,"x_max":-86,"o":"m -468 908 l -468 953 l -86 953 l -86 908 l -468 908 z "},"̆":{"ha":0,"x_min":-493,"x_max":-61,"o":"m -493 1064 l -481 1068 q -401 972 -456 1008 q -278 936 -347 936 q -153 972 -207 936 q -74 1068 -99 1008 l -61 1064 q -278 858 -117 858 q -493 1064 -437 858 z "},"̇":{"ha":0,"x_min":-372,"x_max":-183,"o":"m -278 860 l -372 954 l -278 1049 l -183 954 l -278 860 z "},"̈":{"ha":0,"x_min":-501,"x_max":-69,"o":"m -417 860 l -501 944 l -417 1026 l -335 944 l -417 860 m -153 860 l -236 944 l -153 1026 l -69 944 l -153 860 z "},"̊":{"ha":0,"x_min":-429,"x_max":-126,"o":"m -386 881 q -408 900 -386 881 q -429 981 -429 919 q -385 1080 -429 1042 q -278 1118 -342 1118 q -170 1080 -214 1118 q -126 981 -126 1042 q -169 881 -126 919 q -278 842 -212 842 q -386 881 -343 842 m -212 892 q -201 909 -212 892 q -189 981 -189 925 q -212 1069 -189 1036 q -278 1101 -236 1101 q -343 1069 -319 1101 q -367 981 -367 1036 q -343 892 -367 925 q -278 860 -319 860 q -212 892 -236 860 z "},"̋":{"ha":0,"x_min":-542,"x_max":-118,"o":"m -532 842 l -542 849 l -439 1090 l -308 1090 l -532 842 m -342 842 l -351 849 l -249 1090 l -118 1090 l -342 842 z "},"̌":{"ha":0,"x_min":-492,"x_max":-64,"o":"m -72 1090 l -64 1083 l -274 842 l -282 842 l -492 1083 l -483 1090 l -278 951 l -72 1090 z "},"̒":{"ha":0,"x_min":-353,"x_max":-204,"o":"m -353 968 q -317 1054 -353 1014 q -224 1122 -282 1094 l -217 1115 q -285 1017 -285 1078 q -204 914 -285 953 l -264 849 q -353 968 -353 885 z "},"̓":{"ha":0,"x_min":-349,"x_max":-199,"o":"m -329 849 l -335 856 q -268 954 -268 894 q -349 1057 -268 1018 l -289 1122 q -199 1003 -199 1086 q -235 917 -199 958 q -329 849 -271 876 z "},"̦":{"ha":0,"x_min":-354,"x_max":-187,"o":"m -332 -383 l -339 -375 q -262 -261 -262 -329 q -354 -142 -262 -189 l -287 -68 q -214 -124 -240 -87 q -187 -204 -187 -160 q -228 -305 -187 -257 q -332 -383 -268 -353 z "},"̧":{"ha":0,"x_min":-408,"x_max":-137,"o":"m -137 -189 q -181 -275 -137 -242 q -294 -308 -225 -308 q -408 -283 -364 -308 l -404 -271 q -317 -283 -369 -283 q -243 -263 -271 -283 q -215 -212 -215 -243 q -244 -164 -215 -183 q -321 -144 -272 -144 l -357 -144 l -292 0 l -264 0 l -296 -71 q -180 -109 -222 -76 q -137 -189 -137 -142 z "},"̨":{"ha":0,"x_min":-400,"x_max":-131,"o":"m -400 -207 q -359 -107 -400 -154 q -228 1 -318 -60 l -207 1 q -301 -176 -301 -97 q -279 -240 -301 -217 q -221 -262 -257 -262 q -135 -242 -186 -262 l -131 -249 q -286 -308 -200 -308 q -368 -281 -336 -308 q -400 -207 -400 -253 z "},";":{"ha":331,"x_min":67,"x_max":264,"o":"m 92 -199 l 85 -189 q 167 -64 167 -139 q 67 78 167 15 l 139 168 q 226 103 194 146 q 258 8 258 61 q 213 -108 258 -53 q 92 -199 167 -162 m 165 517 l 67 614 l 165 713 l 264 614 l 165 517 z "},"Δ":{"ha":807,"x_min":1,"x_max":804,"o":"m 406 1028 l 804 0 l 1 0 l 400 1028 l 406 1028 m 715 25 l 378 901 l 38 25 l 715 25 z "},"Ω":{"ha":1074,"x_min":39,"x_max":1033,"o":"m 1033 81 l 1008 0 l 610 0 l 610 36 q 847 281 771 154 q 924 557 924 407 q 817 880 924 754 q 536 1006 710 1006 q 255 883 361 1006 q 149 563 149 760 q 224 289 149 417 q 463 36 300 161 l 463 0 l 64 0 l 39 81 q 318 53 161 53 l 401 53 q 147 306 228 192 q 68 557 68 419 q 201 894 65 758 q 536 1028 336 1031 q 876 899 747 1028 q 1004 563 1004 771 q 924 307 1004 425 q 671 53 840 188 l 754 53 q 1033 81 911 53 z "},"μ":{"ha":797,"x_min":79,"x_max":746,"o":"m 715 126 l 746 26 l 621 -12 l 583 108 l 583 111 q 315 -17 463 -17 q 163 39 218 -17 q 211 -218 211 -132 l 211 -294 l 79 -294 l 79 715 l 206 753 l 211 753 l 211 242 q 240 96 211 161 q 374 32 269 32 q 481 62 425 32 q 583 143 538 92 l 583 715 l 710 753 l 715 753 l 715 126 z "},"π":{"ha":839,"x_min":11,"x_max":833,"o":"m 822 51 l 833 35 q 668 -17 742 -17 q 501 186 501 -17 l 501 697 l 242 697 l 242 592 q 203 0 242 235 l 136 0 q 175 594 175 204 l 175 697 l 11 697 l 11 728 l 561 728 q 811 742 733 728 l 786 697 l 568 697 l 568 197 q 697 17 568 17 q 822 51 758 17 z "},"Ẁ":{"ha":1296,"x_min":7,"x_max":1296,"o":"m 1210 1011 l 1296 1011 q 1131 568 1235 865 l 926 -22 l 921 -22 l 649 769 l 371 -22 l 365 -22 l 7 1011 l 158 1011 l 428 222 l 706 1011 l 711 1011 l 982 222 l 1104 576 q 1210 1011 1190 817 m 731 1107 l 479 1343 l 643 1343 l 740 1114 l 731 1107 z "},"ẁ":{"ha":1044,"x_min":6,"x_max":1043,"o":"m 961 738 l 1043 738 q 869 314 976 592 l 739 -21 l 729 -21 l 526 526 l 318 -21 l 308 -21 l 6 738 l 146 738 l 367 179 l 576 738 l 585 738 l 792 183 l 846 325 q 961 738 949 592 m 582 842 l 346 1090 l 492 1090 l 592 849 l 582 842 z "},"Ẃ":{"ha":1296,"x_min":7,"x_max":1296,"o":"m 1210 1011 l 1296 1011 q 1131 568 1235 865 l 926 -22 l 921 -22 l 649 769 l 371 -22 l 365 -22 l 7 1011 l 158 1011 l 428 222 l 706 1011 l 711 1011 l 982 222 l 1104 576 q 1210 1011 1190 817 m 688 1107 l 678 1114 l 775 1343 l 939 1343 l 688 1107 z "},"ẃ":{"ha":1044,"x_min":6,"x_max":1043,"o":"m 961 738 l 1043 738 q 869 314 976 592 l 739 -21 l 729 -21 l 526 526 l 318 -21 l 308 -21 l 6 738 l 146 738 l 367 179 l 576 738 l 585 738 l 792 183 l 846 325 q 961 738 949 592 m 540 842 l 531 849 l 632 1090 l 778 1090 l 540 842 z "},"Ẅ":{"ha":1296,"x_min":7,"x_max":1296,"o":"m 1210 1011 l 1296 1011 q 1131 568 1235 865 l 926 -22 l 921 -22 l 649 769 l 371 -22 l 365 -22 l 7 1011 l 158 1011 l 428 222 l 706 1011 l 711 1011 l 982 222 l 1104 576 q 1210 1011 1190 817 m 574 1126 l 489 1210 l 574 1293 l 656 1210 l 574 1126 m 846 1126 l 761 1210 l 846 1293 l 928 1210 l 846 1126 z "},"ẅ":{"ha":1044,"x_min":6,"x_max":1043,"o":"m 961 738 l 1043 738 q 869 314 976 592 l 739 -21 l 729 -21 l 526 526 l 318 -21 l 308 -21 l 6 738 l 146 738 l 367 179 l 576 738 l 585 738 l 792 183 l 846 325 q 961 738 949 592 m 419 860 l 335 944 l 419 1026 l 501 944 l 419 860 m 683 860 l 600 944 l 683 1026 l 767 944 l 683 860 z "},"ẞ":{"ha":974,"x_min":93,"x_max":946,"o":"m 946 275 q 848 67 946 147 q 593 -12 750 -12 q 368 42 467 -12 l 390 119 q 481 40 428 69 q 592 10 535 10 q 739 76 683 10 q 794 250 794 143 q 718 440 794 371 q 500 521 642 510 l 461 524 l 701 954 q 486 1004 588 1004 q 293 915 351 1004 q 235 688 235 828 l 235 0 l 93 0 l 93 681 q 198 935 93 842 q 478 1028 303 1028 q 835 938 643 1028 l 618 550 q 859 464 772 536 q 946 275 946 392 z "},"Ỳ":{"ha":821,"x_min":13,"x_max":808,"o":"m 569 599 l 485 450 l 485 0 l 343 0 l 343 433 l 13 1011 l 175 1011 l 472 483 l 544 611 q 721 1011 683 853 l 808 1011 q 569 599 681 799 m 456 1107 l 204 1343 l 368 1343 l 465 1114 l 456 1107 z "},"ỳ":{"ha":668,"x_min":1,"x_max":667,"o":"m 586 738 l 667 738 q 528 417 617 635 l 489 325 l 306 -117 q 7 -325 219 -325 l 15 -246 q 83 -256 44 -256 q 197 -220 144 -256 q 279 -115 250 -185 l 325 -4 l 1 738 l 143 738 l 393 163 l 465 335 q 586 738 571 593 m 368 842 l 132 1090 l 278 1090 l 378 849 l 368 842 z "},"​":{"ha":0,"x_min":0,"x_max":0,"o":""},"–":{"ha":644,"x_min":51,"x_max":593,"o":"m 51 414 l 51 439 l 593 439 l 593 414 l 51 414 z "},"—":{"ha":1047,"x_min":51,"x_max":996,"o":"m 51 414 l 51 439 l 996 439 l 996 414 l 51 414 z "},"―":{"ha":1047,"x_min":51,"x_max":996,"o":"m 51 414 l 51 439 l 996 439 l 996 414 l 51 414 z "},"‘":{"ha":263,"x_min":39,"x_max":229,"o":"m 204 1028 l 211 1018 q 131 892 131 965 q 229 750 131 813 l 157 661 q 71 724 103 682 q 39 821 39 767 q 85 937 39 882 q 204 1028 131 992 z "},"’":{"ha":265,"x_min":36,"x_max":228,"o":"m 61 661 l 54 671 q 136 796 136 721 q 36 938 136 875 l 108 1028 q 196 963 164 1006 q 228 868 228 921 q 182 752 228 807 q 61 661 136 697 z "},"‚":{"ha":269,"x_min":39,"x_max":231,"o":"m 64 -199 l 57 -189 q 139 -64 139 -139 q 39 78 139 15 l 111 168 q 199 103 167 146 q 231 8 231 61 q 185 -108 231 -53 q 64 -199 139 -162 z "},"“":{"ha":513,"x_min":39,"x_max":479,"o":"m 204 1028 l 211 1018 q 131 892 131 965 q 229 750 131 813 l 157 661 q 71 724 103 682 q 39 821 39 767 q 85 937 39 882 q 204 1028 131 992 m 454 1028 l 461 1018 q 381 892 381 965 q 479 750 381 813 l 407 661 q 321 724 353 682 q 289 821 289 767 q 335 937 289 882 q 454 1028 381 992 z "},"”":{"ha":515,"x_min":36,"x_max":478,"o":"m 311 661 l 304 671 q 386 796 386 721 q 286 938 386 875 l 358 1028 q 446 963 414 1006 q 478 868 478 921 q 432 752 478 807 q 311 661 386 697 m 61 661 l 54 671 q 136 796 136 721 q 36 938 136 875 l 108 1028 q 196 963 164 1006 q 228 868 228 921 q 182 752 228 807 q 61 661 136 697 z "},"„":{"ha":519,"x_min":39,"x_max":481,"o":"m 64 -199 l 57 -189 q 139 -64 139 -139 q 39 78 139 15 l 111 168 q 199 103 167 146 q 231 8 231 61 q 185 -108 231 -53 q 64 -199 139 -162 m 314 -199 l 307 -189 q 389 -64 389 -139 q 289 78 389 15 l 361 168 q 449 103 417 146 q 481 8 481 61 q 435 -108 481 -53 q 314 -199 389 -162 z "},"†":{"ha":621,"x_min":29,"x_max":590,"o":"m 590 713 l 590 638 l 318 667 l 343 385 l 343 -208 l 310 -258 l 276 -208 l 276 385 l 301 667 l 29 638 l 29 713 l 303 683 l 272 1028 l 347 1028 l 317 683 l 590 713 z "},"‡":{"ha":660,"x_min":49,"x_max":610,"o":"m 610 713 l 610 638 l 338 667 l 367 385 l 338 103 l 610 132 l 610 57 l 336 86 l 367 -258 l 292 -258 l 322 86 l 49 57 l 49 132 l 321 103 l 292 385 l 321 667 l 49 638 l 49 713 l 322 683 l 292 1028 l 367 1028 l 336 683 l 610 713 z "},"•":{"ha":449,"x_min":83,"x_max":365,"o":"m 224 271 l 83 411 l 224 551 l 365 411 l 224 271 z "},"…":{"ha":763,"x_min":31,"x_max":732,"o":"m 129 -29 l 31 68 l 129 167 l 228 68 l 129 -29 m 381 -29 l 282 68 l 381 167 l 479 68 l 381 -29 m 633 -29 l 535 68 l 633 167 l 732 68 l 633 -29 z "},"‰":{"ha":1563,"x_min":36,"x_max":1526,"o":"m 36 769 q 99 951 36 883 q 267 1019 163 1019 q 431 953 368 1019 q 494 778 494 886 q 431 596 494 664 q 265 528 368 528 q 99 594 163 528 q 36 769 36 660 m 208 0 l 819 1011 l 850 1011 l 239 0 l 208 0 m 408 771 q 369 940 408 878 q 264 1003 331 1003 q 160 942 197 1003 q 122 776 122 882 q 161 607 122 669 q 268 544 200 544 q 372 605 335 544 q 408 771 408 665 m 565 233 q 628 415 565 347 q 794 483 692 483 q 959 417 896 483 q 1022 242 1022 351 q 959 60 1022 128 q 792 -8 896 -8 q 628 58 692 -8 q 565 233 565 125 m 1069 233 q 1133 415 1069 347 q 1299 483 1196 483 q 1463 417 1400 483 q 1526 242 1526 351 q 1463 60 1526 128 q 1297 -8 1400 -8 q 1133 58 1196 -8 q 1069 233 1069 125 m 936 235 q 898 404 936 342 q 792 467 860 467 q 688 406 725 467 q 650 240 650 344 q 689 71 650 133 q 794 8 728 8 q 899 69 861 8 q 936 235 936 129 m 1442 235 q 1403 404 1442 342 q 1296 467 1364 467 q 1192 406 1229 467 q 1156 240 1156 346 q 1194 71 1156 133 q 1300 8 1232 8 q 1404 69 1367 8 q 1442 235 1442 131 z "},"′":{"ha":231,"x_min":56,"x_max":219,"o":"m 56 628 l 103 1028 l 219 1028 l 69 628 l 56 628 z "},"″":{"ha":425,"x_min":56,"x_max":414,"o":"m 56 628 l 103 1028 l 219 1028 l 69 628 l 56 628 m 250 628 l 297 1028 l 414 1028 l 264 628 l 250 628 z "},"‹":{"ha":392,"x_min":40,"x_max":340,"o":"m 340 707 l 161 369 l 340 32 l 324 32 l 40 369 l 324 707 l 340 707 z "},"›":{"ha":392,"x_min":51,"x_max":351,"o":"m 68 707 l 351 369 l 68 32 l 51 32 l 231 369 l 51 707 l 68 707 z "},"⁄":{"ha":139,"x_min":-253,"x_max":390,"o":"m -253 0 l 358 1011 l 390 1011 l -221 0 l -253 0 z "},"⁰":{"ha":557,"x_min":43,"x_max":514,"o":"m 43 708 q 107 935 43 853 q 279 1018 171 1018 q 450 938 386 1018 q 514 718 514 857 q 450 490 514 574 q 278 407 386 407 q 107 488 171 407 q 43 708 43 569 m 418 710 q 381 926 418 849 q 276 1004 343 1004 q 175 928 211 1004 q 139 717 139 851 q 176 501 139 579 q 281 422 214 422 q 382 499 346 422 q 418 710 418 575 z "},"⁴":{"ha":463,"x_min":8,"x_max":439,"o":"m 439 631 l 424 575 l 350 575 l 350 415 l 267 415 l 267 575 l 18 575 l 8 604 l 331 1017 l 350 1017 l 350 631 l 439 631 m 57 631 l 267 631 l 267 901 l 57 631 z "},"⁵":{"ha":428,"x_min":28,"x_max":389,"o":"m 389 600 q 328 463 389 518 q 176 407 267 407 q 28 444 103 407 l 40 489 q 174 425 96 425 q 274 466 233 425 q 314 569 314 507 q 257 686 314 644 q 93 728 200 728 l 63 728 l 88 1011 l 379 1011 l 358 947 l 104 947 l 92 803 l 122 803 q 319 748 249 803 q 389 600 389 693 z "},"⁶":{"ha":479,"x_min":42,"x_max":453,"o":"m 42 644 q 128 881 42 778 q 350 1018 215 985 l 354 1006 q 192 874 250 971 q 135 642 135 778 q 167 481 135 539 q 256 422 200 422 q 333 465 306 422 q 360 585 360 508 q 331 703 360 660 q 251 746 301 746 q 172 715 207 746 l 163 726 q 285 779 215 779 q 405 729 357 779 q 453 601 453 679 q 396 461 453 515 q 251 407 339 407 q 99 472 156 407 q 42 644 42 538 z "},"⁷":{"ha":407,"x_min":13,"x_max":399,"o":"m 28 1011 l 399 1011 l 399 1006 l 185 415 l 104 415 l 357 947 l 260 947 q 13 929 97 947 l 28 1011 z "},"⁸":{"ha":479,"x_min":40,"x_max":438,"o":"m 438 575 q 378 454 438 501 q 233 407 321 407 q 96 447 151 407 q 40 550 40 486 q 174 710 40 661 q 67 860 67 767 q 117 973 67 928 q 246 1018 168 1018 q 365 981 317 1018 q 413 888 413 944 q 294 743 413 793 q 438 575 438 676 m 246 764 l 274 751 q 347 888 347 804 q 317 971 347 938 q 240 1004 288 1004 q 163 972 192 1004 q 135 890 135 940 q 161 819 135 847 q 246 764 188 790 m 368 544 q 249 675 368 622 l 210 692 l 190 701 q 107 554 107 649 q 146 460 107 497 q 240 422 185 422 q 331 458 294 422 q 368 544 368 493 z "},"⁹":{"ha":478,"x_min":26,"x_max":436,"o":"m 129 407 l 124 421 q 286 550 229 454 q 343 785 343 646 q 310 946 343 888 q 222 1004 278 1004 q 146 960 174 1004 q 118 842 118 917 q 147 724 118 767 q 226 681 176 681 q 307 710 269 681 l 317 699 q 193 647 261 647 q 74 697 121 647 q 26 825 26 747 q 83 964 26 910 q 228 1018 139 1018 q 380 953 324 1018 q 436 782 436 889 q 350 545 436 650 q 129 407 264 440 z "},"₀":{"ha":557,"x_min":43,"x_max":514,"o":"m 43 58 q 107 285 43 203 q 279 368 171 368 q 450 288 386 368 q 514 68 514 207 q 450 -160 514 -76 q 278 -243 386 -243 q 107 -162 171 -243 q 43 58 43 -81 m 418 60 q 381 276 418 199 q 276 354 343 354 q 175 278 211 354 q 139 67 139 201 q 176 -149 139 -71 q 281 -228 214 -228 q 382 -151 346 -228 q 418 60 418 -75 z "},"₁":{"ha":268,"x_min":19,"x_max":194,"o":"m 190 371 l 194 371 l 194 -233 l 111 -233 l 111 261 q 19 225 74 243 l 19 239 q 108 291 58 253 q 190 371 157 329 z "},"₂":{"ha":451,"x_min":28,"x_max":415,"o":"m 415 -157 l 393 -235 l 28 -235 l 28 -231 l 75 -181 q 252 34 197 -54 q 307 196 307 122 q 275 289 307 254 q 192 324 243 324 q 46 228 103 324 l 32 233 q 228 368 96 368 q 352 325 304 368 q 400 208 400 282 q 335 53 397 131 q 106 -171 274 -24 l 104 -172 l 157 -172 q 415 -157 300 -172 z "},"₃":{"ha":444,"x_min":33,"x_max":403,"o":"m 33 -206 l 47 -154 q 182 -226 111 -226 q 283 -186 244 -226 q 322 -85 322 -146 q 283 15 322 -25 q 182 63 244 56 l 151 65 l 149 78 l 175 88 q 262 143 229 106 q 294 229 294 181 q 267 300 294 274 q 193 326 239 326 q 57 254 113 326 l 43 260 q 229 368 114 368 q 339 334 296 368 q 382 246 382 300 q 347 163 382 201 q 258 106 311 124 l 258 103 q 362 46 321 90 q 403 -61 403 1 q 342 -190 403 -137 q 188 -243 281 -243 q 33 -206 119 -243 z "},"₄":{"ha":463,"x_min":10,"x_max":440,"o":"m 440 -19 l 425 -75 l 351 -75 l 351 -235 l 268 -235 l 268 -75 l 19 -75 l 10 -46 l 332 367 l 351 367 l 351 -19 l 440 -19 m 58 -19 l 268 -19 l 268 251 l 58 -19 z "},"₅":{"ha":428,"x_min":28,"x_max":389,"o":"m 389 -50 q 328 -187 389 -132 q 176 -243 267 -243 q 28 -206 103 -243 l 40 -161 q 174 -225 96 -225 q 274 -184 233 -225 q 314 -81 314 -143 q 257 36 314 -6 q 93 78 200 78 l 63 78 l 88 361 l 379 361 l 358 297 l 104 297 l 92 153 l 122 153 q 319 98 249 153 q 389 -50 389 43 z "},"₆":{"ha":479,"x_min":42,"x_max":453,"o":"m 42 -6 q 128 231 42 128 q 350 368 215 335 l 354 356 q 192 224 250 321 q 135 -8 135 128 q 167 -169 135 -111 q 256 -228 200 -228 q 333 -185 306 -228 q 360 -65 360 -142 q 331 53 360 10 q 251 96 301 96 q 172 65 207 96 l 163 76 q 285 129 215 129 q 405 79 357 129 q 453 -49 453 29 q 396 -189 453 -135 q 251 -243 339 -243 q 99 -178 156 -243 q 42 -6 42 -112 z "},"₇":{"ha":407,"x_min":14,"x_max":400,"o":"m 29 361 l 400 361 l 400 356 l 186 -235 l 106 -235 l 358 297 l 261 297 q 14 279 99 297 l 29 361 z "},"₈":{"ha":479,"x_min":40,"x_max":438,"o":"m 438 -75 q 378 -194 438 -147 q 233 -243 318 -243 q 96 -203 151 -243 q 40 -100 40 -164 q 174 60 40 11 q 67 210 67 117 q 117 323 67 278 q 246 368 168 368 q 365 331 317 368 q 413 238 413 294 q 294 93 413 143 q 438 -75 438 26 m 246 114 l 274 101 q 347 238 347 154 q 317 321 347 288 q 240 354 288 354 q 163 322 192 354 q 135 240 135 290 q 161 169 135 197 q 246 114 188 140 m 368 -106 q 249 25 368 -28 l 210 42 l 190 51 q 107 -96 107 -1 q 146 -190 107 -153 q 240 -228 185 -228 q 331 -192 294 -228 q 368 -106 368 -157 z "},"₉":{"ha":478,"x_min":26,"x_max":436,"o":"m 129 -243 l 124 -229 q 286 -100 229 -196 q 343 135 343 -4 q 310 296 343 238 q 222 354 278 354 q 146 310 174 354 q 118 192 118 267 q 147 74 118 117 q 226 31 176 31 q 307 60 269 31 l 317 49 q 193 -3 261 -3 q 74 47 121 -3 q 26 175 26 97 q 83 314 26 260 q 228 368 139 368 q 380 303 324 368 q 436 132 436 239 q 350 -105 436 0 q 129 -243 264 -210 z "},"€":{"ha":935,"x_min":39,"x_max":899,"o":"m 883 169 l 899 156 q 564 -17 769 -17 q 272 101 393 -17 q 128 414 150 219 l 39 414 l 39 439 l 126 439 q 124 497 124 492 q 128 575 124 538 l 39 575 l 39 600 l 131 600 q 283 912 157 796 q 590 1028 410 1028 q 890 907 760 1028 l 828 847 q 583 1006 719 1006 q 375 893 457 1006 q 278 600 293 781 l 632 600 l 625 575 l 276 575 q 275 532 275 565 q 279 439 275 483 l 581 439 l 572 414 l 283 414 q 397 142 306 242 q 618 44 486 44 q 883 169 781 44 z "},"ℓ":{"ha":489,"x_min":29,"x_max":458,"o":"m 440 111 l 458 100 q 279 -17 374 -17 q 160 44 203 -17 q 118 214 118 106 l 118 292 q 40 244 72 261 l 29 264 q 118 318 67 285 l 118 686 q 281 1028 118 1028 q 400 963 354 1028 q 446 786 446 897 q 185 338 446 533 l 185 194 q 289 10 185 10 q 440 111 365 10 m 185 706 l 185 365 q 385 786 385 528 q 356 950 385 892 q 281 1008 328 1008 q 201 925 218 1008 q 185 706 185 842 z "},"№":{"ha":1493,"x_min":56,"x_max":1451,"o":"m 753 1011 l 836 1011 q 808 569 808 836 l 808 -17 l 796 -17 l 151 875 l 151 442 q 179 0 151 175 l 96 0 q 124 442 124 163 l 124 913 l 56 1007 l 56 1011 l 224 1011 l 781 228 l 781 569 q 753 1011 781 836 m 911 656 q 988 852 911 776 q 1185 928 1065 928 q 1376 853 1301 928 q 1451 661 1451 779 q 1374 466 1451 543 q 1178 389 1296 389 q 986 463 1061 389 q 911 656 911 538 m 1060 840 q 1038 806 1060 840 q 1015 660 1015 772 q 1061 478 1015 547 q 1182 408 1107 408 q 1302 476 1257 408 q 1347 656 1347 544 q 1301 838 1347 768 q 1179 908 1254 908 q 1060 840 1104 908 m 969 250 l 969 275 l 1399 275 l 1399 250 l 969 250 z "},"℗":{"ha":865,"x_min":53,"x_max":813,"o":"m 810 651 q 699 387 813 500 q 433 276 585 274 q 167 387 281 274 q 56 651 53 500 q 167 916 53 801 q 433 1028 281 1031 q 699 916 585 1031 q 810 651 813 801 m 779 654 q 677 900 782 794 q 433 1003 572 1006 q 188 900 293 1006 q 86 654 83 794 q 188 408 83 514 q 433 304 293 301 q 677 408 572 301 q 779 654 782 514 m 615 751 q 566 648 615 688 q 436 608 517 608 q 388 613 406 608 l 388 419 l 347 419 l 347 879 l 436 879 q 569 847 522 879 q 615 751 615 814 m 571 743 q 535 831 571 800 q 436 861 500 861 l 388 861 l 388 632 q 435 628 406 628 q 535 658 500 628 q 571 743 571 688 z "},"™":{"ha":1053,"x_min":29,"x_max":968,"o":"m 40 1011 l 421 1011 l 432 975 q 346 986 367 985 q 269 990 317 990 l 253 990 l 253 492 l 208 492 l 208 990 l 192 990 q 114 986 144 990 q 29 975 94 985 l 40 1011 m 968 492 l 922 492 l 885 908 l 707 526 l 701 526 l 513 906 l 497 718 q 486 492 486 551 l 451 492 q 475 717 458 536 l 500 1011 l 511 1011 l 715 597 l 907 1011 l 918 1011 l 968 492 z "},"Ω":{"ha":1078,"x_min":42,"x_max":1036,"o":"m 1036 81 l 1011 0 l 613 0 l 613 36 q 850 281 774 154 q 926 557 926 407 q 819 880 926 754 q 539 1006 713 1006 q 258 883 364 1006 q 151 563 151 760 q 227 289 151 417 q 465 36 303 161 l 465 0 l 67 0 l 42 81 q 321 53 164 53 l 404 53 q 150 306 231 192 q 71 557 71 419 q 203 894 68 758 q 539 1028 339 1031 q 878 899 750 1028 q 1007 563 1007 771 q 926 307 1007 425 q 674 53 843 188 l 757 53 q 1036 81 914 53 z "},"℮":{"ha":1093,"x_min":54,"x_max":1060,"o":"m 983 278 l 1006 267 q 819 56 938 132 q 556 -19 700 -19 q 303 50 419 -22 q 121 244 186 122 q 57 506 56 367 q 203 869 54 715 q 556 1019 351 1024 q 912 867 764 1024 q 1056 492 1060 710 l 235 492 l 235 174 q 269 106 235 132 q 556 8 400 8 q 806 80 693 8 q 983 278 919 151 m 235 821 l 235 519 l 876 519 l 876 821 q 842 894 876 867 q 556 992 714 992 q 269 894 397 992 q 235 821 235 868 z "},"⅛":{"ha":965,"x_min":39,"x_max":925,"o":"m 210 1021 l 214 1021 l 214 417 l 131 417 l 131 911 q 39 875 93 893 l 39 889 q 127 941 78 903 q 210 1021 176 979 m 96 0 l 707 1011 l 739 1011 l 128 0 l 96 0 m 925 160 q 865 39 925 86 q 721 -8 808 -8 q 583 31 639 -8 q 528 135 528 71 q 661 294 528 246 q 554 444 554 351 q 605 558 554 513 q 733 603 656 603 q 852 566 804 603 q 900 472 900 529 q 782 328 900 378 q 925 160 925 261 m 733 349 l 761 336 q 835 472 835 389 q 805 556 835 522 q 728 589 775 589 q 651 557 679 589 q 622 475 622 525 q 649 403 622 432 q 733 349 675 375 m 856 129 q 736 260 856 207 l 697 276 l 678 286 q 594 139 594 233 q 633 44 594 82 q 728 7 672 7 q 819 42 782 7 q 856 129 856 78 z "},"⅜":{"ha":1065,"x_min":39,"x_max":1025,"o":"m 39 444 l 53 496 q 188 424 117 424 q 289 464 250 424 q 328 565 328 504 q 289 665 328 625 q 188 713 250 706 l 157 715 l 154 728 l 181 738 q 267 793 235 756 q 300 879 300 831 q 272 950 300 924 q 199 976 244 976 q 63 904 118 976 l 49 910 q 235 1018 119 1018 q 344 984 301 1018 q 388 896 388 950 q 352 813 388 851 q 264 756 317 774 l 264 753 q 367 696 326 740 q 408 589 408 651 q 347 460 408 513 q 193 407 286 407 q 39 444 125 407 m 197 0 l 808 1011 l 840 1011 l 229 0 l 197 0 m 1025 160 q 965 39 1025 86 q 821 -8 908 -8 q 683 31 739 -8 q 628 135 628 71 q 761 294 628 246 q 654 444 654 351 q 705 558 654 513 q 833 603 756 603 q 952 566 904 603 q 1000 472 1000 529 q 882 328 1000 378 q 1025 160 1025 261 m 833 349 l 861 336 q 935 472 935 389 q 905 556 935 522 q 828 589 875 589 q 751 557 779 589 q 722 475 722 525 q 749 403 722 432 q 833 349 775 375 m 956 129 q 836 260 956 207 l 797 276 l 778 286 q 694 139 694 233 q 733 44 694 82 q 828 7 772 7 q 919 42 882 7 q 956 129 956 78 z "},"⅝":{"ha":1061,"x_min":38,"x_max":1021,"o":"m 399 600 q 338 463 399 518 q 186 407 276 407 q 38 444 113 407 l 50 489 q 183 425 106 425 q 283 466 243 425 q 324 569 324 507 q 267 686 324 644 q 103 728 210 728 l 72 728 l 97 1011 l 389 1011 l 368 947 l 114 947 l 101 803 l 132 803 q 328 748 258 803 q 399 600 399 693 m 193 0 l 804 1011 l 836 1011 l 225 0 l 193 0 m 1021 160 q 961 39 1021 86 q 817 -8 904 -8 q 679 31 735 -8 q 624 135 624 71 q 757 294 624 246 q 650 444 650 351 q 701 558 650 513 q 829 603 751 603 q 948 566 900 603 q 996 472 996 529 q 878 328 996 378 q 1021 160 1021 261 m 829 349 l 857 336 q 931 472 931 389 q 901 556 931 522 q 824 589 871 589 q 747 557 775 589 q 718 475 718 525 q 744 403 718 432 q 829 349 771 375 m 951 129 q 832 260 951 207 l 793 276 l 774 286 q 690 139 690 233 q 729 44 690 82 q 824 7 768 7 q 915 42 878 7 q 951 129 951 78 z "},"⅞":{"ha":1075,"x_min":32,"x_max":1024,"o":"m 47 1011 l 418 1011 l 418 1006 l 204 415 l 124 415 l 376 947 l 279 947 q 32 929 117 947 l 47 1011 m 196 0 l 807 1011 l 839 1011 l 228 0 l 196 0 m 1024 160 q 964 39 1024 86 q 819 -8 907 -8 q 682 31 738 -8 q 626 135 626 71 q 760 294 626 246 q 653 444 653 351 q 703 558 653 513 q 832 603 754 603 q 951 566 903 603 q 999 472 999 529 q 881 328 999 378 q 1024 160 1024 261 m 832 349 l 860 336 q 933 472 933 389 q 903 556 933 522 q 826 589 874 589 q 749 557 778 589 q 721 475 721 525 q 747 403 721 432 q 832 349 774 375 m 954 129 q 835 260 954 207 l 796 276 l 776 286 q 693 139 693 233 q 732 44 693 82 q 826 7 771 7 q 917 42 881 7 q 954 129 954 78 z "},"←":{"ha":1142,"x_min":46,"x_max":1094,"o":"m 1092 506 q 1024 245 1094 367 q 831 52 953 124 q 571 -17 710 -19 q 202 136 358 -21 q 50 506 46 293 q 202 875 46 718 q 571 1028 358 1032 q 831 959 710 1031 q 1024 766 953 888 q 1092 506 1094 644 m 1061 506 q 918 858 1065 708 q 571 1003 771 1007 q 224 858 371 1007 q 81 506 76 708 q 224 153 76 303 q 571 8 371 4 q 918 153 771 4 q 1061 506 1065 303 m 901 368 q 900 354 901 357 l 724 354 q 690 428 717 385 q 643 494 663 475 l 454 494 q 558 229 528 383 l 546 224 q 390 379 490 296 q 210 506 292 464 q 390 631 289 546 q 546 788 492 717 l 558 782 q 454 517 528 628 l 643 517 q 690 582 661 535 q 724 657 717 628 l 900 657 q 878 574 906 621 q 813 506 850 528 q 875 445 849 486 q 901 368 901 404 m 797 635 l 740 635 q 672 517 713 567 l 719 517 q 766 569 743 535 q 797 635 789 604 m 878 635 l 821 635 q 750 517 804 565 l 789 517 q 847 566 819 531 q 878 635 874 601 m 719 494 l 672 494 q 740 376 713 444 l 797 376 q 766 442 789 407 q 719 494 743 476 m 789 494 l 750 494 q 821 376 804 446 l 878 376 q 847 445 874 410 q 789 494 819 481 z "},"↑":{"ha":1142,"x_min":46,"x_max":1094,"o":"m 1092 506 q 1024 245 1094 367 q 831 52 953 124 q 571 -17 710 -19 q 202 136 358 -21 q 50 506 46 293 q 202 875 46 718 q 571 1028 358 1032 q 831 959 710 1031 q 1024 766 953 888 q 1092 506 1094 644 m 1061 506 q 918 858 1065 708 q 571 1003 771 1007 q 224 858 371 1007 q 81 506 76 708 q 224 153 76 303 q 571 8 371 4 q 918 153 771 4 q 1061 506 1065 303 m 853 532 l 847 519 q 582 624 693 550 l 582 435 q 647 388 600 417 q 722 354 693 361 l 722 178 q 708 176 719 176 q 631 203 672 176 q 571 265 590 229 q 503 199 547 225 q 419 178 457 172 l 419 354 q 493 388 450 361 q 560 435 540 415 l 560 624 q 294 519 449 550 l 289 532 q 444 688 361 588 q 571 868 529 786 q 696 688 611 789 q 853 532 782 586 m 560 358 l 560 406 q 442 338 510 365 l 442 281 q 507 312 472 289 q 560 358 542 335 m 700 281 l 700 338 q 582 406 632 365 l 582 358 q 635 312 600 335 q 700 281 669 289 m 560 289 l 560 328 q 442 257 511 274 l 442 200 q 510 231 475 204 q 560 289 546 258 m 700 200 l 700 257 q 582 328 631 274 l 582 289 q 631 231 596 258 q 700 200 667 204 z "},"→":{"ha":1142,"x_min":46,"x_max":1094,"o":"m 1092 506 q 1024 245 1094 367 q 831 52 953 124 q 571 -17 710 -19 q 202 136 358 -21 q 50 506 46 293 q 202 875 46 718 q 571 1028 358 1032 q 831 959 710 1031 q 1024 766 953 888 q 1092 506 1094 644 m 1061 506 q 918 858 1065 708 q 571 1003 771 1007 q 224 858 371 1007 q 81 506 76 708 q 224 153 76 303 q 571 8 371 4 q 918 153 771 4 q 1061 506 1065 303 m 932 506 q 751 379 850 464 q 596 224 651 296 l 583 229 q 688 494 614 383 l 499 494 q 451 428 479 475 q 418 354 425 385 l 242 354 q 240 368 240 357 q 267 445 240 404 q 329 506 293 486 q 263 574 289 529 q 242 657 236 619 l 418 657 q 451 582 425 628 q 499 517 481 535 l 688 517 q 583 782 614 628 l 596 788 q 751 631 650 717 q 932 506 853 546 m 353 517 l 392 517 q 321 635 338 565 l 264 635 q 295 566 268 601 q 353 517 322 531 m 422 517 l 469 517 q 401 635 429 567 l 344 635 q 376 569 353 604 q 422 517 399 535 m 264 376 l 321 376 q 392 494 338 446 l 353 494 q 295 445 322 481 q 264 376 268 410 m 344 376 l 401 376 q 469 494 429 444 l 422 494 q 376 442 399 476 q 344 376 353 407 z "},"↓":{"ha":1142,"x_min":46,"x_max":1094,"o":"m 1092 506 q 1024 245 1094 367 q 831 52 953 124 q 571 -17 710 -19 q 202 136 358 -21 q 50 506 46 293 q 202 875 46 718 q 571 1028 358 1032 q 831 959 710 1031 q 1024 766 953 888 q 1092 506 1094 644 m 1061 506 q 918 858 1065 708 q 571 1003 771 1007 q 224 858 371 1007 q 81 506 76 708 q 224 153 76 303 q 571 8 371 4 q 918 153 771 4 q 1061 506 1065 303 m 847 492 l 853 479 q 696 324 782 425 q 571 143 611 222 q 444 324 529 225 q 289 479 361 424 l 294 492 q 560 388 449 461 l 560 576 q 493 624 540 596 q 419 657 450 650 l 419 833 q 503 811 456 839 q 571 746 549 783 q 631 808 590 782 q 708 835 672 835 q 722 833 719 835 l 722 657 q 647 624 693 650 q 582 576 600 594 l 582 388 q 847 492 693 461 m 442 811 l 442 754 q 560 683 511 738 l 560 722 q 510 780 546 753 q 442 811 475 807 m 582 722 l 582 683 q 700 754 631 738 l 700 811 q 631 780 667 807 q 582 722 596 753 m 442 731 l 442 674 q 560 606 510 646 l 560 653 q 507 699 542 676 q 442 731 472 722 m 582 653 l 582 606 q 700 674 632 646 l 700 731 q 635 699 669 722 q 582 653 600 676 z "},"↖":{"ha":1142,"x_min":46,"x_max":1094,"o":"m 1092 506 q 1024 245 1094 367 q 831 52 953 124 q 571 -17 710 -19 q 202 136 358 -21 q 50 506 46 293 q 202 875 46 718 q 571 1028 358 1032 q 831 959 710 1031 q 1024 766 953 888 q 1092 506 1094 644 m 1061 506 q 918 858 1065 708 q 571 1003 771 1007 q 224 858 371 1007 q 81 506 76 708 q 224 153 76 303 q 571 8 371 4 q 918 153 771 4 q 1061 506 1065 303 m 786 504 l 911 379 q 785 329 876 329 q 743 333 761 329 q 747 292 747 314 q 697 165 747 200 l 572 290 q 600 367 589 321 q 614 447 614 414 l 479 581 q 367 319 456 450 l 354 324 q 360 424 360 358 q 315 761 360 625 q 653 717 451 717 q 753 722 718 717 l 757 710 q 496 597 626 621 l 629 463 q 710 475 660 463 q 786 504 758 489 m 703 407 q 822 438 768 407 l 783 476 q 650 442 715 449 l 683 408 q 703 407 688 407 m 600 293 l 639 254 q 669 374 669 308 q 668 393 669 389 l 635 426 q 600 293 628 361 m 781 351 q 879 379 840 351 l 839 421 q 704 388 776 381 l 733 358 q 781 351 754 351 m 725 296 q 718 343 725 325 l 689 372 q 656 238 696 300 l 697 197 q 725 296 725 236 z "},"↗":{"ha":1142,"x_min":46,"x_max":1094,"o":"m 1092 506 q 1024 245 1094 367 q 831 52 953 124 q 571 -17 710 -19 q 202 136 358 -21 q 50 506 46 293 q 202 875 46 718 q 571 1028 358 1032 q 831 959 710 1031 q 1024 766 953 888 q 1092 506 1094 644 m 1061 506 q 918 858 1065 708 q 571 1003 771 1007 q 224 858 371 1007 q 81 506 76 708 q 224 153 76 303 q 571 8 371 4 q 918 153 771 4 q 1061 506 1065 303 m 489 717 q 826 761 690 717 q 782 424 782 625 q 788 324 782 358 l 775 319 q 663 581 686 450 l 528 447 q 540 367 528 417 q 569 290 554 318 l 444 165 q 394 292 394 200 q 399 333 394 314 q 357 329 381 329 q 231 379 265 329 l 356 504 q 432 475 383 489 q 513 463 482 463 l 646 597 q 385 710 515 621 l 389 722 q 489 717 424 717 m 458 408 l 492 442 q 358 476 426 449 l 319 438 q 439 407 374 407 q 458 408 454 407 m 507 426 l 474 393 q 472 374 472 389 q 503 254 472 308 l 542 293 q 507 426 514 361 m 361 351 q 408 358 390 351 l 438 388 q 303 421 365 381 l 263 379 q 361 351 301 351 m 417 296 q 444 197 417 236 l 486 238 q 453 372 446 300 l 424 343 q 417 296 417 325 z "},"↘":{"ha":1142,"x_min":46,"x_max":1094,"o":"m 1092 506 q 1024 245 1094 367 q 831 52 953 124 q 571 -17 710 -19 q 202 136 358 -21 q 50 506 46 293 q 202 875 46 718 q 571 1028 358 1032 q 831 959 710 1031 q 1024 766 953 888 q 1092 506 1094 644 m 1061 506 q 918 858 1065 708 q 571 1003 771 1007 q 224 858 371 1007 q 81 506 76 708 q 224 153 76 303 q 571 8 371 4 q 918 153 771 4 q 1061 506 1065 303 m 782 588 q 826 250 782 386 q 489 294 690 294 q 389 289 424 294 l 385 301 q 646 414 515 390 l 513 549 q 432 535 479 549 q 356 507 386 524 l 231 632 q 357 682 265 682 q 399 678 381 682 q 394 719 394 697 q 444 846 394 811 l 569 721 q 540 644 554 693 q 528 564 528 594 l 663 431 q 775 692 686 561 l 788 688 q 782 588 782 653 m 417 715 q 424 668 417 689 l 453 639 q 486 774 446 711 l 444 814 q 417 715 417 775 m 542 718 l 503 757 q 472 638 472 703 q 474 618 472 622 l 507 585 q 542 718 514 650 m 361 660 q 263 632 301 660 l 303 590 q 438 624 365 631 l 408 653 q 361 660 390 660 m 439 604 q 319 574 374 604 l 358 535 q 492 569 426 563 l 458 603 q 439 604 454 604 z "},"↙":{"ha":1142,"x_min":46,"x_max":1094,"o":"m 1092 506 q 1024 245 1094 367 q 831 52 953 124 q 571 -17 710 -19 q 202 136 358 -21 q 50 506 46 293 q 202 875 46 718 q 571 1028 358 1032 q 831 959 710 1031 q 1024 766 953 888 q 1092 506 1094 644 m 1061 506 q 918 858 1065 708 q 571 1003 771 1007 q 224 858 371 1007 q 81 506 76 708 q 224 153 76 303 q 571 8 371 4 q 918 153 771 4 q 1061 506 1065 303 m 785 682 q 911 632 876 682 l 786 507 q 710 535 756 524 q 629 549 663 549 l 496 414 q 757 301 626 390 l 753 289 q 653 294 718 294 q 315 250 451 294 q 360 588 360 386 q 354 688 360 653 l 367 692 q 479 431 456 561 l 614 564 q 600 644 614 597 q 572 721 589 690 l 697 846 q 747 719 747 811 q 743 678 747 697 q 785 682 761 682 m 725 715 q 697 814 725 775 l 656 774 q 689 639 696 711 l 718 668 q 725 715 725 689 m 635 585 l 668 618 q 669 638 669 622 q 639 757 669 703 l 600 718 q 635 585 628 650 m 781 660 q 733 653 754 660 l 704 624 q 839 590 776 631 l 879 632 q 781 660 840 660 m 683 603 l 650 569 q 783 535 715 563 l 822 574 q 703 604 768 604 q 683 603 688 604 z "},"∂":{"ha":729,"x_min":32,"x_max":674,"o":"m 671 581 q 566 149 674 319 q 292 -17 458 -21 q 103 61 175 -17 q 32 267 32 139 q 121 500 32 410 q 349 590 210 590 q 592 476 488 590 q 596 578 596 525 q 538 883 596 775 q 372 992 481 992 q 244 958 311 992 q 135 872 178 925 l 118 889 q 388 1028 232 1028 q 597 912 524 1028 q 671 581 671 796 m 589 440 q 357 563 490 563 q 174 487 240 563 q 107 281 107 411 q 163 81 107 160 q 304 3 218 3 q 487 124 408 3 q 589 440 565 246 z "},"∆":{"ha":856,"x_min":26,"x_max":829,"o":"m 431 1028 l 829 0 l 26 0 l 425 1028 l 431 1028 m 740 25 l 403 901 l 63 25 l 740 25 z "},"∏":{"ha":906,"x_min":35,"x_max":871,"o":"m 718 983 l 718 -83 l 646 -83 l 646 986 l 557 986 l 349 986 l 260 986 l 260 -83 l 188 -83 l 188 983 q 35 969 114 978 l 51 1011 l 854 1011 l 871 969 q 718 983 758 982 z "},"∑":{"ha":753,"x_min":32,"x_max":719,"o":"m 717 -31 l 719 -31 l 697 -83 l 32 -83 l 32 -78 l 364 472 l 43 1006 l 43 1011 l 681 1011 l 697 958 l 694 958 q 490 979 589 972 q 261 986 382 986 l 138 986 l 450 474 l 126 -58 l 271 -58 q 717 -31 529 -58 z "},"−":{"ha":706,"x_min":69,"x_max":636,"o":"m 69 492 l 69 519 l 636 519 l 636 492 l 69 492 z "},"∕":{"ha":572,"x_min":-36,"x_max":607,"o":"m -36 0 l 575 1011 l 607 1011 l -4 0 l -36 0 z "},"∙":{"ha":444,"x_min":124,"x_max":321,"o":"m 222 313 l 124 410 l 222 508 l 321 410 l 222 313 z "},"√":{"ha":732,"x_min":-11,"x_max":744,"o":"m 717 990 l 744 982 l 368 -17 l 363 -17 l 103 551 l -11 551 l -11 574 l 156 574 l 378 89 l 717 990 z "},"∞":{"ha":1138,"x_min":51,"x_max":1088,"o":"m 1024 644 q 1056 613 1024 644 q 1088 493 1088 581 q 1024 342 1088 406 q 871 278 960 278 q 711 322 781 278 q 569 460 642 367 q 428 322 497 367 q 268 278 358 278 q 115 342 179 278 q 51 493 51 406 q 115 644 51 581 q 268 708 179 708 q 428 664 358 708 q 569 526 497 619 q 711 664 642 619 q 871 708 781 708 q 1024 644 960 708 m 544 494 q 410 638 465 597 q 268 681 356 678 q 141 626 194 681 q 88 493 88 571 q 141 360 88 415 q 268 306 194 306 q 374 329 326 306 q 454 388 418 351 q 544 494 490 424 m 998 360 q 1025 388 998 360 q 1051 493 1051 415 q 998 626 1051 571 q 871 681 944 681 q 764 657 814 681 q 684 598 721 635 q 594 492 647 561 q 728 349 674 389 q 871 306 783 308 q 998 360 944 306 z "},"∫":{"ha":604,"x_min":-44,"x_max":647,"o":"m -44 -317 l -44 -297 q 92 -219 39 -285 q 157 -49 146 -154 l 253 872 q 326 1064 267 997 q 482 1131 386 1131 q 647 1082 569 1131 l 639 1065 q 501 1097 574 1097 q 318 861 342 1097 l 224 -49 q 143 -231 213 -161 q -44 -317 74 -300 z "},"≈":{"ha":706,"x_min":71,"x_max":639,"o":"m 349 586 q 222 626 267 626 q 90 583 146 626 l 71 606 q 222 654 136 654 q 363 611 268 654 q 488 571 447 571 q 619 614 564 571 l 639 592 q 488 543 574 543 q 349 586 438 543 m 349 388 q 222 428 267 428 q 90 385 146 428 l 71 407 q 222 456 136 456 q 363 413 268 456 q 488 372 447 372 q 619 415 564 372 l 639 393 q 488 344 574 344 q 349 388 438 344 z "},"≠":{"ha":706,"x_min":69,"x_max":636,"o":"m 636 592 l 424 592 l 317 419 l 636 419 l 636 392 l 300 392 l 186 208 l 161 225 l 264 392 l 69 392 l 69 419 l 282 419 l 389 592 l 69 592 l 69 619 l 406 619 l 519 803 l 544 786 l 442 619 l 636 619 l 636 592 z "},"≤":{"ha":706,"x_min":65,"x_max":632,"o":"m 632 756 l 106 506 l 632 256 l 618 231 l 65 493 l 65 518 l 618 781 l 632 756 m 65 17 l 65 44 l 632 44 l 632 17 l 65 17 z "},"≥":{"ha":706,"x_min":74,"x_max":640,"o":"m 88 781 l 640 518 l 640 493 l 88 231 l 74 256 l 600 506 l 74 756 l 88 781 m 74 17 l 74 44 l 640 44 l 640 17 l 74 17 z "},"▴":{"ha":449,"x_min":47,"x_max":400,"o":"m 47 349 l 224 664 l 400 349 l 47 349 z "},"▸":{"ha":450,"x_min":43,"x_max":358,"o":"m 358 329 l 43 506 l 358 683 l 358 329 z "},"▾":{"ha":440,"x_min":44,"x_max":397,"o":"m 221 349 l 44 664 l 397 664 l 221 349 z "},"◂":{"ha":450,"x_min":92,"x_max":407,"o":"m 92 329 l 92 683 l 407 506 l 92 329 z "},"◊":{"ha":701,"x_min":38,"x_max":665,"o":"m 354 1028 l 665 514 l 354 0 l 349 0 l 38 514 l 349 1028 l 354 1028 m 324 89 l 582 514 l 324 939 l 65 514 l 324 89 z "},"☐":{"ha":1008,"x_min":89,"x_max":919,"o":"m 89 828 l 919 828 l 919 0 l 89 0 l 89 828 m 889 800 l 119 800 l 119 28 l 889 28 l 889 800 z "},"☑":{"ha":1008,"x_min":89,"x_max":1022,"o":"m 531 256 q 993 1004 688 590 l 1022 986 l 517 167 q 283 508 406 363 l 333 543 q 531 256 449 403 m 889 28 l 889 622 l 919 672 l 919 0 l 89 0 l 89 828 l 757 828 l 740 800 l 119 800 l 119 28 l 889 28 z "},"☒":{"ha":1008,"x_min":89,"x_max":919,"o":"m 89 828 l 919 828 l 919 0 l 89 0 l 89 828 m 889 800 l 119 800 l 119 28 l 889 28 l 889 800 m 249 179 l 483 414 l 249 649 l 269 669 l 504 435 l 739 669 l 760 649 l 525 414 l 760 179 l 739 158 l 504 393 l 269 158 l 249 179 z "},"♡":{"ha":1339,"x_min":44,"x_max":1294,"o":"m 1294 514 q 1236 303 1294 394 q 1100 153 1181 214 q 904 25 1019 92 q 676 -199 717 -86 l 658 -207 q 603 -104 643 -144 q 429 19 564 -64 q 214 164 274 118 q 44 488 44 296 q 145 756 44 649 q 393 864 246 864 q 561 819 486 864 q 675 701 636 775 q 797 819 721 775 q 967 863 874 863 q 1201 764 1108 863 q 1294 514 1294 665 m 876 40 l 904 57 q 1060 161 993 110 q 1222 493 1222 288 q 1142 740 1222 640 q 943 839 1061 839 q 771 772 847 839 q 674 606 697 708 l 661 600 q 556 769 638 699 q 375 839 474 839 q 189 747 261 839 q 117 510 117 654 q 164 311 117 392 q 279 178 213 228 q 472 46 357 119 q 598 -42 556 -6 q 668 -124 640 -78 q 876 40 725 -51 z "},"♥":{"ha":1339,"x_min":44,"x_max":1294,"o":"m 1294 514 q 1236 303 1294 394 q 1100 153 1181 214 q 904 25 1019 92 q 676 -199 717 -86 l 658 -207 q 603 -104 643 -144 q 429 19 564 -64 q 214 164 274 118 q 44 488 44 296 q 145 756 44 649 q 393 864 246 864 q 563 817 488 864 q 674 692 639 769 q 794 817 718 771 q 967 863 871 863 q 1201 764 1108 863 q 1294 514 1294 665 z "},"✓":{"ha":1008,"x_min":283,"x_max":1022,"o":"m 993 1004 l 1022 986 l 517 167 q 283 508 406 363 l 333 543 q 531 256 449 403 q 993 1004 688 590 z "},"❛":{"ha":408,"x_min":47,"x_max":365,"o":"m 47 282 q 124 500 47 397 q 338 649 201 603 l 343 635 q 189 524 246 599 q 132 364 132 449 q 198 213 132 275 q 365 151 264 151 l 365 0 q 131 81 215 0 q 47 282 47 161 z "},"❜":{"ha":407,"x_min":49,"x_max":367,"o":"m 76 363 l 71 376 q 225 488 168 413 q 282 647 282 563 q 216 798 282 736 q 49 860 150 860 l 49 1011 q 283 931 199 1011 q 367 729 367 850 q 290 511 367 614 q 76 363 213 408 z "},"❝":{"ha":739,"x_min":47,"x_max":697,"o":"m 47 282 q 124 500 47 397 q 338 649 201 603 l 343 635 q 189 524 246 599 q 132 364 132 449 q 195 215 132 276 q 357 151 258 153 l 357 0 q 129 83 211 1 q 47 282 47 164 m 379 282 q 456 500 379 397 q 669 649 533 603 l 675 635 q 520 524 576 599 q 464 364 464 449 q 530 213 464 275 q 697 151 596 151 l 697 0 q 463 81 547 0 q 379 282 379 161 z "},"❞":{"ha":739,"x_min":49,"x_max":697,"o":"m 76 363 l 71 376 q 225 488 168 413 q 282 647 282 563 q 216 798 282 736 q 49 860 150 860 l 49 1011 q 283 931 199 1011 q 367 729 367 850 q 290 511 367 614 q 76 363 213 408 m 408 363 l 403 376 q 556 488 500 413 q 613 647 613 563 q 551 794 613 733 q 393 860 489 856 l 393 1011 q 617 927 538 1007 q 697 729 697 847 q 620 511 697 614 q 408 363 543 408 z "},"❦":{"ha":1426,"x_min":56,"x_max":1393,"o":"m 857 1032 q 722 592 749 875 q 864 718 775 675 q 1046 764 953 764 q 1215 709 1149 764 q 1281 560 1281 654 q 1253 440 1281 499 q 1210 367 1236 404 q 1160 305 1183 331 q 1081 221 1138 279 q 976 110 1021 161 q 885 -104 885 3 q 924 -216 885 -176 q 1026 -256 963 -256 q 1257 -115 1151 -256 l 1272 -121 q 1121 -278 1201 -226 q 926 -331 1040 -331 q 569 -201 740 -331 q 294 122 399 -72 q 190 496 190 317 q 244 676 190 608 q 381 744 299 744 q 599 610 500 744 q 592 500 594 574 l 592 376 q 631 110 592 247 q 735 -106 671 -29 q 650 406 650 61 q 818 1046 650 833 q 564 1131 667 1101 q 379 1158 468 1158 q 194 1111 265 1158 q 122 986 122 1064 q 150 899 122 950 l 89 876 q 56 997 56 933 q 135 1147 56 1089 q 347 1206 215 1206 q 549 1175 449 1206 q 806 1086 664 1140 l 840 1074 q 1176 1222 972 1222 q 1335 1188 1276 1222 q 1393 1097 1393 1154 q 1331 999 1393 1038 q 1174 960 1269 960 q 857 1032 1065 960 m 876 1058 q 1179 982 1078 982 q 1294 1013 1253 982 q 1335 1093 1335 1044 q 1289 1172 1335 1143 q 1165 1200 1243 1200 q 876 1058 992 1200 z "},"ﬀ":{"ha":932,"x_min":26,"x_max":1035,"o":"m 710 875 l 710 738 l 942 738 l 924 707 l 710 707 l 710 0 l 578 0 l 578 707 l 265 707 l 265 0 l 133 0 l 133 707 l 26 707 l 26 738 l 133 738 l 133 860 q 197 1053 133 985 q 372 1122 260 1122 q 582 1064 478 1122 l 572 1046 q 432 1075 503 1075 q 265 867 265 1075 l 265 738 l 578 738 l 578 868 q 640 1062 578 993 q 815 1131 703 1131 q 1035 1067 929 1131 l 1025 1050 q 876 1083 950 1083 q 710 875 710 1083 z "},"ﬁ":{"ha":806,"x_min":26,"x_max":750,"o":"m 665 738 l 717 753 l 722 753 l 722 0 l 590 0 l 590 707 l 265 707 l 265 0 l 133 0 l 133 707 l 26 707 l 26 738 l 133 738 l 133 868 q 197 1062 133 993 q 369 1131 260 1131 q 532 1089 447 1131 l 526 1071 q 432 1083 481 1083 q 265 875 265 1083 l 265 738 l 665 738 m 750 964 l 656 869 l 561 964 l 656 1058 l 750 964 z "},"ﬂ":{"ha":808,"x_min":26,"x_max":724,"o":"m 718 1125 l 724 1125 l 724 0 l 593 0 l 593 1050 q 432 1083 510 1083 q 265 875 265 1083 l 265 738 l 499 738 l 479 707 l 265 707 l 265 0 l 133 0 l 133 707 l 26 707 l 26 738 l 133 738 l 133 868 q 197 1062 133 993 q 372 1131 260 1131 q 596 1071 488 1131 l 718 1125 z "},"ﬃ":{"ha":1250,"x_min":26,"x_max":1194,"o":"m 1108 738 l 1160 753 l 1165 753 l 1165 0 l 1035 0 l 1035 707 l 710 707 l 710 0 l 578 0 l 578 707 l 265 707 l 265 0 l 133 0 l 133 707 l 26 707 l 26 738 l 133 738 l 133 860 q 197 1053 133 985 q 372 1122 260 1122 q 582 1064 478 1122 l 572 1046 q 432 1075 503 1075 q 265 867 265 1075 l 265 738 l 578 738 l 578 868 q 641 1062 578 993 q 814 1131 704 1131 q 976 1089 892 1131 l 971 1071 q 876 1083 922 1083 q 710 875 710 1083 l 710 738 l 1108 738 m 1194 964 l 1100 869 l 1006 964 l 1100 1058 l 1194 964 z "},"﻿":{"ha":0,"x_min":0,"x_max":0,"o":""}}}
